<svg xmlns="http://www.w3.org/2000/svg" width="224.88" viewBox="0 0 224.88 90" height="90" version="1.0"><defs><clipPath id="a"><path d="M 0 0.0234375 L 224.761719 0.0234375 L 224.761719 89.976562 L 0 89.976562 Z M 0 0.0234375"/></clipPath></defs><g clip-path="url(#a)"><path fill="#FFF" d="M 0 0.0234375 L 224.878906 0.0234375 L 224.878906 97.472656 L 0 97.472656 Z M 0 0.0234375"/><path fill="#FFF" d="M 0 0.0234375 L 224.878906 0.0234375 L 224.878906 89.976562 L 0 89.976562 Z M 0 0.0234375"/><path d="M 0 0.0234375 L 224.878906 0.0234375 L 224.878906 89.976562 L 0 89.976562 Z M 0 0.0234375"/></g><g fill="#FFF"><g><g><path d="M 10.859375 -18.359375 C 11.171875 -18.359375 11.519531 -18.332031 11.90625 -18.28125 C 12.300781 -18.226562 12.6875 -18.140625 13.0625 -18.015625 C 13.445312 -17.890625 13.800781 -17.726562 14.125 -17.53125 C 14.445312 -17.34375 14.695312 -17.097656 14.875 -16.796875 C 15.09375 -16.640625 15.285156 -16.40625 15.453125 -16.09375 C 15.609375 -15.769531 15.6875 -15.457031 15.6875 -15.15625 C 15.6875 -14.820312 15.628906 -14.515625 15.515625 -14.234375 C 15.398438 -13.953125 15.25 -13.695312 15.0625 -13.46875 C 14.882812 -13.25 14.6875 -13.050781 14.46875 -12.875 C 14.25 -12.695312 14.039062 -12.546875 13.84375 -12.421875 C 13.644531 -12.304688 13.46875 -12.21875 13.3125 -12.15625 C 13.164062 -12.101562 13.070312 -12.078125 13.03125 -12.078125 C 12.988281 -12.078125 12.914062 -12.097656 12.8125 -12.140625 C 12.707031 -12.179688 12.609375 -12.234375 12.515625 -12.296875 C 12.398438 -12.359375 12.28125 -12.429688 12.15625 -12.515625 C 12.15625 -12.523438 12.238281 -12.578125 12.40625 -12.671875 C 12.570312 -12.773438 12.753906 -12.925781 12.953125 -13.125 C 13.160156 -13.320312 13.347656 -13.582031 13.515625 -13.90625 C 13.679688 -14.238281 13.765625 -14.644531 13.765625 -15.125 C 13.679688 -15.28125 13.570312 -15.429688 13.4375 -15.578125 C 13.300781 -15.722656 13.125 -15.847656 12.90625 -15.953125 C 12.6875 -16.066406 12.421875 -16.160156 12.109375 -16.234375 C 11.796875 -16.304688 11.425781 -16.34375 11 -16.34375 C 10.851562 -16.34375 10.625 -16.316406 10.3125 -16.265625 C 10.007812 -16.222656 9.65625 -16.144531 9.25 -16.03125 C 8.84375 -15.914062 8.40625 -15.757812 7.9375 -15.5625 C 7.476562 -15.375 7.015625 -15.117188 6.546875 -14.796875 C 6.078125 -14.472656 5.625 -14.085938 5.1875 -13.640625 C 4.757812 -13.191406 4.378906 -12.660156 4.046875 -12.046875 C 3.710938 -11.441406 3.445312 -10.742188 3.25 -9.953125 C 3.050781 -9.171875 2.953125 -8.28125 2.953125 -7.28125 C 2.953125 -6.738281 2.992188 -6.242188 3.078125 -5.796875 C 3.171875 -5.359375 3.285156 -4.960938 3.421875 -4.609375 C 3.566406 -4.253906 3.734375 -3.9375 3.921875 -3.65625 C 4.117188 -3.382812 4.328125 -3.140625 4.546875 -2.921875 C 4.671875 -2.859375 4.816406 -2.769531 4.984375 -2.65625 C 5.148438 -2.550781 5.375 -2.445312 5.65625 -2.34375 C 5.945312 -2.238281 6.3125 -2.148438 6.75 -2.078125 C 7.195312 -2.003906 7.769531 -1.96875 8.46875 -1.96875 C 9.0625 -1.96875 9.625 -2.035156 10.15625 -2.171875 C 10.695312 -2.316406 11.203125 -2.5 11.671875 -2.71875 C 12.140625 -2.9375 12.570312 -3.175781 12.96875 -3.4375 C 13.363281 -3.707031 13.710938 -3.972656 14.015625 -4.234375 C 14.316406 -4.492188 14.566406 -4.726562 14.765625 -4.9375 C 14.960938 -5.15625 15.101562 -5.320312 15.1875 -5.4375 C 15.351562 -5.664062 15.46875 -5.8125 15.53125 -5.875 C 15.601562 -5.9375 15.664062 -5.96875 15.71875 -5.96875 C 15.757812 -5.96875 15.800781 -5.960938 15.84375 -5.953125 C 15.882812 -5.941406 15.925781 -5.9375 15.96875 -5.9375 C 16.050781 -5.9375 16.097656 -5.976562 16.109375 -6.0625 C 16.128906 -6.144531 16.15625 -6.1875 16.1875 -6.1875 C 16.195312 -6.1875 16.207031 -6.148438 16.21875 -6.078125 C 16.226562 -6.003906 16.234375 -5.921875 16.234375 -5.828125 C 16.234375 -5.773438 16.226562 -5.722656 16.21875 -5.671875 C 16.207031 -5.628906 16.203125 -5.582031 16.203125 -5.53125 C 16.191406 -5.476562 16.15625 -5.300781 16.09375 -5 C 16.03125 -4.695312 15.90625 -4.335938 15.71875 -3.921875 C 15.539062 -3.515625 15.289062 -3.070312 14.96875 -2.59375 C 14.644531 -2.125 14.226562 -1.6875 13.71875 -1.28125 C 13.207031 -0.882812 12.582031 -0.550781 11.84375 -0.28125 C 11.113281 -0.0195312 10.25 0.109375 9.25 0.109375 C 8.644531 0.109375 8.085938 0.0546875 7.578125 -0.046875 C 7.066406 -0.160156 6.609375 -0.296875 6.203125 -0.453125 C 5.796875 -0.617188 5.429688 -0.800781 5.109375 -1 C 4.796875 -1.195312 4.535156 -1.382812 4.328125 -1.5625 C 3.878906 -1.8125 3.445312 -2.132812 3.03125 -2.53125 C 2.625 -2.925781 2.265625 -3.398438 1.953125 -3.953125 C 1.640625 -4.503906 1.390625 -5.144531 1.203125 -5.875 C 1.015625 -6.601562 0.921875 -7.429688 0.921875 -8.359375 C 0.921875 -9.285156 1.039062 -10.175781 1.28125 -11.03125 C 1.53125 -11.894531 1.875 -12.695312 2.3125 -13.4375 C 2.757812 -14.175781 3.285156 -14.847656 3.890625 -15.453125 C 4.503906 -16.054688 5.175781 -16.570312 5.90625 -17 C 6.644531 -17.4375 7.429688 -17.769531 8.265625 -18 C 9.109375 -18.238281 9.972656 -18.359375 10.859375 -18.359375 Z M 10.859375 -18.359375" transform="translate(69.827 41.944)"/></g></g></g><g fill="#FFF"><g><g><path d="M 10.03125 -5.53125 C 10.03125 -4.613281 9.894531 -3.785156 9.625 -3.046875 C 9.351562 -2.316406 8.988281 -1.691406 8.53125 -1.171875 C 8.070312 -0.660156 7.539062 -0.265625 6.9375 0.015625 C 6.332031 0.296875 5.695312 0.4375 5.03125 0.4375 C 4.75 0.4375 4.441406 0.398438 4.109375 0.328125 C 3.773438 0.265625 3.441406 0.160156 3.109375 0.015625 C 2.773438 -0.128906 2.453125 -0.320312 2.140625 -0.5625 C 1.828125 -0.8125 1.546875 -1.113281 1.296875 -1.46875 C 1.054688 -1.832031 0.863281 -2.253906 0.71875 -2.734375 C 0.570312 -3.222656 0.503906 -3.78125 0.515625 -4.40625 C 0.515625 -5.125 0.597656 -5.773438 0.765625 -6.359375 C 0.941406 -6.953125 1.164062 -7.484375 1.4375 -7.953125 C 1.71875 -8.421875 2.03125 -8.828125 2.375 -9.171875 C 2.726562 -9.515625 3.082031 -9.800781 3.4375 -10.03125 C 3.789062 -10.257812 4.128906 -10.429688 4.453125 -10.546875 C 4.773438 -10.660156 5.050781 -10.726562 5.28125 -10.75 C 5.40625 -10.757812 5.460938 -10.742188 5.453125 -10.703125 C 5.441406 -10.671875 5.410156 -10.632812 5.359375 -10.59375 C 5.304688 -10.550781 5.257812 -10.503906 5.21875 -10.453125 C 5.175781 -10.410156 5.191406 -10.382812 5.265625 -10.375 C 5.328125 -10.363281 5.375 -10.347656 5.40625 -10.328125 C 5.445312 -10.304688 5.488281 -10.285156 5.53125 -10.265625 L 5.640625 -10.375 C 5.703125 -10.425781 5.757812 -10.453125 5.8125 -10.453125 C 5.875 -10.453125 5.925781 -10.441406 5.96875 -10.421875 C 6.007812 -10.410156 6.039062 -10.40625 6.0625 -10.40625 C 6.09375 -10.40625 6.113281 -10.429688 6.125 -10.484375 C 6.144531 -10.578125 6.175781 -10.628906 6.21875 -10.640625 C 6.269531 -10.660156 6.382812 -10.671875 6.5625 -10.671875 C 6.664062 -10.671875 6.820312 -10.640625 7.03125 -10.578125 C 7.25 -10.515625 7.488281 -10.40625 7.75 -10.25 C 8.007812 -10.101562 8.269531 -9.90625 8.53125 -9.65625 C 8.800781 -9.414062 9.046875 -9.101562 9.265625 -8.71875 C 9.492188 -8.34375 9.675781 -7.890625 9.8125 -7.359375 C 9.957031 -6.835938 10.03125 -6.226562 10.03125 -5.53125 Z M 5.28125 -9.375 C 4.976562 -9.195312 4.675781 -8.945312 4.375 -8.625 C 4.082031 -8.3125 3.816406 -7.945312 3.578125 -7.53125 C 3.335938 -7.125 3.140625 -6.664062 2.984375 -6.15625 C 2.835938 -5.65625 2.765625 -5.125 2.765625 -4.5625 C 2.765625 -3.957031 2.816406 -3.410156 2.921875 -2.921875 C 3.035156 -2.429688 3.195312 -2.015625 3.40625 -1.671875 C 3.625 -1.328125 3.878906 -1.0625 4.171875 -0.875 C 4.472656 -0.6875 4.816406 -0.59375 5.203125 -0.59375 C 5.546875 -0.59375 5.882812 -0.6875 6.21875 -0.875 C 6.5625 -1.070312 6.863281 -1.363281 7.125 -1.75 C 7.382812 -2.132812 7.59375 -2.609375 7.75 -3.171875 C 7.914062 -3.742188 8 -4.40625 8 -5.15625 C 8 -5.914062 7.898438 -6.550781 7.703125 -7.0625 C 7.503906 -7.582031 7.28125 -8.003906 7.03125 -8.328125 C 6.78125 -8.648438 6.539062 -8.878906 6.3125 -9.015625 C 6.082031 -9.148438 5.941406 -9.21875 5.890625 -9.21875 C 5.765625 -9.21875 5.671875 -9.21875 5.609375 -9.21875 C 5.546875 -9.21875 5.4375 -9.269531 5.28125 -9.375 Z M 5.28125 -9.375" transform="translate(86.725 41.944)"/></g></g></g><g fill="#FFF"><g><g><path d="M 13.890625 -0.890625 C 13.921875 -0.816406 13.941406 -0.757812 13.953125 -0.71875 C 13.960938 -0.675781 13.96875 -0.632812 13.96875 -0.59375 C 13.96875 -0.507812 13.9375 -0.460938 13.875 -0.453125 C 13.8125 -0.441406 13.742188 -0.425781 13.671875 -0.40625 C 13.648438 -0.394531 13.628906 -0.351562 13.609375 -0.28125 C 13.597656 -0.207031 13.578125 -0.125 13.546875 -0.03125 C 13.515625 0.0507812 13.46875 0.125 13.40625 0.1875 C 13.34375 0.257812 13.253906 0.296875 13.140625 0.296875 C 12.765625 0.273438 12.472656 0.195312 12.265625 0.0625 C 12.054688 -0.0703125 11.898438 -0.257812 11.796875 -0.5 C 11.691406 -0.738281 11.625 -1.019531 11.59375 -1.34375 C 11.570312 -1.675781 11.5625 -2.039062 11.5625 -2.4375 C 11.5625 -2.914062 11.578125 -3.410156 11.609375 -3.921875 C 11.648438 -4.441406 11.695312 -4.945312 11.75 -5.4375 C 11.8125 -5.925781 11.859375 -6.382812 11.890625 -6.8125 C 11.929688 -7.25 11.953125 -7.617188 11.953125 -7.921875 C 11.953125 -8.367188 11.914062 -8.710938 11.84375 -8.953125 C 11.769531 -9.203125 11.664062 -9.328125 11.53125 -9.328125 C 11.46875 -9.328125 11.3125 -9.144531 11.0625 -8.78125 C 10.8125 -8.414062 10.507812 -7.863281 10.15625 -7.125 C 9.800781 -6.394531 9.421875 -5.472656 9.015625 -4.359375 C 8.609375 -3.253906 8.21875 -1.953125 7.84375 -0.453125 C 7.832031 -0.398438 7.828125 -0.335938 7.828125 -0.265625 C 7.828125 -0.191406 7.820312 -0.125 7.8125 -0.0625 C 7.800781 -0.0078125 7.78125 0.03125 7.75 0.0625 C 7.71875 0.101562 7.671875 0.125 7.609375 0.125 C 7.484375 0.125 7.382812 0.0976562 7.3125 0.046875 C 7.25 0.00390625 7.191406 -0.0390625 7.140625 -0.09375 C 7.085938 -0.15625 7.035156 -0.207031 6.984375 -0.25 C 6.941406 -0.300781 6.890625 -0.328125 6.828125 -0.328125 C 6.796875 -0.328125 6.769531 -0.304688 6.75 -0.265625 C 6.738281 -0.234375 6.71875 -0.191406 6.6875 -0.140625 C 6.664062 -0.0976562 6.632812 -0.0546875 6.59375 -0.015625 C 6.5625 0.015625 6.515625 0.03125 6.453125 0.03125 C 6.398438 0.03125 6.34375 0.0195312 6.28125 0 C 6.21875 -0.03125 6.15625 -0.0859375 6.09375 -0.171875 C 6.039062 -0.265625 5.992188 -0.398438 5.953125 -0.578125 C 5.910156 -0.765625 5.890625 -1.007812 5.890625 -1.3125 L 5.890625 -1.90625 C 5.890625 -2.03125 5.898438 -2.21875 5.921875 -2.46875 C 5.953125 -2.726562 5.984375 -3.03125 6.015625 -3.375 C 6.046875 -3.71875 6.082031 -4.085938 6.125 -4.484375 C 6.164062 -4.878906 6.195312 -5.28125 6.21875 -5.6875 C 6.25 -6.101562 6.273438 -6.507812 6.296875 -6.90625 C 6.328125 -7.300781 6.34375 -7.660156 6.34375 -7.984375 C 6.34375 -8.972656 6.21875 -9.46875 5.96875 -9.46875 C 5.90625 -9.46875 5.832031 -9.441406 5.75 -9.390625 C 5.675781 -9.347656 5.582031 -9.257812 5.46875 -9.125 C 5.363281 -8.988281 5.238281 -8.796875 5.09375 -8.546875 C 4.945312 -8.296875 4.785156 -7.960938 4.609375 -7.546875 C 4.429688 -7.128906 4.222656 -6.617188 3.984375 -6.015625 C 3.753906 -5.421875 3.503906 -4.707031 3.234375 -3.875 C 3.171875 -3.6875 3.097656 -3.414062 3.015625 -3.0625 C 2.941406 -2.707031 2.875 -2.347656 2.8125 -1.984375 C 2.757812 -1.617188 2.710938 -1.28125 2.671875 -0.96875 C 2.628906 -0.65625 2.609375 -0.453125 2.609375 -0.359375 C 2.609375 -0.328125 2.5625 -0.28125 2.46875 -0.21875 C 2.375 -0.164062 2.265625 -0.113281 2.140625 -0.0625 C 2.023438 -0.0078125 1.90625 0.03125 1.78125 0.0625 C 1.65625 0.101562 1.554688 0.125 1.484375 0.125 C 1.335938 0.125 1.222656 0.0820312 1.140625 0 C 1.066406 -0.0820312 1.007812 -0.234375 0.96875 -0.453125 C 0.925781 -0.671875 0.898438 -0.972656 0.890625 -1.359375 C 0.890625 -1.753906 0.890625 -2.257812 0.890625 -2.875 C 0.890625 -3.03125 0.894531 -3.335938 0.90625 -3.796875 C 0.925781 -4.265625 0.953125 -4.800781 0.984375 -5.40625 C 1.015625 -6.007812 1.054688 -6.640625 1.109375 -7.296875 C 1.160156 -7.960938 1.222656 -8.570312 1.296875 -9.125 C 1.367188 -9.675781 1.453125 -10.128906 1.546875 -10.484375 C 1.640625 -10.835938 1.75 -11.015625 1.875 -11.015625 C 1.9375 -11.015625 1.992188 -10.992188 2.046875 -10.953125 C 2.097656 -10.910156 2.144531 -10.863281 2.1875 -10.8125 C 2.226562 -10.769531 2.269531 -10.722656 2.3125 -10.671875 C 2.351562 -10.628906 2.394531 -10.609375 2.4375 -10.609375 C 2.476562 -10.609375 2.515625 -10.625 2.546875 -10.65625 C 2.585938 -10.695312 2.625 -10.738281 2.65625 -10.78125 C 2.6875 -10.832031 2.71875 -10.875 2.75 -10.90625 C 2.78125 -10.945312 2.804688 -10.96875 2.828125 -10.96875 C 2.847656 -10.96875 2.882812 -10.921875 2.9375 -10.828125 C 2.988281 -10.742188 3.035156 -10.644531 3.078125 -10.53125 C 3.128906 -10.414062 3.175781 -10.289062 3.21875 -10.15625 C 3.257812 -10.03125 3.28125 -9.9375 3.28125 -9.875 C 3.28125 -9.695312 3.265625 -9.445312 3.234375 -9.125 C 3.203125 -8.800781 3.164062 -8.441406 3.125 -8.046875 C 3.09375 -7.660156 3.0625 -7.265625 3.03125 -6.859375 C 3 -6.460938 2.984375 -6.09375 2.984375 -5.75 L 2.984375 -5.6875 C 3.097656 -6.070312 3.226562 -6.460938 3.375 -6.859375 C 3.53125 -7.253906 3.695312 -7.640625 3.875 -8.015625 C 4.0625 -8.398438 4.257812 -8.765625 4.46875 -9.109375 C 4.675781 -9.453125 4.890625 -9.75 5.109375 -10 C 5.335938 -10.25 5.570312 -10.445312 5.8125 -10.59375 C 6.050781 -10.75 6.289062 -10.828125 6.53125 -10.828125 C 6.832031 -10.828125 7.085938 -10.773438 7.296875 -10.671875 C 7.515625 -10.578125 7.6875 -10.4375 7.8125 -10.25 C 7.945312 -10.070312 8.046875 -9.867188 8.109375 -9.640625 C 8.171875 -9.410156 8.203125 -9.160156 8.203125 -8.890625 C 8.203125 -8.671875 8.1875 -8.410156 8.15625 -8.109375 C 8.125 -7.804688 8.085938 -7.472656 8.046875 -7.109375 C 8.015625 -6.753906 7.984375 -6.359375 7.953125 -5.921875 C 7.921875 -5.492188 7.90625 -5.023438 7.90625 -4.515625 C 8.019531 -4.828125 8.15625 -5.203125 8.3125 -5.640625 C 8.476562 -6.085938 8.65625 -6.546875 8.84375 -7.015625 C 9.039062 -7.492188 9.25 -7.960938 9.46875 -8.421875 C 9.695312 -8.890625 9.925781 -9.304688 10.15625 -9.671875 C 10.382812 -10.035156 10.613281 -10.332031 10.84375 -10.5625 C 11.070312 -10.789062 11.296875 -10.90625 11.515625 -10.90625 C 11.566406 -10.90625 11.703125 -10.882812 11.921875 -10.84375 C 12.140625 -10.800781 12.367188 -10.742188 12.609375 -10.671875 C 12.847656 -10.597656 13.070312 -10.503906 13.28125 -10.390625 C 13.488281 -10.285156 13.628906 -10.164062 13.703125 -10.03125 C 13.773438 -9.875 13.835938 -9.660156 13.890625 -9.390625 C 13.941406 -9.128906 13.96875 -8.773438 13.96875 -8.328125 C 13.96875 -7.941406 13.941406 -7.472656 13.890625 -6.921875 C 13.835938 -6.378906 13.738281 -5.722656 13.59375 -4.953125 C 13.550781 -4.691406 13.519531 -4.441406 13.5 -4.203125 C 13.488281 -3.972656 13.484375 -3.742188 13.484375 -3.515625 C 13.484375 -3.179688 13.5 -2.867188 13.53125 -2.578125 C 13.5625 -2.296875 13.597656 -2.039062 13.640625 -1.8125 C 13.691406 -1.582031 13.738281 -1.382812 13.78125 -1.21875 C 13.820312 -1.0625 13.859375 -0.953125 13.890625 -0.890625 Z M 13.890625 -0.890625" transform="translate(97.719 41.944)"/></g></g></g><g fill="#FFF"><g><g><path d="M 3.625 -17.796875 C 3.613281 -17.734375 3.597656 -17.535156 3.578125 -17.203125 C 3.554688 -16.867188 3.53125 -16.453125 3.5 -15.953125 C 3.46875 -15.453125 3.429688 -14.890625 3.390625 -14.265625 C 3.347656 -13.648438 3.304688 -13.03125 3.265625 -12.40625 C 3.234375 -11.789062 3.203125 -11.195312 3.171875 -10.625 C 3.140625 -10.050781 3.113281 -9.554688 3.09375 -9.140625 C 3.207031 -9.328125 3.351562 -9.515625 3.53125 -9.703125 C 3.71875 -9.898438 3.941406 -10.070312 4.203125 -10.21875 C 4.460938 -10.375 4.757812 -10.5 5.09375 -10.59375 C 5.4375 -10.695312 5.816406 -10.75 6.234375 -10.75 C 6.765625 -10.75 7.296875 -10.648438 7.828125 -10.453125 C 8.359375 -10.265625 8.832031 -9.96875 9.25 -9.5625 C 9.664062 -9.164062 10.003906 -8.660156 10.265625 -8.046875 C 10.535156 -7.429688 10.671875 -6.703125 10.671875 -5.859375 C 10.671875 -5.148438 10.578125 -4.503906 10.390625 -3.921875 C 10.203125 -3.347656 9.957031 -2.832031 9.65625 -2.375 C 9.351562 -1.925781 9.007812 -1.535156 8.625 -1.203125 C 8.238281 -0.867188 7.847656 -0.59375 7.453125 -0.375 C 7.054688 -0.15625 6.675781 0.00390625 6.3125 0.109375 C 5.945312 0.210938 5.628906 0.265625 5.359375 0.265625 C 5.078125 0.265625 4.816406 0.238281 4.578125 0.1875 C 4.335938 0.132812 4.125 0.0703125 3.9375 0 C 3.757812 -0.0820312 3.617188 -0.171875 3.515625 -0.265625 C 3.421875 -0.367188 3.367188 -0.46875 3.359375 -0.5625 C 3.335938 -0.757812 3.332031 -0.972656 3.34375 -1.203125 C 3.363281 -1.429688 3.445312 -1.617188 3.59375 -1.765625 C 3.738281 -1.910156 3.859375 -1.992188 3.953125 -2.015625 C 4.054688 -2.046875 4.15625 -2 4.25 -1.875 C 4.34375 -1.75 4.398438 -1.613281 4.421875 -1.46875 C 4.453125 -1.320312 4.441406 -1.207031 4.390625 -1.125 C 4.359375 -1.082031 4.359375 -1.046875 4.390625 -1.015625 C 4.421875 -0.984375 4.46875 -0.957031 4.53125 -0.9375 C 4.59375 -0.914062 4.664062 -0.894531 4.75 -0.875 C 4.832031 -0.863281 4.914062 -0.859375 5 -0.859375 C 5.300781 -0.859375 5.640625 -0.976562 6.015625 -1.21875 C 6.398438 -1.46875 6.753906 -1.804688 7.078125 -2.234375 C 7.410156 -2.660156 7.691406 -3.160156 7.921875 -3.734375 C 8.148438 -4.316406 8.257812 -4.941406 8.25 -5.609375 C 8.238281 -6.148438 8.171875 -6.617188 8.046875 -7.015625 C 7.929688 -7.410156 7.78125 -7.742188 7.59375 -8.015625 C 7.414062 -8.296875 7.207031 -8.523438 6.96875 -8.703125 C 6.738281 -8.878906 6.507812 -9.007812 6.28125 -9.09375 C 6.0625 -9.1875 5.851562 -9.242188 5.65625 -9.265625 C 5.457031 -9.296875 5.300781 -9.304688 5.1875 -9.296875 C 4.664062 -9.242188 4.222656 -9.066406 3.859375 -8.765625 C 3.492188 -8.472656 3.226562 -8.101562 3.0625 -7.65625 C 3.03125 -6.726562 2.992188 -5.796875 2.953125 -4.859375 C 2.921875 -3.921875 2.90625 -3.046875 2.90625 -2.234375 C 2.90625 -1.828125 2.910156 -1.441406 2.921875 -1.078125 C 2.929688 -0.710938 2.957031 -0.390625 3 -0.109375 C 3.007812 -0.015625 3.007812 0.046875 3 0.078125 C 2.988281 0.109375 2.960938 0.125 2.921875 0.125 C 2.890625 0.125 2.851562 0.113281 2.8125 0.09375 C 2.769531 0.0820312 2.726562 0.0664062 2.6875 0.046875 C 2.65625 0.0351562 2.644531 0.0546875 2.65625 0.109375 C 2.675781 0.171875 2.6875 0.234375 2.6875 0.296875 C 2.695312 0.367188 2.6875 0.421875 2.65625 0.453125 C 2.625 0.484375 2.546875 0.457031 2.421875 0.375 C 2.347656 0.3125 2.257812 0.265625 2.15625 0.234375 C 2.050781 0.210938 2.015625 0.234375 2.046875 0.296875 C 2.054688 0.328125 2.03125 0.34375 1.96875 0.34375 C 1.90625 0.351562 1.832031 0.34375 1.75 0.3125 C 1.664062 0.289062 1.585938 0.242188 1.515625 0.171875 C 1.441406 0.0976562 1.390625 0 1.359375 -0.125 C 1.316406 -0.394531 1.273438 -0.6875 1.234375 -1 C 1.203125 -1.3125 1.171875 -1.648438 1.140625 -2.015625 C 1.117188 -2.390625 1.097656 -2.800781 1.078125 -3.25 C 1.054688 -3.707031 1.046875 -4.222656 1.046875 -4.796875 C 1.046875 -5.222656 1.046875 -5.6875 1.046875 -6.1875 C 1.054688 -6.6875 1.078125 -7.238281 1.109375 -7.84375 C 1.140625 -8.9375 1.179688 -10.015625 1.234375 -11.078125 C 1.285156 -12.148438 1.34375 -13.128906 1.40625 -14.015625 C 1.46875 -14.910156 1.535156 -15.675781 1.609375 -16.3125 C 1.679688 -16.945312 1.757812 -17.382812 1.84375 -17.625 C 1.863281 -17.707031 1.898438 -17.757812 1.953125 -17.78125 C 2.015625 -17.800781 2.125 -17.832031 2.28125 -17.875 C 2.425781 -17.914062 2.578125 -17.957031 2.734375 -18 C 2.898438 -18.039062 3.03125 -18.050781 3.125 -18.03125 C 3.15625 -18.007812 3.203125 -18.007812 3.265625 -18.03125 C 3.328125 -18.050781 3.382812 -18.0625 3.4375 -18.0625 C 3.5 -18.0625 3.546875 -18.039062 3.578125 -18 C 3.617188 -17.96875 3.632812 -17.898438 3.625 -17.796875 Z M 3.625 -17.796875" transform="translate(112.871 41.944)"/></g></g></g><g fill="#FFF"><g><g><path d="M 10.03125 -5.53125 C 10.03125 -4.613281 9.894531 -3.785156 9.625 -3.046875 C 9.351562 -2.316406 8.988281 -1.691406 8.53125 -1.171875 C 8.070312 -0.660156 7.539062 -0.265625 6.9375 0.015625 C 6.332031 0.296875 5.695312 0.4375 5.03125 0.4375 C 4.75 0.4375 4.441406 0.398438 4.109375 0.328125 C 3.773438 0.265625 3.441406 0.160156 3.109375 0.015625 C 2.773438 -0.128906 2.453125 -0.320312 2.140625 -0.5625 C 1.828125 -0.8125 1.546875 -1.113281 1.296875 -1.46875 C 1.054688 -1.832031 0.863281 -2.253906 0.71875 -2.734375 C 0.570312 -3.222656 0.503906 -3.78125 0.515625 -4.40625 C 0.515625 -5.125 0.597656 -5.773438 0.765625 -6.359375 C 0.941406 -6.953125 1.164062 -7.484375 1.4375 -7.953125 C 1.71875 -8.421875 2.03125 -8.828125 2.375 -9.171875 C 2.726562 -9.515625 3.082031 -9.800781 3.4375 -10.03125 C 3.789062 -10.257812 4.128906 -10.429688 4.453125 -10.546875 C 4.773438 -10.660156 5.050781 -10.726562 5.28125 -10.75 C 5.40625 -10.757812 5.460938 -10.742188 5.453125 -10.703125 C 5.441406 -10.671875 5.410156 -10.632812 5.359375 -10.59375 C 5.304688 -10.550781 5.257812 -10.503906 5.21875 -10.453125 C 5.175781 -10.410156 5.191406 -10.382812 5.265625 -10.375 C 5.328125 -10.363281 5.375 -10.347656 5.40625 -10.328125 C 5.445312 -10.304688 5.488281 -10.285156 5.53125 -10.265625 L 5.640625 -10.375 C 5.703125 -10.425781 5.757812 -10.453125 5.8125 -10.453125 C 5.875 -10.453125 5.925781 -10.441406 5.96875 -10.421875 C 6.007812 -10.410156 6.039062 -10.40625 6.0625 -10.40625 C 6.09375 -10.40625 6.113281 -10.429688 6.125 -10.484375 C 6.144531 -10.578125 6.175781 -10.628906 6.21875 -10.640625 C 6.269531 -10.660156 6.382812 -10.671875 6.5625 -10.671875 C 6.664062 -10.671875 6.820312 -10.640625 7.03125 -10.578125 C 7.25 -10.515625 7.488281 -10.40625 7.75 -10.25 C 8.007812 -10.101562 8.269531 -9.90625 8.53125 -9.65625 C 8.800781 -9.414062 9.046875 -9.101562 9.265625 -8.71875 C 9.492188 -8.34375 9.675781 -7.890625 9.8125 -7.359375 C 9.957031 -6.835938 10.03125 -6.226562 10.03125 -5.53125 Z M 5.28125 -9.375 C 4.976562 -9.195312 4.675781 -8.945312 4.375 -8.625 C 4.082031 -8.3125 3.816406 -7.945312 3.578125 -7.53125 C 3.335938 -7.125 3.140625 -6.664062 2.984375 -6.15625 C 2.835938 -5.65625 2.765625 -5.125 2.765625 -4.5625 C 2.765625 -3.957031 2.816406 -3.410156 2.921875 -2.921875 C 3.035156 -2.429688 3.195312 -2.015625 3.40625 -1.671875 C 3.625 -1.328125 3.878906 -1.0625 4.171875 -0.875 C 4.472656 -0.6875 4.816406 -0.59375 5.203125 -0.59375 C 5.546875 -0.59375 5.882812 -0.6875 6.21875 -0.875 C 6.5625 -1.070312 6.863281 -1.363281 7.125 -1.75 C 7.382812 -2.132812 7.59375 -2.609375 7.75 -3.171875 C 7.914062 -3.742188 8 -4.40625 8 -5.15625 C 8 -5.914062 7.898438 -6.550781 7.703125 -7.0625 C 7.503906 -7.582031 7.28125 -8.003906 7.03125 -8.328125 C 6.78125 -8.648438 6.539062 -8.878906 6.3125 -9.015625 C 6.082031 -9.148438 5.941406 -9.21875 5.890625 -9.21875 C 5.765625 -9.21875 5.671875 -9.21875 5.609375 -9.21875 C 5.546875 -9.21875 5.4375 -9.269531 5.28125 -9.375 Z M 5.28125 -9.375" transform="translate(124.508 41.944)"/></g></g></g><g fill="#FFF"><g><g><path d="M 7.390625 -10.828125 C 7.816406 -10.765625 8.265625 -10.675781 8.734375 -10.5625 C 9.210938 -10.445312 9.679688 -10.300781 10.140625 -10.125 C 10.597656 -9.945312 11.035156 -9.726562 11.453125 -9.46875 C 11.867188 -9.207031 12.234375 -8.90625 12.546875 -8.5625 C 12.859375 -8.226562 13.101562 -7.84375 13.28125 -7.40625 C 13.46875 -6.976562 13.5625 -6.5 13.5625 -5.96875 C 13.5625 -5.03125 13.273438 -4.117188 12.703125 -3.234375 C 12.140625 -2.359375 11.289062 -1.566406 10.15625 -0.859375 C 9.769531 -0.640625 9.363281 -0.441406 8.9375 -0.265625 C 8.507812 -0.0859375 8.066406 0.0546875 7.609375 0.171875 C 7.160156 0.285156 6.707031 0.367188 6.25 0.421875 C 5.800781 0.484375 5.359375 0.515625 4.921875 0.515625 C 4.484375 0.515625 4.0625 0.484375 3.65625 0.421875 C 3.25 0.367188 2.867188 0.285156 2.515625 0.171875 C 2.171875 0.0546875 1.863281 -0.0820312 1.59375 -0.25 C 1.320312 -0.414062 1.101562 -0.609375 0.9375 -0.828125 C 0.71875 -1.140625 0.554688 -1.4375 0.453125 -1.71875 C 0.347656 -2.007812 0.296875 -2.289062 0.296875 -2.5625 C 0.296875 -2.90625 0.363281 -3.226562 0.5 -3.53125 C 0.644531 -3.832031 0.832031 -4.117188 1.0625 -4.390625 C 1.289062 -4.660156 1.550781 -4.90625 1.84375 -5.125 C 2.132812 -5.34375 2.4375 -5.535156 2.75 -5.703125 C 3.0625 -5.867188 3.367188 -6.003906 3.671875 -6.109375 C 3.972656 -6.222656 4.242188 -6.304688 4.484375 -6.359375 C 4.671875 -6.410156 4.796875 -6.425781 4.859375 -6.40625 C 4.929688 -6.394531 4.960938 -6.367188 4.953125 -6.328125 C 4.953125 -6.296875 4.925781 -6.253906 4.875 -6.203125 C 4.820312 -6.160156 4.769531 -6.128906 4.71875 -6.109375 L 3.625 -5.515625 C 2.945312 -5.140625 2.453125 -4.734375 2.140625 -4.296875 C 1.835938 -3.867188 1.6875 -3.46875 1.6875 -3.09375 C 1.6875 -2.789062 1.765625 -2.539062 1.921875 -2.34375 C 2.085938 -2.144531 2.296875 -1.988281 2.546875 -1.875 C 2.796875 -1.769531 3.066406 -1.695312 3.359375 -1.65625 C 3.648438 -1.613281 3.925781 -1.59375 4.1875 -1.59375 C 4.738281 -1.59375 5.316406 -1.664062 5.921875 -1.8125 C 6.535156 -1.957031 7.128906 -2.15625 7.703125 -2.40625 C 8.273438 -2.664062 8.8125 -2.960938 9.3125 -3.296875 C 9.8125 -3.640625 10.242188 -4 10.609375 -4.375 C 10.972656 -4.757812 11.238281 -5.148438 11.40625 -5.546875 C 11.582031 -5.941406 11.625 -6.332031 11.53125 -6.71875 C 11.382812 -7.34375 11.125 -7.847656 10.75 -8.234375 C 10.382812 -8.628906 9.960938 -8.9375 9.484375 -9.15625 C 9.015625 -9.375 8.507812 -9.519531 7.96875 -9.59375 C 7.425781 -9.675781 6.910156 -9.71875 6.421875 -9.71875 C 5.847656 -9.71875 5.347656 -9.6875 4.921875 -9.625 C 4.503906 -9.570312 4.222656 -9.535156 4.078125 -9.515625 C 3.898438 -9.484375 3.769531 -9.492188 3.6875 -9.546875 C 3.601562 -9.597656 3.546875 -9.671875 3.515625 -9.765625 C 3.492188 -9.867188 3.476562 -9.984375 3.46875 -10.109375 C 3.46875 -10.234375 3.457031 -10.347656 3.4375 -10.453125 C 3.414062 -10.554688 3.382812 -10.625 3.34375 -10.65625 C 3.3125 -10.695312 3.289062 -10.726562 3.28125 -10.75 C 3.269531 -10.769531 3.28125 -10.789062 3.3125 -10.8125 C 3.351562 -10.84375 3.4375 -10.910156 3.5625 -11.015625 C 3.695312 -11.109375 3.945312 -11.207031 4.3125 -11.3125 C 4.6875 -11.425781 5.113281 -11.5625 5.59375 -11.71875 C 6.082031 -11.875 6.585938 -12.0625 7.109375 -12.28125 C 7.640625 -12.507812 8.117188 -12.785156 8.546875 -13.109375 C 8.898438 -13.367188 9.195312 -13.617188 9.4375 -13.859375 C 9.675781 -14.097656 9.863281 -14.316406 10 -14.515625 C 10.132812 -14.722656 10.226562 -14.914062 10.28125 -15.09375 C 10.34375 -15.269531 10.375 -15.425781 10.375 -15.5625 C 10.375 -15.71875 10.347656 -15.851562 10.296875 -15.96875 C 10.242188 -16.082031 10.179688 -16.179688 10.109375 -16.265625 C 10.046875 -16.347656 9.976562 -16.410156 9.90625 -16.453125 C 9.832031 -16.503906 9.769531 -16.539062 9.71875 -16.5625 C 9.457031 -16.613281 9.164062 -16.640625 8.84375 -16.640625 C 8.332031 -16.640625 7.789062 -16.570312 7.21875 -16.4375 C 6.65625 -16.300781 6.113281 -16.125 5.59375 -15.90625 C 5.082031 -15.6875 4.617188 -15.4375 4.203125 -15.15625 C 3.796875 -14.882812 3.5 -14.609375 3.3125 -14.328125 C 3.257812 -14.253906 3.269531 -14.207031 3.34375 -14.1875 C 3.425781 -14.175781 3.546875 -14.179688 3.703125 -14.203125 C 3.859375 -14.222656 4.035156 -14.257812 4.234375 -14.3125 C 4.441406 -14.363281 4.644531 -14.421875 4.84375 -14.484375 C 5.039062 -14.546875 5.226562 -14.601562 5.40625 -14.65625 C 5.582031 -14.707031 5.710938 -14.75 5.796875 -14.78125 C 5.867188 -14.800781 5.910156 -14.800781 5.921875 -14.78125 C 5.929688 -14.769531 5.925781 -14.738281 5.90625 -14.6875 C 5.882812 -14.644531 5.847656 -14.585938 5.796875 -14.515625 C 5.753906 -14.453125 5.710938 -14.390625 5.671875 -14.328125 C 5.628906 -14.242188 5.601562 -14.171875 5.59375 -14.109375 C 5.582031 -14.054688 5.535156 -13.992188 5.453125 -13.921875 C 5.335938 -13.828125 5.25 -13.726562 5.1875 -13.625 C 5.125 -13.53125 5.066406 -13.441406 5.015625 -13.359375 C 4.972656 -13.285156 4.9375 -13.21875 4.90625 -13.15625 C 4.875 -13.101562 4.835938 -13.070312 4.796875 -13.0625 C 4.679688 -13.007812 4.550781 -12.957031 4.40625 -12.90625 C 4.257812 -12.851562 4.101562 -12.800781 3.9375 -12.75 C 3.78125 -12.695312 3.613281 -12.65625 3.4375 -12.625 C 3.269531 -12.59375 3.109375 -12.578125 2.953125 -12.578125 C 2.703125 -12.578125 2.46875 -12.632812 2.25 -12.75 C 2.03125 -12.863281 1.851562 -13.078125 1.71875 -13.390625 C 1.570312 -13.722656 1.550781 -14.082031 1.65625 -14.46875 C 1.769531 -14.863281 1.992188 -15.253906 2.328125 -15.640625 C 2.671875 -16.035156 3.113281 -16.414062 3.65625 -16.78125 C 4.207031 -17.144531 4.851562 -17.472656 5.59375 -17.765625 C 6.101562 -17.960938 6.585938 -18.101562 7.046875 -18.1875 C 7.515625 -18.28125 7.941406 -18.328125 8.328125 -18.328125 C 8.671875 -18.328125 8.984375 -18.300781 9.265625 -18.25 C 9.554688 -18.195312 9.8125 -18.132812 10.03125 -18.0625 C 10.257812 -17.988281 10.453125 -17.90625 10.609375 -17.8125 C 10.773438 -17.726562 10.894531 -17.648438 10.96875 -17.578125 C 11.15625 -17.410156 11.304688 -17.242188 11.421875 -17.078125 C 11.535156 -16.910156 11.632812 -16.738281 11.71875 -16.5625 C 11.800781 -16.394531 11.875 -16.226562 11.9375 -16.0625 C 12.007812 -15.90625 12.085938 -15.753906 12.171875 -15.609375 C 12.347656 -15.328125 12.398438 -15.035156 12.328125 -14.734375 C 12.265625 -14.441406 12.113281 -14.144531 11.875 -13.84375 C 11.632812 -13.539062 11.332031 -13.25 10.96875 -12.96875 C 10.601562 -12.6875 10.210938 -12.414062 9.796875 -12.15625 C 9.378906 -11.894531 8.957031 -11.648438 8.53125 -11.421875 C 8.113281 -11.203125 7.734375 -11.003906 7.390625 -10.828125 Z M 7.390625 -10.828125" transform="translate(140.475 41.944)"/></g></g></g><g fill="#FE6B8B"><g><g><path d="M 5.421875 -8.953125 L 4.75 -8.984375 L 4.75 0.28125 L 1.1875 0.28125 L 1.1875 -19.9375 L 6.421875 -19.9375 C 6.773438 -19.9375 7.101562 -19.910156 7.40625 -19.859375 C 7.707031 -19.816406 7.984375 -19.742188 8.234375 -19.640625 C 8.484375 -19.535156 8.707031 -19.40625 8.90625 -19.25 C 9.007812 -19.164062 9.109375 -19.066406 9.203125 -18.953125 C 9.304688 -18.847656 9.394531 -18.734375 9.46875 -18.609375 C 9.550781 -18.492188 9.625 -18.367188 9.6875 -18.234375 C 9.757812 -18.097656 9.816406 -17.957031 9.859375 -17.8125 C 9.910156 -17.675781 9.957031 -17.53125 10 -17.375 C 10.082031 -16.976562 10.144531 -16.535156 10.1875 -16.046875 C 10.226562 -15.554688 10.25 -15.007812 10.25 -14.40625 C 10.25 -13.164062 10.113281 -12.222656 9.84375 -11.578125 C 9.644531 -11.085938 9.332031 -10.707031 8.90625 -10.4375 C 9.332031 -10.175781 9.648438 -9.738281 9.859375 -9.125 C 10.003906 -8.695312 10.109375 -8.066406 10.171875 -7.234375 C 10.242188 -6.398438 10.28125 -5.34375 10.28125 -4.0625 C 10.28125 -3.476562 10.28125 -2.941406 10.28125 -2.453125 C 10.289062 -1.960938 10.300781 -1.554688 10.3125 -1.234375 C 10.320312 -0.921875 10.332031 -0.664062 10.34375 -0.46875 C 10.351562 -0.269531 10.359375 -0.144531 10.359375 -0.09375 L 10.515625 0.28125 L 6.953125 0.28125 L 6.875 0.125 C 6.800781 -0.0078125 6.753906 -0.445312 6.734375 -1.1875 C 6.722656 -1.9375 6.71875 -3.300781 6.71875 -5.28125 C 6.71875 -6.039062 6.71875 -6.628906 6.71875 -7.046875 C 6.71875 -7.453125 6.691406 -7.789062 6.640625 -8.0625 C 6.597656 -8.332031 6.539062 -8.519531 6.46875 -8.625 C 6.3125 -8.832031 5.960938 -8.941406 5.421875 -8.953125 Z M 4.765625 -11.890625 L 5.671875 -11.890625 C 5.742188 -11.890625 5.804688 -11.890625 5.859375 -11.890625 C 5.921875 -11.898438 5.972656 -11.90625 6.015625 -11.90625 C 6.066406 -11.914062 6.109375 -11.929688 6.140625 -11.953125 C 6.179688 -11.972656 6.210938 -11.988281 6.234375 -12 C 6.265625 -12.019531 6.296875 -12.039062 6.328125 -12.0625 C 6.460938 -12.1875 6.5625 -12.425781 6.625 -12.78125 C 6.65625 -12.976562 6.675781 -13.234375 6.6875 -13.546875 C 6.707031 -13.867188 6.71875 -14.238281 6.71875 -14.65625 L 6.71875 -14.78125 C 6.71875 -15.800781 6.640625 -16.453125 6.484375 -16.734375 C 6.359375 -16.960938 6.03125 -17.078125 5.5 -17.078125 L 4.765625 -17.078125 Z M 4.765625 -11.890625" transform="translate(28.154 69.679)"/></g></g></g><g fill="#FE6B8B"><g><g><path d="M 1.1875 0 L 1.1875 -19.9375 L 8.34375 -19.9375 L 8.34375 -16.796875 L 4.75 -16.796875 L 4.75 -11.640625 L 8.171875 -11.640625 L 8.171875 -8.5625 L 4.75 -8.5625 L 4.75 -2.859375 L 8.484375 -2.859375 L 8.484375 0.28125 L 1.1875 0.28125 Z M 1.1875 0" transform="translate(39.429 69.679)"/></g></g></g><g fill="#FE6B8B"><g><g><path d="M 1.1875 0 L 1.1875 -19.9375 L 4.015625 -19.9375 L 4.09375 -19.75 L 7.625 -9.6875 L 7.5 -13.21875 L 7.5 -19.9375 L 10.75 -19.9375 L 10.75 0.28125 L 8.140625 0.28125 L 8.078125 0.09375 L 4.40625 -10.40625 L 4.515625 -7.046875 L 4.515625 0.28125 L 1.1875 0.28125 Z M 1.1875 0" transform="translate(48.538 69.679)"/></g></g></g><g fill="#FE6B8B"><g><g><path d="M 6.421875 -6.1875 L 5.421875 -13.75 L 4.484375 -6.1875 Z M 0.296875 -0.046875 L 3.109375 -19.703125 L 3.140625 -19.9375 L 7.578125 -19.9375 L 7.625 -19.703125 L 10.59375 -0.046875 L 10.640625 0.28125 L 7.28125 0.28125 L 7.25 0.03125 L 6.8125 -3.234375 L 4.125 -3.234375 L 3.734375 0.03125 L 3.703125 0.28125 L 0.25 0.28125 Z M 0.296875 -0.046875" transform="translate(60.472 69.679)"/></g></g></g><g fill="#FE6B8B"><g><g><path d="M 0.796875 -5.53125 L 0.796875 -7.5625 L 4.203125 -7.5625 L 4.203125 -5.3125 C 4.203125 -4.957031 4.210938 -4.632812 4.234375 -4.34375 C 4.253906 -4.050781 4.28125 -3.800781 4.3125 -3.59375 C 4.351562 -3.394531 4.398438 -3.234375 4.453125 -3.109375 C 4.523438 -2.929688 4.625 -2.800781 4.75 -2.71875 C 4.875 -2.644531 5.039062 -2.609375 5.25 -2.609375 C 5.644531 -2.609375 5.898438 -2.738281 6.015625 -3 C 6.085938 -3.15625 6.144531 -3.375 6.1875 -3.65625 C 6.226562 -3.9375 6.25 -4.273438 6.25 -4.671875 C 6.25 -5.453125 6.109375 -6.132812 5.828125 -6.71875 C 5.691406 -7.007812 5.503906 -7.304688 5.265625 -7.609375 C 5.035156 -7.921875 4.765625 -8.238281 4.453125 -8.5625 L 3 -10.0625 C 2.300781 -10.78125 1.757812 -11.535156 1.375 -12.328125 C 0.976562 -13.128906 0.78125 -14.050781 0.78125 -15.09375 C 0.78125 -16.78125 1.113281 -18.046875 1.78125 -18.890625 C 2.457031 -19.742188 3.609375 -20.171875 5.234375 -20.171875 C 6.023438 -20.171875 6.703125 -20.046875 7.265625 -19.796875 C 7.835938 -19.546875 8.269531 -19.164062 8.5625 -18.65625 C 8.851562 -18.164062 9.066406 -17.570312 9.203125 -16.875 C 9.347656 -16.1875 9.421875 -15.390625 9.421875 -14.484375 L 9.421875 -12.984375 L 6.09375 -12.984375 L 6.09375 -14.671875 C 6.09375 -14.984375 6.082031 -15.265625 6.0625 -15.515625 C 6.050781 -15.773438 6.023438 -15.992188 5.984375 -16.171875 C 5.953125 -16.347656 5.914062 -16.5 5.875 -16.625 C 5.8125 -16.78125 5.726562 -16.890625 5.625 -16.953125 C 5.519531 -17.023438 5.375 -17.0625 5.1875 -17.0625 C 4.820312 -17.0625 4.5625 -16.945312 4.40625 -16.71875 C 4.238281 -16.457031 4.15625 -16.039062 4.15625 -15.46875 C 4.15625 -15.175781 4.175781 -14.914062 4.21875 -14.6875 C 4.269531 -14.46875 4.34375 -14.273438 4.4375 -14.109375 C 4.625 -13.753906 4.984375 -13.296875 5.515625 -12.734375 L 7.140625 -10.984375 C 7.554688 -10.535156 7.921875 -10.082031 8.234375 -9.625 C 8.554688 -9.164062 8.820312 -8.703125 9.03125 -8.234375 C 9.457031 -7.296875 9.671875 -6.273438 9.671875 -5.171875 C 9.671875 -4.222656 9.585938 -3.394531 9.421875 -2.6875 C 9.265625 -1.988281 9.019531 -1.40625 8.6875 -0.9375 C 8.351562 -0.457031 7.894531 -0.0976562 7.3125 0.140625 C 6.726562 0.378906 6.035156 0.5 5.234375 0.5 C 3.578125 0.5 2.414062 -0.03125 1.75 -1.09375 C 1.113281 -2.125 0.796875 -3.601562 0.796875 -5.53125 Z M 0.796875 -5.53125" transform="translate(71.368 69.679)"/></g></g></g><g fill="#FE6B8B"><g><g><path d="M 8.984375 -0.984375 C 8.253906 0.00390625 7.113281 0.5 5.5625 0.5 C 4.007812 0.5 2.847656 -0.0234375 2.078125 -1.078125 C 1.328125 -2.097656 0.953125 -3.546875 0.953125 -5.421875 L 0.953125 -14 C 0.953125 -17.039062 1.769531 -18.953125 3.40625 -19.734375 C 4.007812 -20.015625 4.734375 -20.15625 5.578125 -20.15625 C 7.046875 -20.15625 8.148438 -19.6875 8.890625 -18.75 C 9.640625 -17.8125 10.015625 -16.445312 10.015625 -14.65625 L 10.015625 -11.671875 L 6.5625 -11.671875 L 6.5625 -14.46875 C 6.5625 -14.789062 6.550781 -15.085938 6.53125 -15.359375 C 6.507812 -15.628906 6.476562 -15.859375 6.4375 -16.046875 C 6.40625 -16.242188 6.367188 -16.40625 6.328125 -16.53125 C 6.253906 -16.695312 6.160156 -16.816406 6.046875 -16.890625 C 5.929688 -16.972656 5.773438 -17.015625 5.578125 -17.015625 C 5.441406 -17.015625 5.320312 -16.992188 5.21875 -16.953125 C 5.125 -16.921875 5.039062 -16.863281 4.96875 -16.78125 C 4.90625 -16.707031 4.847656 -16.609375 4.796875 -16.484375 C 4.617188 -16.054688 4.53125 -15.382812 4.53125 -14.46875 L 4.53125 -5.296875 C 4.53125 -4.273438 4.613281 -3.550781 4.78125 -3.125 C 4.851562 -2.945312 4.945312 -2.816406 5.0625 -2.734375 C 5.1875 -2.660156 5.347656 -2.625 5.546875 -2.625 C 5.671875 -2.625 5.78125 -2.640625 5.875 -2.671875 C 5.96875 -2.703125 6.046875 -2.753906 6.109375 -2.828125 C 6.179688 -2.910156 6.242188 -3.015625 6.296875 -3.140625 C 6.378906 -3.347656 6.441406 -3.632812 6.484375 -4 C 6.535156 -4.375 6.5625 -4.816406 6.5625 -5.328125 L 6.5625 -8.421875 L 10.046875 -8.421875 L 10.046875 -5.359375 C 10.046875 -3.398438 9.691406 -1.941406 8.984375 -0.984375 Z M 8.984375 -0.984375" transform="translate(81.47 69.679)"/></g></g></g><g fill="#FE6B8B"><g><g><path d="M 1.1875 0 L 1.1875 -19.9375 L 8.34375 -19.9375 L 8.34375 -16.796875 L 4.75 -16.796875 L 4.75 -11.640625 L 8.171875 -11.640625 L 8.171875 -8.5625 L 4.75 -8.5625 L 4.75 -2.859375 L 8.484375 -2.859375 L 8.484375 0.28125 L 1.1875 0.28125 Z M 1.1875 0" transform="translate(92.199 69.679)"/></g></g></g><g fill="#FE6B8B"><g><g><path d="M 5.421875 -8.953125 L 4.75 -8.984375 L 4.75 0.28125 L 1.1875 0.28125 L 1.1875 -19.9375 L 6.421875 -19.9375 C 6.773438 -19.9375 7.101562 -19.910156 7.40625 -19.859375 C 7.707031 -19.816406 7.984375 -19.742188 8.234375 -19.640625 C 8.484375 -19.535156 8.707031 -19.40625 8.90625 -19.25 C 9.007812 -19.164062 9.109375 -19.066406 9.203125 -18.953125 C 9.304688 -18.847656 9.394531 -18.734375 9.46875 -18.609375 C 9.550781 -18.492188 9.625 -18.367188 9.6875 -18.234375 C 9.757812 -18.097656 9.816406 -17.957031 9.859375 -17.8125 C 9.910156 -17.675781 9.957031 -17.53125 10 -17.375 C 10.082031 -16.976562 10.144531 -16.535156 10.1875 -16.046875 C 10.226562 -15.554688 10.25 -15.007812 10.25 -14.40625 C 10.25 -13.164062 10.113281 -12.222656 9.84375 -11.578125 C 9.644531 -11.085938 9.332031 -10.707031 8.90625 -10.4375 C 9.332031 -10.175781 9.648438 -9.738281 9.859375 -9.125 C 10.003906 -8.695312 10.109375 -8.066406 10.171875 -7.234375 C 10.242188 -6.398438 10.28125 -5.34375 10.28125 -4.0625 C 10.28125 -3.476562 10.28125 -2.941406 10.28125 -2.453125 C 10.289062 -1.960938 10.300781 -1.554688 10.3125 -1.234375 C 10.320312 -0.921875 10.332031 -0.664062 10.34375 -0.46875 C 10.351562 -0.269531 10.359375 -0.144531 10.359375 -0.09375 L 10.515625 0.28125 L 6.953125 0.28125 L 6.875 0.125 C 6.800781 -0.0078125 6.753906 -0.445312 6.734375 -1.1875 C 6.722656 -1.9375 6.71875 -3.300781 6.71875 -5.28125 C 6.71875 -6.039062 6.71875 -6.628906 6.71875 -7.046875 C 6.71875 -7.453125 6.691406 -7.789062 6.640625 -8.0625 C 6.597656 -8.332031 6.539062 -8.519531 6.46875 -8.625 C 6.3125 -8.832031 5.960938 -8.941406 5.421875 -8.953125 Z M 4.765625 -11.890625 L 5.671875 -11.890625 C 5.742188 -11.890625 5.804688 -11.890625 5.859375 -11.890625 C 5.921875 -11.898438 5.972656 -11.90625 6.015625 -11.90625 C 6.066406 -11.914062 6.109375 -11.929688 6.140625 -11.953125 C 6.179688 -11.972656 6.210938 -11.988281 6.234375 -12 C 6.265625 -12.019531 6.296875 -12.039062 6.328125 -12.0625 C 6.460938 -12.1875 6.5625 -12.425781 6.625 -12.78125 C 6.65625 -12.976562 6.675781 -13.234375 6.6875 -13.546875 C 6.707031 -13.867188 6.71875 -14.238281 6.71875 -14.65625 L 6.71875 -14.78125 C 6.71875 -15.800781 6.640625 -16.453125 6.484375 -16.734375 C 6.359375 -16.960938 6.03125 -17.078125 5.5 -17.078125 L 4.765625 -17.078125 Z M 4.765625 -11.890625" transform="translate(101.308 69.679)"/></g></g></g><g fill="#FE6B8B"><g><g><path d="M 1.1875 0 L 1.1875 -19.9375 L 8.34375 -19.9375 L 8.34375 -16.796875 L 4.75 -16.796875 L 4.75 -11.640625 L 8.171875 -11.640625 L 8.171875 -8.5625 L 4.75 -8.5625 L 4.75 -2.859375 L 8.484375 -2.859375 L 8.484375 0.28125 L 1.1875 0.28125 Z M 1.1875 0" transform="translate(116.68 69.679)"/></g></g></g><g fill="#FE6B8B"><g><g><path d="M 1.1875 0 L 1.1875 -19.9375 L 5.421875 -19.9375 L 5.46875 -19.71875 L 7.96875 -6.796875 L 10.328125 -19.703125 L 10.375 -19.9375 L 14.625 -19.9375 L 14.625 0.28125 L 11.40625 0.28125 L 11.40625 -7.328125 L 11.453125 -10.796875 L 9.421875 -0.03125 L 9.375 0.1875 L 6.53125 0.1875 L 6.484375 -0.03125 L 4.34375 -10.9375 L 4.40625 -7.328125 L 4.40625 0.28125 L 1.1875 0.28125 Z M 1.1875 0" transform="translate(125.79 69.679)"/></g></g></g><g fill="#FE6B8B"><g><g><path d="M 8.015625 -0.921875 C 7.640625 -0.453125 7.179688 -0.0976562 6.640625 0.140625 C 6.109375 0.378906 5.503906 0.5 4.828125 0.5 C 3.453125 0.5 2.382812 0.078125 1.625 -0.765625 C 0.863281 -1.585938 0.484375 -2.78125 0.484375 -4.34375 L 0.484375 -8.125 L 3.9375 -8.125 L 3.9375 -4.484375 C 3.9375 -3.984375 3.972656 -3.582031 4.046875 -3.28125 C 4.128906 -2.988281 4.222656 -2.804688 4.328125 -2.734375 C 4.441406 -2.660156 4.585938 -2.625 4.765625 -2.625 C 4.941406 -2.625 5.078125 -2.648438 5.171875 -2.703125 C 5.265625 -2.765625 5.335938 -2.863281 5.390625 -3 C 5.523438 -3.34375 5.59375 -3.898438 5.59375 -4.671875 L 5.59375 -19.9375 L 9.140625 -19.9375 L 9.140625 -4.8125 C 9.140625 -4.394531 9.117188 -4.003906 9.078125 -3.640625 C 9.035156 -3.273438 8.96875 -2.925781 8.875 -2.59375 C 8.78125 -2.269531 8.660156 -1.96875 8.515625 -1.6875 C 8.378906 -1.40625 8.210938 -1.148438 8.015625 -0.921875 Z M 8.015625 -0.921875" transform="translate(145.716 69.679)"/></g></g></g><g fill="#FE6B8B"><g><g><path d="M 1.1875 0 L 1.1875 -19.9375 L 8.34375 -19.9375 L 8.34375 -16.796875 L 4.75 -16.796875 L 4.75 -11.640625 L 8.171875 -11.640625 L 8.171875 -8.5625 L 4.75 -8.5625 L 4.75 -2.859375 L 8.484375 -2.859375 L 8.484375 0.28125 L 1.1875 0.28125 Z M 1.1875 0" transform="translate(156.009 69.679)"/></g></g></g><g fill="#FE6B8B"><g><g><path d="M 0.796875 -5.53125 L 0.796875 -7.5625 L 4.203125 -7.5625 L 4.203125 -5.3125 C 4.203125 -4.957031 4.210938 -4.632812 4.234375 -4.34375 C 4.253906 -4.050781 4.28125 -3.800781 4.3125 -3.59375 C 4.351562 -3.394531 4.398438 -3.234375 4.453125 -3.109375 C 4.523438 -2.929688 4.625 -2.800781 4.75 -2.71875 C 4.875 -2.644531 5.039062 -2.609375 5.25 -2.609375 C 5.644531 -2.609375 5.898438 -2.738281 6.015625 -3 C 6.085938 -3.15625 6.144531 -3.375 6.1875 -3.65625 C 6.226562 -3.9375 6.25 -4.273438 6.25 -4.671875 C 6.25 -5.453125 6.109375 -6.132812 5.828125 -6.71875 C 5.691406 -7.007812 5.503906 -7.304688 5.265625 -7.609375 C 5.035156 -7.921875 4.765625 -8.238281 4.453125 -8.5625 L 3 -10.0625 C 2.300781 -10.78125 1.757812 -11.535156 1.375 -12.328125 C 0.976562 -13.128906 0.78125 -14.050781 0.78125 -15.09375 C 0.78125 -16.78125 1.113281 -18.046875 1.78125 -18.890625 C 2.457031 -19.742188 3.609375 -20.171875 5.234375 -20.171875 C 6.023438 -20.171875 6.703125 -20.046875 7.265625 -19.796875 C 7.835938 -19.546875 8.269531 -19.164062 8.5625 -18.65625 C 8.851562 -18.164062 9.066406 -17.570312 9.203125 -16.875 C 9.347656 -16.1875 9.421875 -15.390625 9.421875 -14.484375 L 9.421875 -12.984375 L 6.09375 -12.984375 L 6.09375 -14.671875 C 6.09375 -14.984375 6.082031 -15.265625 6.0625 -15.515625 C 6.050781 -15.773438 6.023438 -15.992188 5.984375 -16.171875 C 5.953125 -16.347656 5.914062 -16.5 5.875 -16.625 C 5.8125 -16.78125 5.726562 -16.890625 5.625 -16.953125 C 5.519531 -17.023438 5.375 -17.0625 5.1875 -17.0625 C 4.820312 -17.0625 4.5625 -16.945312 4.40625 -16.71875 C 4.238281 -16.457031 4.15625 -16.039062 4.15625 -15.46875 C 4.15625 -15.175781 4.175781 -14.914062 4.21875 -14.6875 C 4.269531 -14.46875 4.34375 -14.273438 4.4375 -14.109375 C 4.625 -13.753906 4.984375 -13.296875 5.515625 -12.734375 L 7.140625 -10.984375 C 7.554688 -10.535156 7.921875 -10.082031 8.234375 -9.625 C 8.554688 -9.164062 8.820312 -8.703125 9.03125 -8.234375 C 9.457031 -7.296875 9.671875 -6.273438 9.671875 -5.171875 C 9.671875 -4.222656 9.585938 -3.394531 9.421875 -2.6875 C 9.265625 -1.988281 9.019531 -1.40625 8.6875 -0.9375 C 8.351562 -0.457031 7.894531 -0.0976562 7.3125 0.140625 C 6.726562 0.378906 6.035156 0.5 5.234375 0.5 C 3.578125 0.5 2.414062 -0.03125 1.75 -1.09375 C 1.113281 -2.125 0.796875 -3.601562 0.796875 -5.53125 Z M 0.796875 -5.53125" transform="translate(165.118 69.679)"/></g></g></g><g fill="#FE6B8B"><g><g><path d="M 9.21875 -0.875 C 8.476562 0.0390625 7.304688 0.5 5.703125 0.5 C 4.097656 0.5 2.921875 0.0390625 2.171875 -0.875 C 1.441406 -1.789062 1.078125 -3.179688 1.078125 -5.046875 L 1.078125 -19.953125 L 4.640625 -19.953125 L 4.640625 -5.109375 C 4.640625 -4.109375 4.679688 -3.515625 4.765625 -3.328125 C 4.804688 -3.222656 4.851562 -3.125 4.90625 -3.03125 C 4.957031 -2.945312 5.015625 -2.863281 5.078125 -2.78125 C 5.148438 -2.664062 5.351562 -2.609375 5.6875 -2.609375 C 6.03125 -2.609375 6.269531 -2.695312 6.40625 -2.875 C 6.5625 -3.082031 6.660156 -3.351562 6.703125 -3.6875 C 6.710938 -3.875 6.722656 -4.082031 6.734375 -4.3125 C 6.742188 -4.550781 6.75 -4.816406 6.75 -5.109375 L 6.75 -19.953125 L 10.3125 -19.953125 L 10.3125 -5.046875 C 10.3125 -3.171875 9.945312 -1.78125 9.21875 -0.875 Z M 9.21875 -0.875" transform="translate(175.221 69.679)"/></g></g></g><g fill="#FE6B8B"><g><g><path d="M 0.796875 -5.53125 L 0.796875 -7.5625 L 4.203125 -7.5625 L 4.203125 -5.3125 C 4.203125 -4.957031 4.210938 -4.632812 4.234375 -4.34375 C 4.253906 -4.050781 4.28125 -3.800781 4.3125 -3.59375 C 4.351562 -3.394531 4.398438 -3.234375 4.453125 -3.109375 C 4.523438 -2.929688 4.625 -2.800781 4.75 -2.71875 C 4.875 -2.644531 5.039062 -2.609375 5.25 -2.609375 C 5.644531 -2.609375 5.898438 -2.738281 6.015625 -3 C 6.085938 -3.15625 6.144531 -3.375 6.1875 -3.65625 C 6.226562 -3.9375 6.25 -4.273438 6.25 -4.671875 C 6.25 -5.453125 6.109375 -6.132812 5.828125 -6.71875 C 5.691406 -7.007812 5.503906 -7.304688 5.265625 -7.609375 C 5.035156 -7.921875 4.765625 -8.238281 4.453125 -8.5625 L 3 -10.0625 C 2.300781 -10.78125 1.757812 -11.535156 1.375 -12.328125 C 0.976562 -13.128906 0.78125 -14.050781 0.78125 -15.09375 C 0.78125 -16.78125 1.113281 -18.046875 1.78125 -18.890625 C 2.457031 -19.742188 3.609375 -20.171875 5.234375 -20.171875 C 6.023438 -20.171875 6.703125 -20.046875 7.265625 -19.796875 C 7.835938 -19.546875 8.269531 -19.164062 8.5625 -18.65625 C 8.851562 -18.164062 9.066406 -17.570312 9.203125 -16.875 C 9.347656 -16.1875 9.421875 -15.390625 9.421875 -14.484375 L 9.421875 -12.984375 L 6.09375 -12.984375 L 6.09375 -14.671875 C 6.09375 -14.984375 6.082031 -15.265625 6.0625 -15.515625 C 6.050781 -15.773438 6.023438 -15.992188 5.984375 -16.171875 C 5.953125 -16.347656 5.914062 -16.5 5.875 -16.625 C 5.8125 -16.78125 5.726562 -16.890625 5.625 -16.953125 C 5.519531 -17.023438 5.375 -17.0625 5.1875 -17.0625 C 4.820312 -17.0625 4.5625 -16.945312 4.40625 -16.71875 C 4.238281 -16.457031 4.15625 -16.039062 4.15625 -15.46875 C 4.15625 -15.175781 4.175781 -14.914062 4.21875 -14.6875 C 4.269531 -14.46875 4.34375 -14.273438 4.4375 -14.109375 C 4.625 -13.753906 4.984375 -13.296875 5.515625 -12.734375 L 7.140625 -10.984375 C 7.554688 -10.535156 7.921875 -10.082031 8.234375 -9.625 C 8.554688 -9.164062 8.820312 -8.703125 9.03125 -8.234375 C 9.457031 -7.296875 9.671875 -6.273438 9.671875 -5.171875 C 9.671875 -4.222656 9.585938 -3.394531 9.421875 -2.6875 C 9.265625 -1.988281 9.019531 -1.40625 8.6875 -0.9375 C 8.351562 -0.457031 7.894531 -0.0976562 7.3125 0.140625 C 6.726562 0.378906 6.035156 0.5 5.234375 0.5 C 3.578125 0.5 2.414062 -0.03125 1.75 -1.09375 C 1.113281 -2.125 0.796875 -3.601562 0.796875 -5.53125 Z M 0.796875 -5.53125" transform="translate(186.608 69.679)"/></g></g></g></svg>