<svg xmlns="http://www.w3.org/2000/svg" width="224.88" viewBox="0 0 224.88 90" height="90" version="1.0"><defs><clipPath id="a"><path d="M 0 0.0234375 L 224.761719 0.0234375 L 224.761719 89.976562 L 0 89.976562 Z M 0 0.0234375"/></clipPath></defs><g clip-path="url(#a)"><path fill="#FFF" d="M 0 0.0234375 L 224.878906 0.0234375 L 224.878906 97.472656 L 0 97.472656 Z M 0 0.0234375"/><path fill="#FFF" d="M 0 0.0234375 L 224.878906 0.0234375 L 224.878906 89.976562 L 0 89.976562 Z M 0 0.0234375"/><path d="M 0 0.0234375 L 224.878906 0.0234375 L 224.878906 89.976562 L 0 89.976562 Z M 0 0.0234375"/></g><g fill="#FFF"><g><g><path d="M 10.859375 -18.359375 C 11.171875 -18.359375 11.519531 -18.332031 11.90625 -18.28125 C 12.300781 -18.226562 12.6875 -18.140625 13.0625 -18.015625 C 13.445312 -17.890625 13.800781 -17.726562 14.125 -17.53125 C 14.445312 -17.34375 14.695312 -17.097656 14.875 -16.796875 C 15.09375 -16.640625 15.285156 -16.40625 15.453125 -16.09375 C 15.609375 -15.769531 15.6875 -15.457031 15.6875 -15.15625 C 15.6875 -14.820312 15.628906 -14.515625 15.515625 -14.234375 C 15.398438 -13.953125 15.25 -13.695312 15.0625 -13.46875 C 14.882812 -13.25 14.6875 -13.050781 14.46875 -12.875 C 14.25 -12.695312 14.039062 -12.546875 13.84375 -12.421875 C 13.644531 -12.304688 13.46875 -12.21875 13.3125 -12.15625 C 13.164062 -12.101562 13.070312 -12.078125 13.03125 -12.078125 C 12.988281 -12.078125 12.914062 -12.097656 12.8125 -12.140625 C 12.707031 -12.179688 12.609375 -12.234375 12.515625 -12.296875 C 12.398438 -12.359375 12.28125 -12.429688 12.15625 -12.515625 C 12.15625 -12.523438 12.238281 -12.578125 12.40625 -12.671875 C 12.570312 -12.773438 12.753906 -12.925781 12.953125 -13.125 C 13.160156 -13.320312 13.347656 -13.582031 13.515625 -13.90625 C 13.679688 -14.238281 13.765625 -14.644531 13.765625 -15.125 C 13.679688 -15.28125 13.570312 -15.429688 13.4375 -15.578125 C 13.300781 -15.722656 13.125 -15.847656 12.90625 -15.953125 C 12.6875 -16.066406 12.421875 -16.160156 12.109375 -16.234375 C 11.796875 -16.304688 11.425781 -16.34375 11 -16.34375 C 10.851562 -16.34375 10.625 -16.316406 10.3125 -16.265625 C 10.007812 -16.222656 9.65625 -16.144531 9.25 -16.03125 C 8.84375 -15.914062 8.40625 -15.757812 7.9375 -15.5625 C 7.476562 -15.375 7.015625 -15.117188 6.546875 -14.796875 C 6.078125 -14.472656 5.625 -14.085938 5.1875 -13.640625 C 4.757812 -13.191406 4.378906 -12.660156 4.046875 -12.046875 C 3.710938 -11.441406 3.445312 -10.742188 3.25 -9.953125 C 3.050781 -9.171875 2.953125 -8.28125 2.953125 -7.28125 C 2.953125 -6.738281 2.992188 -6.242188 3.078125 -5.796875 C 3.171875 -5.359375 3.285156 -4.960938 3.421875 -4.609375 C 3.566406 -4.253906 3.734375 -3.9375 3.921875 -3.65625 C 4.117188 -3.382812 4.328125 -3.140625 4.546875 -2.921875 C 4.671875 -2.859375 4.816406 -2.769531 4.984375 -2.65625 C 5.148438 -2.550781 5.375 -2.445312 5.65625 -2.34375 C 5.945312 -2.238281 6.3125 -2.148438 6.75 -2.078125 C 7.195312 -2.003906 7.769531 -1.96875 8.46875 -1.96875 C 9.0625 -1.96875 9.625 -2.035156 10.15625 -2.171875 C 10.695312 -2.316406 11.203125 -2.5 11.671875 -2.71875 C 12.140625 -2.9375 12.570312 -3.175781 12.96875 -3.4375 C 13.363281 -3.707031 13.710938 -3.972656 14.015625 -4.234375 C 14.316406 -4.492188 14.566406 -4.726562 14.765625 -4.9375 C 14.960938 -5.15625 15.101562 -5.320312 15.1875 -5.4375 C 15.351562 -5.664062 15.46875 -5.8125 15.53125 -5.875 C 15.601562 -5.9375 15.664062 -5.96875 15.71875 -5.96875 C 15.757812 -5.96875 15.800781 -5.960938 15.84375 -5.953125 C 15.882812 -5.941406 15.925781 -5.9375 15.96875 -5.9375 C 16.050781 -5.9375 16.097656 -5.976562 16.109375 -6.0625 C 16.128906 -6.144531 16.15625 -6.1875 16.1875 -6.1875 C 16.195312 -6.1875 16.207031 -6.148438 16.21875 -6.078125 C 16.226562 -6.003906 16.234375 -5.921875 16.234375 -5.828125 C 16.234375 -5.773438 16.226562 -5.722656 16.21875 -5.671875 C 16.207031 -5.628906 16.203125 -5.582031 16.203125 -5.53125 C 16.191406 -5.476562 16.15625 -5.300781 16.09375 -5 C 16.03125 -4.695312 15.90625 -4.335938 15.71875 -3.921875 C 15.539062 -3.515625 15.289062 -3.070312 14.96875 -2.59375 C 14.644531 -2.125 14.226562 -1.6875 13.71875 -1.28125 C 13.207031 -0.882812 12.582031 -0.550781 11.84375 -0.28125 C 11.113281 -0.0195312 10.25 0.109375 9.25 0.109375 C 8.644531 0.109375 8.085938 0.0546875 7.578125 -0.046875 C 7.066406 -0.160156 6.609375 -0.296875 6.203125 -0.453125 C 5.796875 -0.617188 5.429688 -0.800781 5.109375 -1 C 4.796875 -1.195312 4.535156 -1.382812 4.328125 -1.5625 C 3.878906 -1.8125 3.445312 -2.132812 3.03125 -2.53125 C 2.625 -2.925781 2.265625 -3.398438 1.953125 -3.953125 C 1.640625 -4.503906 1.390625 -5.144531 1.203125 -5.875 C 1.015625 -6.601562 0.921875 -7.429688 0.921875 -8.359375 C 0.921875 -9.285156 1.039062 -10.175781 1.28125 -11.03125 C 1.53125 -11.894531 1.875 -12.695312 2.3125 -13.4375 C 2.757812 -14.175781 3.285156 -14.847656 3.890625 -15.453125 C 4.503906 -16.054688 5.175781 -16.570312 5.90625 -17 C 6.644531 -17.4375 7.429688 -17.769531 8.265625 -18 C 9.109375 -18.238281 9.972656 -18.359375 10.859375 -18.359375 Z M 10.859375 -18.359375" transform="translate(70.448 41.944)"/></g></g></g><g fill="#FFF"><g><g><path d="M 10.03125 -5.53125 C 10.03125 -4.613281 9.894531 -3.785156 9.625 -3.046875 C 9.351562 -2.316406 8.988281 -1.691406 8.53125 -1.171875 C 8.070312 -0.660156 7.539062 -0.265625 6.9375 0.015625 C 6.332031 0.296875 5.695312 0.4375 5.03125 0.4375 C 4.75 0.4375 4.441406 0.398438 4.109375 0.328125 C 3.773438 0.265625 3.441406 0.160156 3.109375 0.015625 C 2.773438 -0.128906 2.453125 -0.320312 2.140625 -0.5625 C 1.828125 -0.8125 1.546875 -1.113281 1.296875 -1.46875 C 1.054688 -1.832031 0.863281 -2.253906 0.71875 -2.734375 C 0.570312 -3.222656 0.503906 -3.78125 0.515625 -4.40625 C 0.515625 -5.125 0.597656 -5.773438 0.765625 -6.359375 C 0.941406 -6.953125 1.164062 -7.484375 1.4375 -7.953125 C 1.71875 -8.421875 2.03125 -8.828125 2.375 -9.171875 C 2.726562 -9.515625 3.082031 -9.800781 3.4375 -10.03125 C 3.789062 -10.257812 4.128906 -10.429688 4.453125 -10.546875 C 4.773438 -10.660156 5.050781 -10.726562 5.28125 -10.75 C 5.40625 -10.757812 5.460938 -10.742188 5.453125 -10.703125 C 5.441406 -10.671875 5.410156 -10.632812 5.359375 -10.59375 C 5.304688 -10.550781 5.257812 -10.503906 5.21875 -10.453125 C 5.175781 -10.410156 5.191406 -10.382812 5.265625 -10.375 C 5.328125 -10.363281 5.375 -10.347656 5.40625 -10.328125 C 5.445312 -10.304688 5.488281 -10.285156 5.53125 -10.265625 L 5.640625 -10.375 C 5.703125 -10.425781 5.757812 -10.453125 5.8125 -10.453125 C 5.875 -10.453125 5.925781 -10.441406 5.96875 -10.421875 C 6.007812 -10.410156 6.039062 -10.40625 6.0625 -10.40625 C 6.09375 -10.40625 6.113281 -10.429688 6.125 -10.484375 C 6.144531 -10.578125 6.175781 -10.628906 6.21875 -10.640625 C 6.269531 -10.660156 6.382812 -10.671875 6.5625 -10.671875 C 6.664062 -10.671875 6.820312 -10.640625 7.03125 -10.578125 C 7.25 -10.515625 7.488281 -10.40625 7.75 -10.25 C 8.007812 -10.101562 8.269531 -9.90625 8.53125 -9.65625 C 8.800781 -9.414062 9.046875 -9.101562 9.265625 -8.71875 C 9.492188 -8.34375 9.675781 -7.890625 9.8125 -7.359375 C 9.957031 -6.835938 10.03125 -6.226562 10.03125 -5.53125 Z M 5.28125 -9.375 C 4.976562 -9.195312 4.675781 -8.945312 4.375 -8.625 C 4.082031 -8.3125 3.816406 -7.945312 3.578125 -7.53125 C 3.335938 -7.125 3.140625 -6.664062 2.984375 -6.15625 C 2.835938 -5.65625 2.765625 -5.125 2.765625 -4.5625 C 2.765625 -3.957031 2.816406 -3.410156 2.921875 -2.921875 C 3.035156 -2.429688 3.195312 -2.015625 3.40625 -1.671875 C 3.625 -1.328125 3.878906 -1.0625 4.171875 -0.875 C 4.472656 -0.6875 4.816406 -0.59375 5.203125 -0.59375 C 5.546875 -0.59375 5.882812 -0.6875 6.21875 -0.875 C 6.5625 -1.070312 6.863281 -1.363281 7.125 -1.75 C 7.382812 -2.132812 7.59375 -2.609375 7.75 -3.171875 C 7.914062 -3.742188 8 -4.40625 8 -5.15625 C 8 -5.914062 7.898438 -6.550781 7.703125 -7.0625 C 7.503906 -7.582031 7.28125 -8.003906 7.03125 -8.328125 C 6.78125 -8.648438 6.539062 -8.878906 6.3125 -9.015625 C 6.082031 -9.148438 5.941406 -9.21875 5.890625 -9.21875 C 5.765625 -9.21875 5.671875 -9.21875 5.609375 -9.21875 C 5.546875 -9.21875 5.4375 -9.269531 5.28125 -9.375 Z M 5.28125 -9.375" transform="translate(87.345 41.944)"/></g></g></g><g fill="#FFF"><g><g><path d="M 13.890625 -0.890625 C 13.921875 -0.816406 13.941406 -0.757812 13.953125 -0.71875 C 13.960938 -0.675781 13.96875 -0.632812 13.96875 -0.59375 C 13.96875 -0.507812 13.9375 -0.460938 13.875 -0.453125 C 13.8125 -0.441406 13.742188 -0.425781 13.671875 -0.40625 C 13.648438 -0.394531 13.628906 -0.351562 13.609375 -0.28125 C 13.597656 -0.207031 13.578125 -0.125 13.546875 -0.03125 C 13.515625 0.0507812 13.46875 0.125 13.40625 0.1875 C 13.34375 0.257812 13.253906 0.296875 13.140625 0.296875 C 12.765625 0.273438 12.472656 0.195312 12.265625 0.0625 C 12.054688 -0.0703125 11.898438 -0.257812 11.796875 -0.5 C 11.691406 -0.738281 11.625 -1.019531 11.59375 -1.34375 C 11.570312 -1.675781 11.5625 -2.039062 11.5625 -2.4375 C 11.5625 -2.914062 11.578125 -3.410156 11.609375 -3.921875 C 11.648438 -4.441406 11.695312 -4.945312 11.75 -5.4375 C 11.8125 -5.925781 11.859375 -6.382812 11.890625 -6.8125 C 11.929688 -7.25 11.953125 -7.617188 11.953125 -7.921875 C 11.953125 -8.367188 11.914062 -8.710938 11.84375 -8.953125 C 11.769531 -9.203125 11.664062 -9.328125 11.53125 -9.328125 C 11.46875 -9.328125 11.3125 -9.144531 11.0625 -8.78125 C 10.8125 -8.414062 10.507812 -7.863281 10.15625 -7.125 C 9.800781 -6.394531 9.421875 -5.472656 9.015625 -4.359375 C 8.609375 -3.253906 8.21875 -1.953125 7.84375 -0.453125 C 7.832031 -0.398438 7.828125 -0.335938 7.828125 -0.265625 C 7.828125 -0.191406 7.820312 -0.125 7.8125 -0.0625 C 7.800781 -0.0078125 7.78125 0.03125 7.75 0.0625 C 7.71875 0.101562 7.671875 0.125 7.609375 0.125 C 7.484375 0.125 7.382812 0.0976562 7.3125 0.046875 C 7.25 0.00390625 7.191406 -0.0390625 7.140625 -0.09375 C 7.085938 -0.15625 7.035156 -0.207031 6.984375 -0.25 C 6.941406 -0.300781 6.890625 -0.328125 6.828125 -0.328125 C 6.796875 -0.328125 6.769531 -0.304688 6.75 -0.265625 C 6.738281 -0.234375 6.71875 -0.191406 6.6875 -0.140625 C 6.664062 -0.0976562 6.632812 -0.0546875 6.59375 -0.015625 C 6.5625 0.015625 6.515625 0.03125 6.453125 0.03125 C 6.398438 0.03125 6.34375 0.0195312 6.28125 0 C 6.21875 -0.03125 6.15625 -0.0859375 6.09375 -0.171875 C 6.039062 -0.265625 5.992188 -0.398438 5.953125 -0.578125 C 5.910156 -0.765625 5.890625 -1.007812 5.890625 -1.3125 L 5.890625 -1.90625 C 5.890625 -2.03125 5.898438 -2.21875 5.921875 -2.46875 C 5.953125 -2.726562 5.984375 -3.03125 6.015625 -3.375 C 6.046875 -3.71875 6.082031 -4.085938 6.125 -4.484375 C 6.164062 -4.878906 6.195312 -5.28125 6.21875 -5.6875 C 6.25 -6.101562 6.273438 -6.507812 6.296875 -6.90625 C 6.328125 -7.300781 6.34375 -7.660156 6.34375 -7.984375 C 6.34375 -8.972656 6.21875 -9.46875 5.96875 -9.46875 C 5.90625 -9.46875 5.832031 -9.441406 5.75 -9.390625 C 5.675781 -9.347656 5.582031 -9.257812 5.46875 -9.125 C 5.363281 -8.988281 5.238281 -8.796875 5.09375 -8.546875 C 4.945312 -8.296875 4.785156 -7.960938 4.609375 -7.546875 C 4.429688 -7.128906 4.222656 -6.617188 3.984375 -6.015625 C 3.753906 -5.421875 3.503906 -4.707031 3.234375 -3.875 C 3.171875 -3.6875 3.097656 -3.414062 3.015625 -3.0625 C 2.941406 -2.707031 2.875 -2.347656 2.8125 -1.984375 C 2.757812 -1.617188 2.710938 -1.28125 2.671875 -0.96875 C 2.628906 -0.65625 2.609375 -0.453125 2.609375 -0.359375 C 2.609375 -0.328125 2.5625 -0.28125 2.46875 -0.21875 C 2.375 -0.164062 2.265625 -0.113281 2.140625 -0.0625 C 2.023438 -0.0078125 1.90625 0.03125 1.78125 0.0625 C 1.65625 0.101562 1.554688 0.125 1.484375 0.125 C 1.335938 0.125 1.222656 0.0820312 1.140625 0 C 1.066406 -0.0820312 1.007812 -0.234375 0.96875 -0.453125 C 0.925781 -0.671875 0.898438 -0.972656 0.890625 -1.359375 C 0.890625 -1.753906 0.890625 -2.257812 0.890625 -2.875 C 0.890625 -3.03125 0.894531 -3.335938 0.90625 -3.796875 C 0.925781 -4.265625 0.953125 -4.800781 0.984375 -5.40625 C 1.015625 -6.007812 1.054688 -6.640625 1.109375 -7.296875 C 1.160156 -7.960938 1.222656 -8.570312 1.296875 -9.125 C 1.367188 -9.675781 1.453125 -10.128906 1.546875 -10.484375 C 1.640625 -10.835938 1.75 -11.015625 1.875 -11.015625 C 1.9375 -11.015625 1.992188 -10.992188 2.046875 -10.953125 C 2.097656 -10.910156 2.144531 -10.863281 2.1875 -10.8125 C 2.226562 -10.769531 2.269531 -10.722656 2.3125 -10.671875 C 2.351562 -10.628906 2.394531 -10.609375 2.4375 -10.609375 C 2.476562 -10.609375 2.515625 -10.625 2.546875 -10.65625 C 2.585938 -10.695312 2.625 -10.738281 2.65625 -10.78125 C 2.6875 -10.832031 2.71875 -10.875 2.75 -10.90625 C 2.78125 -10.945312 2.804688 -10.96875 2.828125 -10.96875 C 2.847656 -10.96875 2.882812 -10.921875 2.9375 -10.828125 C 2.988281 -10.742188 3.035156 -10.644531 3.078125 -10.53125 C 3.128906 -10.414062 3.175781 -10.289062 3.21875 -10.15625 C 3.257812 -10.03125 3.28125 -9.9375 3.28125 -9.875 C 3.28125 -9.695312 3.265625 -9.445312 3.234375 -9.125 C 3.203125 -8.800781 3.164062 -8.441406 3.125 -8.046875 C 3.09375 -7.660156 3.0625 -7.265625 3.03125 -6.859375 C 3 -6.460938 2.984375 -6.09375 2.984375 -5.75 L 2.984375 -5.6875 C 3.097656 -6.070312 3.226562 -6.460938 3.375 -6.859375 C 3.53125 -7.253906 3.695312 -7.640625 3.875 -8.015625 C 4.0625 -8.398438 4.257812 -8.765625 4.46875 -9.109375 C 4.675781 -9.453125 4.890625 -9.75 5.109375 -10 C 5.335938 -10.25 5.570312 -10.445312 5.8125 -10.59375 C 6.050781 -10.75 6.289062 -10.828125 6.53125 -10.828125 C 6.832031 -10.828125 7.085938 -10.773438 7.296875 -10.671875 C 7.515625 -10.578125 7.6875 -10.4375 7.8125 -10.25 C 7.945312 -10.070312 8.046875 -9.867188 8.109375 -9.640625 C 8.171875 -9.410156 8.203125 -9.160156 8.203125 -8.890625 C 8.203125 -8.671875 8.1875 -8.410156 8.15625 -8.109375 C 8.125 -7.804688 8.085938 -7.472656 8.046875 -7.109375 C 8.015625 -6.753906 7.984375 -6.359375 7.953125 -5.921875 C 7.921875 -5.492188 7.90625 -5.023438 7.90625 -4.515625 C 8.019531 -4.828125 8.15625 -5.203125 8.3125 -5.640625 C 8.476562 -6.085938 8.65625 -6.546875 8.84375 -7.015625 C 9.039062 -7.492188 9.25 -7.960938 9.46875 -8.421875 C 9.695312 -8.890625 9.925781 -9.304688 10.15625 -9.671875 C 10.382812 -10.035156 10.613281 -10.332031 10.84375 -10.5625 C 11.070312 -10.789062 11.296875 -10.90625 11.515625 -10.90625 C 11.566406 -10.90625 11.703125 -10.882812 11.921875 -10.84375 C 12.140625 -10.800781 12.367188 -10.742188 12.609375 -10.671875 C 12.847656 -10.597656 13.070312 -10.503906 13.28125 -10.390625 C 13.488281 -10.285156 13.628906 -10.164062 13.703125 -10.03125 C 13.773438 -9.875 13.835938 -9.660156 13.890625 -9.390625 C 13.941406 -9.128906 13.96875 -8.773438 13.96875 -8.328125 C 13.96875 -7.941406 13.941406 -7.472656 13.890625 -6.921875 C 13.835938 -6.378906 13.738281 -5.722656 13.59375 -4.953125 C 13.550781 -4.691406 13.519531 -4.441406 13.5 -4.203125 C 13.488281 -3.972656 13.484375 -3.742188 13.484375 -3.515625 C 13.484375 -3.179688 13.5 -2.867188 13.53125 -2.578125 C 13.5625 -2.296875 13.597656 -2.039062 13.640625 -1.8125 C 13.691406 -1.582031 13.738281 -1.382812 13.78125 -1.21875 C 13.820312 -1.0625 13.859375 -0.953125 13.890625 -0.890625 Z M 13.890625 -0.890625" transform="translate(98.34 41.944)"/></g></g></g><g fill="#FFF"><g><g><path d="M 3.625 -17.796875 C 3.613281 -17.734375 3.597656 -17.535156 3.578125 -17.203125 C 3.554688 -16.867188 3.53125 -16.453125 3.5 -15.953125 C 3.46875 -15.453125 3.429688 -14.890625 3.390625 -14.265625 C 3.347656 -13.648438 3.304688 -13.03125 3.265625 -12.40625 C 3.234375 -11.789062 3.203125 -11.195312 3.171875 -10.625 C 3.140625 -10.050781 3.113281 -9.554688 3.09375 -9.140625 C 3.207031 -9.328125 3.351562 -9.515625 3.53125 -9.703125 C 3.71875 -9.898438 3.941406 -10.070312 4.203125 -10.21875 C 4.460938 -10.375 4.757812 -10.5 5.09375 -10.59375 C 5.4375 -10.695312 5.816406 -10.75 6.234375 -10.75 C 6.765625 -10.75 7.296875 -10.648438 7.828125 -10.453125 C 8.359375 -10.265625 8.832031 -9.96875 9.25 -9.5625 C 9.664062 -9.164062 10.003906 -8.660156 10.265625 -8.046875 C 10.535156 -7.429688 10.671875 -6.703125 10.671875 -5.859375 C 10.671875 -5.148438 10.578125 -4.503906 10.390625 -3.921875 C 10.203125 -3.347656 9.957031 -2.832031 9.65625 -2.375 C 9.351562 -1.925781 9.007812 -1.535156 8.625 -1.203125 C 8.238281 -0.867188 7.847656 -0.59375 7.453125 -0.375 C 7.054688 -0.15625 6.675781 0.00390625 6.3125 0.109375 C 5.945312 0.210938 5.628906 0.265625 5.359375 0.265625 C 5.078125 0.265625 4.816406 0.238281 4.578125 0.1875 C 4.335938 0.132812 4.125 0.0703125 3.9375 0 C 3.757812 -0.0820312 3.617188 -0.171875 3.515625 -0.265625 C 3.421875 -0.367188 3.367188 -0.46875 3.359375 -0.5625 C 3.335938 -0.757812 3.332031 -0.972656 3.34375 -1.203125 C 3.363281 -1.429688 3.445312 -1.617188 3.59375 -1.765625 C 3.738281 -1.910156 3.859375 -1.992188 3.953125 -2.015625 C 4.054688 -2.046875 4.15625 -2 4.25 -1.875 C 4.34375 -1.75 4.398438 -1.613281 4.421875 -1.46875 C 4.453125 -1.320312 4.441406 -1.207031 4.390625 -1.125 C 4.359375 -1.082031 4.359375 -1.046875 4.390625 -1.015625 C 4.421875 -0.984375 4.46875 -0.957031 4.53125 -0.9375 C 4.59375 -0.914062 4.664062 -0.894531 4.75 -0.875 C 4.832031 -0.863281 4.914062 -0.859375 5 -0.859375 C 5.300781 -0.859375 5.640625 -0.976562 6.015625 -1.21875 C 6.398438 -1.46875 6.753906 -1.804688 7.078125 -2.234375 C 7.410156 -2.660156 7.691406 -3.160156 7.921875 -3.734375 C 8.148438 -4.316406 8.257812 -4.941406 8.25 -5.609375 C 8.238281 -6.148438 8.171875 -6.617188 8.046875 -7.015625 C 7.929688 -7.410156 7.78125 -7.742188 7.59375 -8.015625 C 7.414062 -8.296875 7.207031 -8.523438 6.96875 -8.703125 C 6.738281 -8.878906 6.507812 -9.007812 6.28125 -9.09375 C 6.0625 -9.1875 5.851562 -9.242188 5.65625 -9.265625 C 5.457031 -9.296875 5.300781 -9.304688 5.1875 -9.296875 C 4.664062 -9.242188 4.222656 -9.066406 3.859375 -8.765625 C 3.492188 -8.472656 3.226562 -8.101562 3.0625 -7.65625 C 3.03125 -6.726562 2.992188 -5.796875 2.953125 -4.859375 C 2.921875 -3.921875 2.90625 -3.046875 2.90625 -2.234375 C 2.90625 -1.828125 2.910156 -1.441406 2.921875 -1.078125 C 2.929688 -0.710938 2.957031 -0.390625 3 -0.109375 C 3.007812 -0.015625 3.007812 0.046875 3 0.078125 C 2.988281 0.109375 2.960938 0.125 2.921875 0.125 C 2.890625 0.125 2.851562 0.113281 2.8125 0.09375 C 2.769531 0.0820312 2.726562 0.0664062 2.6875 0.046875 C 2.65625 0.0351562 2.644531 0.0546875 2.65625 0.109375 C 2.675781 0.171875 2.6875 0.234375 2.6875 0.296875 C 2.695312 0.367188 2.6875 0.421875 2.65625 0.453125 C 2.625 0.484375 2.546875 0.457031 2.421875 0.375 C 2.347656 0.3125 2.257812 0.265625 2.15625 0.234375 C 2.050781 0.210938 2.015625 0.234375 2.046875 0.296875 C 2.054688 0.328125 2.03125 0.34375 1.96875 0.34375 C 1.90625 0.351562 1.832031 0.34375 1.75 0.3125 C 1.664062 0.289062 1.585938 0.242188 1.515625 0.171875 C 1.441406 0.0976562 1.390625 0 1.359375 -0.125 C 1.316406 -0.394531 1.273438 -0.6875 1.234375 -1 C 1.203125 -1.3125 1.171875 -1.648438 1.140625 -2.015625 C 1.117188 -2.390625 1.097656 -2.800781 1.078125 -3.25 C 1.054688 -3.707031 1.046875 -4.222656 1.046875 -4.796875 C 1.046875 -5.222656 1.046875 -5.6875 1.046875 -6.1875 C 1.054688 -6.6875 1.078125 -7.238281 1.109375 -7.84375 C 1.140625 -8.9375 1.179688 -10.015625 1.234375 -11.078125 C 1.285156 -12.148438 1.34375 -13.128906 1.40625 -14.015625 C 1.46875 -14.910156 1.535156 -15.675781 1.609375 -16.3125 C 1.679688 -16.945312 1.757812 -17.382812 1.84375 -17.625 C 1.863281 -17.707031 1.898438 -17.757812 1.953125 -17.78125 C 2.015625 -17.800781 2.125 -17.832031 2.28125 -17.875 C 2.425781 -17.914062 2.578125 -17.957031 2.734375 -18 C 2.898438 -18.039062 3.03125 -18.050781 3.125 -18.03125 C 3.15625 -18.007812 3.203125 -18.007812 3.265625 -18.03125 C 3.328125 -18.050781 3.382812 -18.0625 3.4375 -18.0625 C 3.5 -18.0625 3.546875 -18.039062 3.578125 -18 C 3.617188 -17.96875 3.632812 -17.898438 3.625 -17.796875 Z M 3.625 -17.796875" transform="translate(113.492 41.944)"/></g></g></g><g fill="#FFF"><g><g><path d="M 10.03125 -5.53125 C 10.03125 -4.613281 9.894531 -3.785156 9.625 -3.046875 C 9.351562 -2.316406 8.988281 -1.691406 8.53125 -1.171875 C 8.070312 -0.660156 7.539062 -0.265625 6.9375 0.015625 C 6.332031 0.296875 5.695312 0.4375 5.03125 0.4375 C 4.75 0.4375 4.441406 0.398438 4.109375 0.328125 C 3.773438 0.265625 3.441406 0.160156 3.109375 0.015625 C 2.773438 -0.128906 2.453125 -0.320312 2.140625 -0.5625 C 1.828125 -0.8125 1.546875 -1.113281 1.296875 -1.46875 C 1.054688 -1.832031 0.863281 -2.253906 0.71875 -2.734375 C 0.570312 -3.222656 0.503906 -3.78125 0.515625 -4.40625 C 0.515625 -5.125 0.597656 -5.773438 0.765625 -6.359375 C 0.941406 -6.953125 1.164062 -7.484375 1.4375 -7.953125 C 1.71875 -8.421875 2.03125 -8.828125 2.375 -9.171875 C 2.726562 -9.515625 3.082031 -9.800781 3.4375 -10.03125 C 3.789062 -10.257812 4.128906 -10.429688 4.453125 -10.546875 C 4.773438 -10.660156 5.050781 -10.726562 5.28125 -10.75 C 5.40625 -10.757812 5.460938 -10.742188 5.453125 -10.703125 C 5.441406 -10.671875 5.410156 -10.632812 5.359375 -10.59375 C 5.304688 -10.550781 5.257812 -10.503906 5.21875 -10.453125 C 5.175781 -10.410156 5.191406 -10.382812 5.265625 -10.375 C 5.328125 -10.363281 5.375 -10.347656 5.40625 -10.328125 C 5.445312 -10.304688 5.488281 -10.285156 5.53125 -10.265625 L 5.640625 -10.375 C 5.703125 -10.425781 5.757812 -10.453125 5.8125 -10.453125 C 5.875 -10.453125 5.925781 -10.441406 5.96875 -10.421875 C 6.007812 -10.410156 6.039062 -10.40625 6.0625 -10.40625 C 6.09375 -10.40625 6.113281 -10.429688 6.125 -10.484375 C 6.144531 -10.578125 6.175781 -10.628906 6.21875 -10.640625 C 6.269531 -10.660156 6.382812 -10.671875 6.5625 -10.671875 C 6.664062 -10.671875 6.820312 -10.640625 7.03125 -10.578125 C 7.25 -10.515625 7.488281 -10.40625 7.75 -10.25 C 8.007812 -10.101562 8.269531 -9.90625 8.53125 -9.65625 C 8.800781 -9.414062 9.046875 -9.101562 9.265625 -8.71875 C 9.492188 -8.34375 9.675781 -7.890625 9.8125 -7.359375 C 9.957031 -6.835938 10.03125 -6.226562 10.03125 -5.53125 Z M 5.28125 -9.375 C 4.976562 -9.195312 4.675781 -8.945312 4.375 -8.625 C 4.082031 -8.3125 3.816406 -7.945312 3.578125 -7.53125 C 3.335938 -7.125 3.140625 -6.664062 2.984375 -6.15625 C 2.835938 -5.65625 2.765625 -5.125 2.765625 -4.5625 C 2.765625 -3.957031 2.816406 -3.410156 2.921875 -2.921875 C 3.035156 -2.429688 3.195312 -2.015625 3.40625 -1.671875 C 3.625 -1.328125 3.878906 -1.0625 4.171875 -0.875 C 4.472656 -0.6875 4.816406 -0.59375 5.203125 -0.59375 C 5.546875 -0.59375 5.882812 -0.6875 6.21875 -0.875 C 6.5625 -1.070312 6.863281 -1.363281 7.125 -1.75 C 7.382812 -2.132812 7.59375 -2.609375 7.75 -3.171875 C 7.914062 -3.742188 8 -4.40625 8 -5.15625 C 8 -5.914062 7.898438 -6.550781 7.703125 -7.0625 C 7.503906 -7.582031 7.28125 -8.003906 7.03125 -8.328125 C 6.78125 -8.648438 6.539062 -8.878906 6.3125 -9.015625 C 6.082031 -9.148438 5.941406 -9.21875 5.890625 -9.21875 C 5.765625 -9.21875 5.671875 -9.21875 5.609375 -9.21875 C 5.546875 -9.21875 5.4375 -9.269531 5.28125 -9.375 Z M 5.28125 -9.375" transform="translate(125.13 41.944)"/></g></g></g><g fill="#FFF"><g><g><path d="M 13.0625 -0.203125 C 12.84375 -0.222656 12.210938 -0.238281 11.171875 -0.25 C 10.128906 -0.257812 8.710938 -0.265625 6.921875 -0.265625 C 6.035156 -0.265625 5.222656 -0.238281 4.484375 -0.1875 C 3.742188 -0.144531 3.101562 -0.09375 2.5625 -0.03125 C 2.03125 0.0195312 1.601562 0.078125 1.28125 0.140625 C 0.957031 0.210938 0.769531 0.273438 0.71875 0.328125 C 0.613281 0.421875 0.550781 0.472656 0.53125 0.484375 C 0.507812 0.503906 0.476562 0.476562 0.4375 0.40625 C 0.382812 0.332031 0.335938 0.25 0.296875 0.15625 C 0.253906 0.0625 0.289062 -0.078125 0.40625 -0.265625 C 0.476562 -0.390625 0.691406 -0.617188 1.046875 -0.953125 C 1.410156 -1.285156 1.863281 -1.707031 2.40625 -2.21875 C 2.957031 -2.726562 3.570312 -3.3125 4.25 -3.96875 C 4.925781 -4.625 5.613281 -5.351562 6.3125 -6.15625 C 7.132812 -7.082031 7.820312 -7.941406 8.375 -8.734375 C 8.9375 -9.535156 9.378906 -10.269531 9.703125 -10.9375 C 10.023438 -11.613281 10.234375 -12.226562 10.328125 -12.78125 C 10.421875 -13.332031 10.425781 -13.828125 10.34375 -14.265625 C 10.257812 -14.671875 10.097656 -15.007812 9.859375 -15.28125 C 9.617188 -15.5625 9.328125 -15.789062 8.984375 -15.96875 C 8.640625 -16.15625 8.257812 -16.289062 7.84375 -16.375 C 7.425781 -16.46875 7.007812 -16.519531 6.59375 -16.53125 C 5.90625 -16.570312 5.273438 -16.484375 4.703125 -16.265625 C 4.140625 -16.046875 3.660156 -15.773438 3.265625 -15.453125 C 2.878906 -15.140625 2.59375 -14.800781 2.40625 -14.4375 C 2.226562 -14.070312 2.1875 -13.753906 2.28125 -13.484375 C 2.363281 -13.265625 2.503906 -13.113281 2.703125 -13.03125 C 2.898438 -12.945312 3.128906 -12.90625 3.390625 -12.90625 C 3.578125 -12.90625 3.773438 -12.925781 3.984375 -12.96875 C 4.191406 -13.007812 4.394531 -13.066406 4.59375 -13.140625 C 4.789062 -13.222656 4.972656 -13.316406 5.140625 -13.421875 C 5.316406 -13.535156 5.46875 -13.660156 5.59375 -13.796875 C 5.664062 -13.859375 5.722656 -13.882812 5.765625 -13.875 C 5.816406 -13.863281 5.847656 -13.828125 5.859375 -13.765625 C 5.867188 -13.710938 5.863281 -13.648438 5.84375 -13.578125 C 5.832031 -13.503906 5.800781 -13.441406 5.75 -13.390625 C 5.65625 -13.285156 5.613281 -13.234375 5.625 -13.234375 C 5.644531 -13.234375 5.703125 -13.203125 5.796875 -13.140625 C 5.890625 -13.085938 5.957031 -13.007812 6 -12.90625 C 6.050781 -12.800781 6.023438 -12.664062 5.921875 -12.5 C 5.890625 -12.457031 5.867188 -12.421875 5.859375 -12.390625 C 5.847656 -12.359375 5.832031 -12.320312 5.8125 -12.28125 C 5.789062 -12.25 5.757812 -12.207031 5.71875 -12.15625 C 5.6875 -12.101562 5.632812 -12.050781 5.5625 -12 C 4.9375 -11.539062 4.300781 -11.3125 3.65625 -11.3125 C 3.3125 -11.3125 2.976562 -11.375 2.65625 -11.5 C 2.34375 -11.625 2.066406 -11.789062 1.828125 -12 C 1.585938 -12.207031 1.382812 -12.4375 1.21875 -12.6875 C 1.0625 -12.945312 0.960938 -13.210938 0.921875 -13.484375 C 0.867188 -13.753906 0.878906 -14.0625 0.953125 -14.40625 C 1.023438 -14.757812 1.15625 -15.117188 1.34375 -15.484375 C 1.539062 -15.847656 1.796875 -16.207031 2.109375 -16.5625 C 2.421875 -16.914062 2.785156 -17.234375 3.203125 -17.515625 C 3.628906 -17.796875 4.113281 -18.019531 4.65625 -18.1875 C 5.195312 -18.363281 5.796875 -18.457031 6.453125 -18.46875 C 7.441406 -18.476562 8.265625 -18.375 8.921875 -18.15625 C 9.578125 -17.945312 10.117188 -17.65625 10.546875 -17.28125 C 10.972656 -16.90625 11.300781 -16.460938 11.53125 -15.953125 C 11.757812 -15.453125 11.941406 -14.910156 12.078125 -14.328125 C 12.191406 -13.867188 12.195312 -13.382812 12.09375 -12.875 C 12 -12.363281 11.832031 -11.851562 11.59375 -11.34375 C 11.363281 -10.832031 11.082031 -10.320312 10.75 -9.8125 C 10.414062 -9.300781 10.066406 -8.8125 9.703125 -8.34375 C 9.347656 -7.882812 8.992188 -7.441406 8.640625 -7.015625 C 8.296875 -6.597656 7.988281 -6.222656 7.71875 -5.890625 C 7.363281 -5.441406 7.03125 -5.050781 6.71875 -4.71875 C 6.40625 -4.382812 6.109375 -4.082031 5.828125 -3.8125 C 5.554688 -3.539062 5.304688 -3.289062 5.078125 -3.0625 C 4.847656 -2.832031 4.644531 -2.597656 4.46875 -2.359375 C 5.0625 -2.484375 5.710938 -2.566406 6.421875 -2.609375 C 7.140625 -2.660156 7.835938 -2.6875 8.515625 -2.6875 C 8.953125 -2.6875 9.367188 -2.675781 9.765625 -2.65625 C 10.171875 -2.644531 10.535156 -2.625 10.859375 -2.59375 C 11.179688 -2.570312 11.457031 -2.539062 11.6875 -2.5 C 11.914062 -2.46875 12.070312 -2.429688 12.15625 -2.390625 C 12.269531 -2.335938 12.351562 -2.285156 12.40625 -2.234375 C 12.46875 -2.191406 12.507812 -2.144531 12.53125 -2.09375 C 12.5625 -2.039062 12.585938 -1.992188 12.609375 -1.953125 C 12.640625 -1.921875 12.675781 -1.882812 12.71875 -1.84375 C 12.789062 -1.769531 12.851562 -1.679688 12.90625 -1.578125 C 12.957031 -1.484375 12.910156 -1.410156 12.765625 -1.359375 C 12.671875 -1.335938 12.617188 -1.289062 12.609375 -1.21875 C 12.597656 -1.15625 12.675781 -1.046875 12.84375 -0.890625 C 13.0625 -0.660156 13.207031 -0.484375 13.28125 -0.359375 C 13.351562 -0.242188 13.28125 -0.191406 13.0625 -0.203125 Z M 13.0625 -0.203125" transform="translate(141.095 41.944)"/></g></g></g><g fill="#FE6B8B"><g><g><path d="M 10.171875 -14.609375 C 10.171875 -12.691406 9.707031 -11.398438 8.78125 -10.734375 C 9.957031 -10.035156 10.546875 -8.484375 10.546875 -6.078125 L 10.546875 -5.578125 C 10.523438 -3.535156 10.160156 -2.054688 9.453125 -1.140625 C 8.722656 -0.191406 7.550781 0.28125 5.9375 0.28125 L 1.3125 0.28125 L 1.3125 -19.9375 L 5.84375 -19.9375 C 7.394531 -19.9375 8.503906 -19.566406 9.171875 -18.828125 C 9.503906 -18.453125 9.75 -17.960938 9.90625 -17.359375 C 10.070312 -16.753906 10.160156 -16.039062 10.171875 -15.21875 Z M 4.859375 -2.609375 L 5.640625 -2.609375 C 6.128906 -2.609375 6.460938 -2.765625 6.640625 -3.078125 C 6.859375 -3.441406 6.96875 -4.128906 6.96875 -5.140625 L 6.96875 -6.71875 C 6.96875 -7.195312 6.941406 -7.601562 6.890625 -7.9375 C 6.847656 -8.28125 6.785156 -8.539062 6.703125 -8.71875 C 6.628906 -8.875 6.523438 -8.988281 6.390625 -9.0625 C 6.253906 -9.144531 6.070312 -9.1875 5.84375 -9.1875 L 4.859375 -9.1875 Z M 4.859375 -11.984375 L 5.6875 -11.984375 C 6.082031 -11.984375 6.332031 -12.09375 6.4375 -12.3125 C 6.582031 -12.601562 6.65625 -13.238281 6.65625 -14.21875 L 6.65625 -15.40625 C 6.65625 -15.539062 6.648438 -15.671875 6.640625 -15.796875 C 6.628906 -15.929688 6.613281 -16.046875 6.59375 -16.140625 C 6.582031 -16.242188 6.566406 -16.335938 6.546875 -16.421875 C 6.523438 -16.503906 6.5 -16.570312 6.46875 -16.625 C 6.445312 -16.675781 6.425781 -16.71875 6.40625 -16.75 C 6.257812 -16.9375 5.984375 -17.03125 5.578125 -17.03125 L 4.859375 -17.03125 Z M 4.859375 -11.984375" transform="translate(8.781 69.679)"/></g></g></g><g fill="#FE6B8B"><g><g><path d="M 4.765625 -3.15625 C 4.835938 -2.976562 4.9375 -2.847656 5.0625 -2.765625 C 5.1875 -2.679688 5.359375 -2.640625 5.578125 -2.640625 C 5.804688 -2.640625 5.984375 -2.679688 6.109375 -2.765625 C 6.234375 -2.847656 6.332031 -2.976562 6.40625 -3.15625 C 6.5625 -3.59375 6.640625 -4.363281 6.640625 -5.46875 L 6.640625 -14.625 C 6.640625 -15.519531 6.554688 -16.160156 6.390625 -16.546875 C 6.316406 -16.710938 6.222656 -16.832031 6.109375 -16.90625 C 5.992188 -16.976562 5.832031 -17.015625 5.625 -17.015625 C 5.414062 -17.015625 5.242188 -16.972656 5.109375 -16.890625 C 4.984375 -16.816406 4.878906 -16.703125 4.796875 -16.546875 C 4.710938 -16.359375 4.644531 -16.101562 4.59375 -15.78125 C 4.550781 -15.457031 4.53125 -15.070312 4.53125 -14.625 L 4.53125 -5.46875 C 4.53125 -4.34375 4.609375 -3.570312 4.765625 -3.15625 Z M 9.109375 -1.03125 C 8.742188 -0.519531 8.265625 -0.140625 7.671875 0.109375 C 7.085938 0.367188 6.398438 0.5 5.609375 0.5 C 3.992188 0.5 2.8125 -0.0078125 2.0625 -1.03125 C 1.320312 -2.03125 0.953125 -3.519531 0.953125 -5.5 L 0.953125 -14.484375 C 0.953125 -16.335938 1.34375 -17.75 2.125 -18.71875 C 2.914062 -19.6875 4.085938 -20.171875 5.640625 -20.171875 C 7.253906 -20.171875 8.421875 -19.675781 9.140625 -18.6875 C 9.847656 -17.71875 10.203125 -16.316406 10.203125 -14.484375 L 10.203125 -5.5 C 10.203125 -4.507812 10.109375 -3.640625 9.921875 -2.890625 C 9.742188 -2.148438 9.472656 -1.53125 9.109375 -1.03125 Z M 9.109375 -1.03125" transform="translate(19.9 69.679)"/></g></g></g><g fill="#FE6B8B"><g><g><path d="M 1.1875 0 L 1.1875 -19.9375 L 4.015625 -19.9375 L 4.09375 -19.75 L 7.625 -9.6875 L 7.5 -13.21875 L 7.5 -19.9375 L 10.75 -19.9375 L 10.75 0.28125 L 8.140625 0.28125 L 8.078125 0.09375 L 4.40625 -10.40625 L 4.515625 -7.046875 L 4.515625 0.28125 L 1.1875 0.28125 Z M 1.1875 0" transform="translate(31.052 69.679)"/></g></g></g><g fill="#FE6B8B"><g><g><path d="M 1.1875 0 L 1.1875 -19.9375 L 8.34375 -19.9375 L 8.34375 -16.796875 L 4.75 -16.796875 L 4.75 -11.640625 L 8.171875 -11.640625 L 8.171875 -8.5625 L 4.75 -8.5625 L 4.75 -2.859375 L 8.484375 -2.859375 L 8.484375 0.28125 L 1.1875 0.28125 Z M 1.1875 0" transform="translate(42.986 69.679)"/></g></g></g><g fill="#FE6B8B"><g><g><path d="M 10.203125 -5.5 C 10.203125 -2.726562 9.492188 -0.921875 8.078125 -0.078125 L 9.6875 1.796875 L 9.859375 2.015625 L 9.65625 2.1875 L 8.171875 3.46875 L 7.96875 3.65625 L 7.796875 3.453125 L 5.0625 0.484375 C 3.726562 0.378906 2.710938 -0.148438 2.015625 -1.109375 C 1.304688 -2.054688 0.953125 -3.519531 0.953125 -5.5 L 0.953125 -14.484375 C 0.953125 -16.335938 1.34375 -17.75 2.125 -18.71875 C 2.914062 -19.6875 4.085938 -20.171875 5.640625 -20.171875 C 7.253906 -20.171875 8.421875 -19.675781 9.140625 -18.6875 C 9.847656 -17.71875 10.203125 -16.316406 10.203125 -14.484375 Z M 4.765625 -3.15625 C 4.835938 -2.976562 4.9375 -2.847656 5.0625 -2.765625 C 5.1875 -2.679688 5.359375 -2.640625 5.578125 -2.640625 C 5.804688 -2.640625 5.984375 -2.679688 6.109375 -2.765625 C 6.234375 -2.847656 6.332031 -2.976562 6.40625 -3.15625 C 6.5625 -3.59375 6.640625 -4.363281 6.640625 -5.46875 L 6.640625 -14.625 C 6.640625 -15.519531 6.554688 -16.160156 6.390625 -16.546875 C 6.316406 -16.710938 6.222656 -16.832031 6.109375 -16.90625 C 5.992188 -16.976562 5.832031 -17.015625 5.625 -17.015625 C 5.414062 -17.015625 5.242188 -16.972656 5.109375 -16.890625 C 4.984375 -16.816406 4.878906 -16.703125 4.796875 -16.546875 C 4.710938 -16.359375 4.644531 -16.101562 4.59375 -15.78125 C 4.550781 -15.457031 4.53125 -15.070312 4.53125 -14.625 L 4.53125 -5.46875 C 4.53125 -4.34375 4.609375 -3.570312 4.765625 -3.15625 Z M 4.765625 -3.15625" transform="translate(52.096 69.679)"/></g></g></g><g fill="#FE6B8B"><g><g><path d="M 9.21875 -0.875 C 8.476562 0.0390625 7.304688 0.5 5.703125 0.5 C 4.097656 0.5 2.921875 0.0390625 2.171875 -0.875 C 1.441406 -1.789062 1.078125 -3.179688 1.078125 -5.046875 L 1.078125 -19.953125 L 4.640625 -19.953125 L 4.640625 -5.109375 C 4.640625 -4.109375 4.679688 -3.515625 4.765625 -3.328125 C 4.804688 -3.222656 4.851562 -3.125 4.90625 -3.03125 C 4.957031 -2.945312 5.015625 -2.863281 5.078125 -2.78125 C 5.148438 -2.664062 5.351562 -2.609375 5.6875 -2.609375 C 6.03125 -2.609375 6.269531 -2.695312 6.40625 -2.875 C 6.5625 -3.082031 6.660156 -3.351562 6.703125 -3.6875 C 6.710938 -3.875 6.722656 -4.082031 6.734375 -4.3125 C 6.742188 -4.550781 6.75 -4.816406 6.75 -5.109375 L 6.75 -19.953125 L 10.3125 -19.953125 L 10.3125 -5.046875 C 10.3125 -3.171875 9.945312 -1.78125 9.21875 -0.875 Z M 9.21875 -0.875" transform="translate(63.36 69.679)"/></g></g></g><g fill="#FE6B8B"><g><g><path d="M 1.1875 0 L 1.1875 -19.9375 L 8.34375 -19.9375 L 8.34375 -16.796875 L 4.75 -16.796875 L 4.75 -11.640625 L 8.171875 -11.640625 L 8.171875 -8.5625 L 4.75 -8.5625 L 4.75 -2.859375 L 8.484375 -2.859375 L 8.484375 0.28125 L 1.1875 0.28125 Z M 1.1875 0" transform="translate(74.746 69.679)"/></g></g></g><g fill="#FE6B8B"><g><g><path d="M 1.3125 0 L 1.3125 -19.9375 L 4.859375 -19.9375 L 4.859375 0.28125 L 1.3125 0.28125 Z M 1.3125 0" transform="translate(83.856 69.679)"/></g></g></g><g fill="#FE6B8B"><g><g><path d="M 5.421875 -8.953125 L 4.75 -8.984375 L 4.75 0.28125 L 1.1875 0.28125 L 1.1875 -19.9375 L 6.421875 -19.9375 C 6.773438 -19.9375 7.101562 -19.910156 7.40625 -19.859375 C 7.707031 -19.816406 7.984375 -19.742188 8.234375 -19.640625 C 8.484375 -19.535156 8.707031 -19.40625 8.90625 -19.25 C 9.007812 -19.164062 9.109375 -19.066406 9.203125 -18.953125 C 9.304688 -18.847656 9.394531 -18.734375 9.46875 -18.609375 C 9.550781 -18.492188 9.625 -18.367188 9.6875 -18.234375 C 9.757812 -18.097656 9.816406 -17.957031 9.859375 -17.8125 C 9.910156 -17.675781 9.957031 -17.53125 10 -17.375 C 10.082031 -16.976562 10.144531 -16.535156 10.1875 -16.046875 C 10.226562 -15.554688 10.25 -15.007812 10.25 -14.40625 C 10.25 -13.164062 10.113281 -12.222656 9.84375 -11.578125 C 9.644531 -11.085938 9.332031 -10.707031 8.90625 -10.4375 C 9.332031 -10.175781 9.648438 -9.738281 9.859375 -9.125 C 10.003906 -8.695312 10.109375 -8.066406 10.171875 -7.234375 C 10.242188 -6.398438 10.28125 -5.34375 10.28125 -4.0625 C 10.28125 -3.476562 10.28125 -2.941406 10.28125 -2.453125 C 10.289062 -1.960938 10.300781 -1.554688 10.3125 -1.234375 C 10.320312 -0.921875 10.332031 -0.664062 10.34375 -0.46875 C 10.351562 -0.269531 10.359375 -0.144531 10.359375 -0.09375 L 10.515625 0.28125 L 6.953125 0.28125 L 6.875 0.125 C 6.800781 -0.0078125 6.753906 -0.445312 6.734375 -1.1875 C 6.722656 -1.9375 6.71875 -3.300781 6.71875 -5.28125 C 6.71875 -6.039062 6.71875 -6.628906 6.71875 -7.046875 C 6.71875 -7.453125 6.691406 -7.789062 6.640625 -8.0625 C 6.597656 -8.332031 6.539062 -8.519531 6.46875 -8.625 C 6.3125 -8.832031 5.960938 -8.941406 5.421875 -8.953125 Z M 4.765625 -11.890625 L 5.671875 -11.890625 C 5.742188 -11.890625 5.804688 -11.890625 5.859375 -11.890625 C 5.921875 -11.898438 5.972656 -11.90625 6.015625 -11.90625 C 6.066406 -11.914062 6.109375 -11.929688 6.140625 -11.953125 C 6.179688 -11.972656 6.210938 -11.988281 6.234375 -12 C 6.265625 -12.019531 6.296875 -12.039062 6.328125 -12.0625 C 6.460938 -12.1875 6.5625 -12.425781 6.625 -12.78125 C 6.65625 -12.976562 6.675781 -13.234375 6.6875 -13.546875 C 6.707031 -13.867188 6.71875 -14.238281 6.71875 -14.65625 L 6.71875 -14.78125 C 6.71875 -15.800781 6.640625 -16.453125 6.484375 -16.734375 C 6.359375 -16.960938 6.03125 -17.078125 5.5 -17.078125 L 4.765625 -17.078125 Z M 4.765625 -11.890625" transform="translate(90.018 69.679)"/></g></g></g><g fill="#FE6B8B"><g><g><path d="M 6.421875 -6.1875 L 5.421875 -13.75 L 4.484375 -6.1875 Z M 0.296875 -0.046875 L 3.109375 -19.703125 L 3.140625 -19.9375 L 7.578125 -19.9375 L 7.625 -19.703125 L 10.59375 -0.046875 L 10.640625 0.28125 L 7.28125 0.28125 L 7.25 0.03125 L 6.8125 -3.234375 L 4.125 -3.234375 L 3.734375 0.03125 L 3.703125 0.28125 L 0.25 0.28125 Z M 0.296875 -0.046875" transform="translate(101.293 69.679)"/></g></g></g><g fill="#FE6B8B"><g><g><path d="M 6.421875 -6.1875 L 5.421875 -13.75 L 4.484375 -6.1875 Z M 0.296875 -0.046875 L 3.109375 -19.703125 L 3.140625 -19.9375 L 7.578125 -19.9375 L 7.625 -19.703125 L 10.59375 -0.046875 L 10.640625 0.28125 L 7.28125 0.28125 L 7.25 0.03125 L 6.8125 -3.234375 L 4.125 -3.234375 L 3.734375 0.03125 L 3.703125 0.28125 L 0.25 0.28125 Z M 0.296875 -0.046875" transform="translate(116.286 69.679)"/></g></g></g><g fill="#FE6B8B"><g><g><path d="M 5.421875 -8.953125 L 4.75 -8.984375 L 4.75 0.28125 L 1.1875 0.28125 L 1.1875 -19.9375 L 6.421875 -19.9375 C 6.773438 -19.9375 7.101562 -19.910156 7.40625 -19.859375 C 7.707031 -19.816406 7.984375 -19.742188 8.234375 -19.640625 C 8.484375 -19.535156 8.707031 -19.40625 8.90625 -19.25 C 9.007812 -19.164062 9.109375 -19.066406 9.203125 -18.953125 C 9.304688 -18.847656 9.394531 -18.734375 9.46875 -18.609375 C 9.550781 -18.492188 9.625 -18.367188 9.6875 -18.234375 C 9.757812 -18.097656 9.816406 -17.957031 9.859375 -17.8125 C 9.910156 -17.675781 9.957031 -17.53125 10 -17.375 C 10.082031 -16.976562 10.144531 -16.535156 10.1875 -16.046875 C 10.226562 -15.554688 10.25 -15.007812 10.25 -14.40625 C 10.25 -13.164062 10.113281 -12.222656 9.84375 -11.578125 C 9.644531 -11.085938 9.332031 -10.707031 8.90625 -10.4375 C 9.332031 -10.175781 9.648438 -9.738281 9.859375 -9.125 C 10.003906 -8.695312 10.109375 -8.066406 10.171875 -7.234375 C 10.242188 -6.398438 10.28125 -5.34375 10.28125 -4.0625 C 10.28125 -3.476562 10.28125 -2.941406 10.28125 -2.453125 C 10.289062 -1.960938 10.300781 -1.554688 10.3125 -1.234375 C 10.320312 -0.921875 10.332031 -0.664062 10.34375 -0.46875 C 10.351562 -0.269531 10.359375 -0.144531 10.359375 -0.09375 L 10.515625 0.28125 L 6.953125 0.28125 L 6.875 0.125 C 6.800781 -0.0078125 6.753906 -0.445312 6.734375 -1.1875 C 6.722656 -1.9375 6.71875 -3.300781 6.71875 -5.28125 C 6.71875 -6.039062 6.71875 -6.628906 6.71875 -7.046875 C 6.71875 -7.453125 6.691406 -7.789062 6.640625 -8.0625 C 6.597656 -8.332031 6.539062 -8.519531 6.46875 -8.625 C 6.3125 -8.832031 5.960938 -8.941406 5.421875 -8.953125 Z M 4.765625 -11.890625 L 5.671875 -11.890625 C 5.742188 -11.890625 5.804688 -11.890625 5.859375 -11.890625 C 5.921875 -11.898438 5.972656 -11.90625 6.015625 -11.90625 C 6.066406 -11.914062 6.109375 -11.929688 6.140625 -11.953125 C 6.179688 -11.972656 6.210938 -11.988281 6.234375 -12 C 6.265625 -12.019531 6.296875 -12.039062 6.328125 -12.0625 C 6.460938 -12.1875 6.5625 -12.425781 6.625 -12.78125 C 6.65625 -12.976562 6.675781 -13.234375 6.6875 -13.546875 C 6.707031 -13.867188 6.71875 -14.238281 6.71875 -14.65625 L 6.71875 -14.78125 C 6.71875 -15.800781 6.640625 -16.453125 6.484375 -16.734375 C 6.359375 -16.960938 6.03125 -17.078125 5.5 -17.078125 L 4.765625 -17.078125 Z M 4.765625 -11.890625" transform="translate(127.181 69.679)"/></g></g></g><g fill="#FE6B8B"><g><g><path d="M 2.203125 0 L 2.203125 -16.78125 L -0.09375 -16.78125 L -0.09375 -19.9375 L 7.953125 -19.9375 L 7.953125 -16.78125 L 5.734375 -16.78125 L 5.734375 0.28125 L 2.203125 0.28125 Z M 2.203125 0" transform="translate(138.456 69.679)"/></g></g></g><g fill="#FE6B8B"><g><g><path d="M 1.3125 0 L 1.3125 -19.9375 L 4.859375 -19.9375 L 4.859375 0.28125 L 1.3125 0.28125 Z M 1.3125 0" transform="translate(146.304 69.679)"/></g></g></g><g fill="#FE6B8B"><g><g><path d="M 8.984375 -0.984375 C 8.253906 0.00390625 7.113281 0.5 5.5625 0.5 C 4.007812 0.5 2.847656 -0.0234375 2.078125 -1.078125 C 1.328125 -2.097656 0.953125 -3.546875 0.953125 -5.421875 L 0.953125 -14 C 0.953125 -17.039062 1.769531 -18.953125 3.40625 -19.734375 C 4.007812 -20.015625 4.734375 -20.15625 5.578125 -20.15625 C 7.046875 -20.15625 8.148438 -19.6875 8.890625 -18.75 C 9.640625 -17.8125 10.015625 -16.445312 10.015625 -14.65625 L 10.015625 -11.671875 L 6.5625 -11.671875 L 6.5625 -14.46875 C 6.5625 -14.789062 6.550781 -15.085938 6.53125 -15.359375 C 6.507812 -15.628906 6.476562 -15.859375 6.4375 -16.046875 C 6.40625 -16.242188 6.367188 -16.40625 6.328125 -16.53125 C 6.253906 -16.695312 6.160156 -16.816406 6.046875 -16.890625 C 5.929688 -16.972656 5.773438 -17.015625 5.578125 -17.015625 C 5.441406 -17.015625 5.320312 -16.992188 5.21875 -16.953125 C 5.125 -16.921875 5.039062 -16.863281 4.96875 -16.78125 C 4.90625 -16.707031 4.847656 -16.609375 4.796875 -16.484375 C 4.617188 -16.054688 4.53125 -15.382812 4.53125 -14.46875 L 4.53125 -5.296875 C 4.53125 -4.273438 4.613281 -3.550781 4.78125 -3.125 C 4.851562 -2.945312 4.945312 -2.816406 5.0625 -2.734375 C 5.1875 -2.660156 5.347656 -2.625 5.546875 -2.625 C 5.671875 -2.625 5.78125 -2.640625 5.875 -2.671875 C 5.96875 -2.703125 6.046875 -2.753906 6.109375 -2.828125 C 6.179688 -2.910156 6.242188 -3.015625 6.296875 -3.140625 C 6.378906 -3.347656 6.441406 -3.632812 6.484375 -4 C 6.535156 -4.375 6.5625 -4.816406 6.5625 -5.328125 L 6.5625 -8.421875 L 10.046875 -8.421875 L 10.046875 -5.359375 C 10.046875 -3.398438 9.691406 -1.941406 8.984375 -0.984375 Z M 8.984375 -0.984375" transform="translate(152.466 69.679)"/></g></g></g><g fill="#FE6B8B"><g><g><path d="M 9.21875 -0.875 C 8.476562 0.0390625 7.304688 0.5 5.703125 0.5 C 4.097656 0.5 2.921875 0.0390625 2.171875 -0.875 C 1.441406 -1.789062 1.078125 -3.179688 1.078125 -5.046875 L 1.078125 -19.953125 L 4.640625 -19.953125 L 4.640625 -5.109375 C 4.640625 -4.109375 4.679688 -3.515625 4.765625 -3.328125 C 4.804688 -3.222656 4.851562 -3.125 4.90625 -3.03125 C 4.957031 -2.945312 5.015625 -2.863281 5.078125 -2.78125 C 5.148438 -2.664062 5.351562 -2.609375 5.6875 -2.609375 C 6.03125 -2.609375 6.269531 -2.695312 6.40625 -2.875 C 6.5625 -3.082031 6.660156 -3.351562 6.703125 -3.6875 C 6.710938 -3.875 6.722656 -4.082031 6.734375 -4.3125 C 6.742188 -4.550781 6.75 -4.816406 6.75 -5.109375 L 6.75 -19.953125 L 10.3125 -19.953125 L 10.3125 -5.046875 C 10.3125 -3.171875 9.945312 -1.78125 9.21875 -0.875 Z M 9.21875 -0.875" transform="translate(163.194 69.679)"/></g></g></g><g fill="#FE6B8B"><g><g><path d="M 1.1875 0 L 1.1875 -19.9375 L 4.75 -19.9375 L 4.75 -2.828125 L 8.53125 -2.828125 L 8.53125 0.28125 L 1.1875 0.28125 Z M 1.1875 0" transform="translate(174.581 69.679)"/></g></g></g><g fill="#FE6B8B"><g><g><path d="M 6.421875 -6.1875 L 5.421875 -13.75 L 4.484375 -6.1875 Z M 0.296875 -0.046875 L 3.109375 -19.703125 L 3.140625 -19.9375 L 7.578125 -19.9375 L 7.625 -19.703125 L 10.59375 -0.046875 L 10.640625 0.28125 L 7.28125 0.28125 L 7.25 0.03125 L 6.8125 -3.234375 L 4.125 -3.234375 L 3.734375 0.03125 L 3.703125 0.28125 L 0.25 0.28125 Z M 0.296875 -0.046875" transform="translate(183.077 69.679)"/></g></g></g><g fill="#FE6B8B"><g><g><path d="M 4.734375 -2.609375 L 5.4375 -2.609375 C 5.894531 -2.609375 6.21875 -2.742188 6.40625 -3.015625 C 6.507812 -3.160156 6.585938 -3.382812 6.640625 -3.6875 C 6.703125 -4 6.734375 -4.378906 6.734375 -4.828125 L 6.71875 -14.53125 C 6.71875 -15.5 6.609375 -16.175781 6.390625 -16.5625 C 6.191406 -16.90625 5.84375 -17.078125 5.34375 -17.078125 L 4.734375 -17.078125 Z M 1.1875 0 L 1.1875 -19.9375 L 5.875 -19.9375 C 7.40625 -19.9375 8.523438 -19.472656 9.234375 -18.546875 C 9.929688 -17.640625 10.28125 -16.328125 10.28125 -14.609375 L 10.28125 -5.734375 C 10.28125 -4.722656 10.195312 -3.84375 10.03125 -3.09375 C 9.863281 -2.34375 9.601562 -1.722656 9.25 -1.234375 C 8.539062 -0.222656 7.382812 0.28125 5.78125 0.28125 L 1.1875 0.28125 Z M 1.1875 0" transform="translate(193.972 69.679)"/></g></g></g><g fill="#FE6B8B"><g><g><path d="M 6.421875 -6.1875 L 5.421875 -13.75 L 4.484375 -6.1875 Z M 0.296875 -0.046875 L 3.109375 -19.703125 L 3.140625 -19.9375 L 7.578125 -19.9375 L 7.625 -19.703125 L 10.59375 -0.046875 L 10.640625 0.28125 L 7.28125 0.28125 L 7.25 0.03125 L 6.8125 -3.234375 L 4.125 -3.234375 L 3.734375 0.03125 L 3.703125 0.28125 L 0.25 0.28125 Z M 0.296875 -0.046875" transform="translate(205.191 69.679)"/></g></g></g><g fill="#FF914D"><g><g><path d="M 9.339844 -16.785156 C 8.734375 -16.917969 8.003906 -16.914062 7.164062 -16.789062 C 6.316406 -16.648438 5.339844 -16.335938 4.226562 -15.835938 L 4.21875 -15.820312 C 3.460938 -15.46875 2.859375 -15.117188 2.445312 -14.738281 C 2.027344 -14.359375 1.71875 -14 1.542969 -13.636719 C 1.351562 -13.269531 1.285156 -12.910156 1.3125 -12.574219 C 1.339844 -12.242188 1.4375 -11.9375 1.601562 -11.6875 C 1.742188 -11.460938 1.925781 -11.265625 2.132812 -11.109375 C 2.34375 -10.953125 2.574219 -10.847656 2.816406 -10.792969 C 3.046875 -10.71875 3.265625 -10.707031 3.484375 -10.773438 C 3.691406 -10.828125 3.882812 -10.953125 4.039062 -11.164062 C 3.585938 -11.492188 3.273438 -11.847656 3.140625 -12.238281 C 2.996094 -12.609375 2.980469 -12.992188 3.078125 -13.378906 C 3.164062 -13.746094 3.34375 -14.109375 3.628906 -14.460938 C 3.898438 -14.804688 4.226562 -15.117188 4.601562 -15.390625 C 4.976562 -15.664062 5.359375 -15.882812 5.773438 -16.058594 C 6.175781 -16.226562 6.566406 -16.332031 6.9375 -16.375 C 7.460938 -16.425781 7.902344 -16.335938 8.269531 -16.117188 C 8.621094 -15.890625 8.910156 -15.582031 9.113281 -15.207031 C 9.324219 -14.777344 9.410156 -14.296875 9.367188 -13.789062 C 9.328125 -13.265625 9.195312 -12.765625 8.972656 -12.269531 C 8.777344 -11.839844 8.558594 -11.445312 8.285156 -11.101562 C 8 -10.75 7.714844 -10.46875 7.398438 -10.265625 C 7.109375 -10.070312 6.820312 -9.964844 6.535156 -9.929688 C 6.234375 -9.886719 5.972656 -9.964844 5.722656 -10.175781 C 5.78125 -10.445312 5.839844 -10.714844 5.90625 -10.972656 C 5.96875 -11.230469 6.046875 -11.492188 6.109375 -11.75 C 6.285156 -12.429688 6.496094 -13.050781 6.71875 -13.621094 C 6.9375 -14.1875 7.195312 -14.671875 7.480469 -15.050781 C 7.175781 -14.851562 6.890625 -14.570312 6.640625 -14.207031 C 6.394531 -13.84375 6.148438 -13.4375 5.925781 -12.96875 C 5.695312 -12.496094 5.464844 -11.980469 5.261719 -11.4375 C 5.0625 -10.890625 4.855469 -10.355469 4.652344 -9.8125 C 4.441406 -9.261719 4.234375 -8.726562 4.023438 -8.207031 C 3.808594 -7.683594 3.574219 -7.222656 3.34375 -6.8125 C 3.109375 -6.378906 2.859375 -6.015625 2.589844 -5.730469 C 2.3125 -5.4375 2.019531 -5.242188 1.691406 -5.164062 C 1.414062 -5.074219 1.171875 -5.101562 0.953125 -5.210938 C 0.734375 -5.320312 0.535156 -5.480469 0.371094 -5.699219 C 0.199219 -5.902344 0.0546875 -6.140625 -0.0585938 -6.410156 C -0.171875 -6.679688 -0.261719 -6.929688 -0.316406 -7.195312 C -0.5625 -6.890625 -0.777344 -6.582031 -0.953125 -6.25 C -1.128906 -5.914062 -1.277344 -5.578125 -1.382812 -5.21875 C -1.5 -4.851562 -1.574219 -4.476562 -1.585938 -4.097656 C -1.609375 -3.710938 -1.585938 -3.347656 -1.492188 -2.984375 C -1.398438 -2.5625 -1.226562 -2.1875 -1 -1.851562 C -0.769531 -1.515625 -0.472656 -1.253906 -0.140625 -1.078125 C 0.1875 -0.886719 0.5625 -0.785156 0.976562 -0.757812 C 1.390625 -0.730469 1.835938 -0.832031 2.324219 -1.039062 C 2.667969 -1.183594 2.96875 -1.457031 3.257812 -1.863281 C 3.527344 -2.253906 3.769531 -2.730469 3.992188 -3.296875 C 4.210938 -3.867188 4.40625 -4.496094 4.582031 -5.203125 C 4.753906 -5.894531 4.925781 -6.613281 5.089844 -7.347656 C 5.257812 -8.078125 5.421875 -8.839844 5.589844 -9.601562 C 5.621094 -9.671875 5.625 -9.761719 5.644531 -9.855469 C 5.71875 -9.570312 5.855469 -9.355469 6.050781 -9.191406 C 6.253906 -9.019531 6.488281 -8.914062 6.742188 -8.851562 C 7.070312 -8.757812 7.410156 -8.742188 7.78125 -8.8125 C 8.15625 -8.886719 8.503906 -9.015625 8.8125 -9.234375 C 9.285156 -9.550781 9.710938 -9.902344 10.0625 -10.296875 C 10.421875 -10.675781 10.722656 -11.089844 10.96875 -11.527344 C 11.289062 -12.066406 11.484375 -12.625 11.582031 -13.183594 C 11.664062 -13.734375 11.640625 -14.273438 11.515625 -14.765625 C 11.382812 -15.257812 11.132812 -15.671875 10.777344 -16.039062 C 10.425781 -16.394531 9.949219 -16.640625 9.339844 -16.785156 Z M 9.339844 -16.785156" transform="translate(166.343 42.64)"/></g></g></g><g fill="#FF914D"><g><g><path d="M 0.0507812 -5.261719 L -1.054688 0.402344 L 0.632812 -0.308594 L 1.433594 -5.269531 C 1.488281 -5.609375 1.613281 -5.964844 1.785156 -6.339844 C 1.832031 -6.433594 1.894531 -6.558594 1.984375 -6.726562 C 2.078125 -6.878906 2.175781 -7.050781 2.304688 -7.222656 C 2.425781 -7.386719 2.550781 -7.527344 2.679688 -7.667969 C 2.808594 -7.808594 2.9375 -7.90625 3.085938 -7.96875 C 3.226562 -8.011719 3.359375 -8 3.476562 -7.929688 C 3.59375 -7.851562 3.703125 -7.695312 3.808594 -7.453125 C 3.859375 -7.332031 3.851562 -7.210938 3.808594 -7.078125 C 3.761719 -6.945312 3.691406 -6.84375 3.589844 -6.742188 C 3.488281 -6.640625 3.367188 -6.546875 3.222656 -6.484375 C 3.074219 -6.421875 2.925781 -6.402344 2.773438 -6.425781 C 2.78125 -6.199219 2.8125 -6.023438 2.863281 -5.902344 C 2.914062 -5.78125 3 -5.6875 3.089844 -5.636719 C 3.175781 -5.574219 3.273438 -5.542969 3.375 -5.542969 C 3.476562 -5.542969 3.570312 -5.554688 3.671875 -5.59375 C 3.898438 -5.664062 4.082031 -5.78125 4.222656 -5.988281 C 4.355469 -6.1875 4.449219 -6.414062 4.507812 -6.683594 C 4.558594 -6.933594 4.574219 -7.199219 4.546875 -7.476562 C 4.515625 -7.75 4.453125 -8 4.355469 -8.230469 C 4.25 -8.445312 4.113281 -8.632812 3.953125 -8.78125 C 3.777344 -8.921875 3.574219 -8.996094 3.347656 -8.984375 C 3.125 -8.964844 2.90625 -8.871094 2.710938 -8.71875 C 2.523438 -8.550781 2.339844 -8.371094 2.183594 -8.164062 C 2.019531 -7.9375 1.875 -7.703125 1.738281 -7.472656 C 1.613281 -7.230469 1.507812 -7.03125 1.421875 -6.863281 C 1.363281 -7.167969 1.261719 -7.414062 1.125 -7.601562 C 0.992188 -7.777344 0.8125 -7.859375 0.605469 -7.84375 C 0.441406 -7.816406 0.265625 -7.726562 0.0703125 -7.574219 C -0.125 -7.417969 -0.339844 -7.183594 -0.570312 -6.871094 C -0.402344 -6.753906 -0.285156 -6.644531 -0.1875 -6.542969 C -0.0859375 -6.441406 -0.0234375 -6.324219 0.03125 -6.203125 C 0.0703125 -6.074219 0.0898438 -5.925781 0.09375 -5.785156 C 0.0859375 -5.621094 0.078125 -5.445312 0.0507812 -5.261719 Z M -0.585938 -6.878906 L -0.59375 -6.832031 L -0.570312 -6.871094 Z M -0.585938 -6.878906" transform="translate(176.484 38.358)"/></g></g></g><g fill="#FF914D"><g><g><path d="M 0.816406 -0.417969 C 1.140625 -0.46875 1.433594 -0.589844 1.710938 -0.792969 C 1.984375 -0.996094 2.242188 -1.234375 2.476562 -1.535156 C 2.703125 -1.816406 2.902344 -2.132812 3.089844 -2.46875 C 3.277344 -2.808594 3.441406 -3.167969 3.574219 -3.539062 C 3.699219 -3.894531 3.804688 -4.253906 3.898438 -4.613281 C 3.980469 -4.964844 4.046875 -5.28125 4.089844 -5.585938 C 3.789062 -4.738281 3.453125 -4.09375 3.117188 -3.664062 C 2.78125 -3.234375 2.457031 -2.980469 2.152344 -2.910156 C 1.84375 -2.824219 1.601562 -2.921875 1.394531 -3.210938 C 1.191406 -3.484375 1.078125 -3.925781 1.058594 -4.519531 C 1.054688 -4.664062 1.050781 -4.804688 1.050781 -4.949219 C 1.050781 -5.078125 1.066406 -5.214844 1.082031 -5.351562 C 1.136719 -5.085938 1.242188 -4.929688 1.394531 -4.878906 C 1.535156 -4.824219 1.707031 -4.824219 1.890625 -4.902344 L 1.867188 -4.847656 C 2.222656 -4.96875 2.523438 -5.210938 2.75 -5.554688 C 2.988281 -5.882812 3.136719 -6.246094 3.226562 -6.644531 C 3.261719 -6.804688 3.273438 -7.011719 3.277344 -7.273438 C 3.285156 -7.535156 3.257812 -7.765625 3.1875 -7.996094 C 3.125 -8.214844 3.011719 -8.382812 2.871094 -8.511719 C 2.722656 -8.621094 2.515625 -8.636719 2.261719 -8.554688 C 1.839844 -8.394531 1.460938 -8.132812 1.144531 -7.796875 C 0.824219 -7.460938 0.539062 -7.078125 0.308594 -6.667969 C 0.0742188 -6.234375 -0.113281 -5.796875 -0.269531 -5.34375 C -0.417969 -4.875 -0.515625 -4.460938 -0.585938 -4.085938 C -0.691406 -3.550781 -0.75 -3.039062 -0.746094 -2.550781 C -0.753906 -2.058594 -0.679688 -1.640625 -0.523438 -1.304688 C -0.355469 -0.914062 -0.148438 -0.65625 0.0820312 -0.523438 C 0.308594 -0.390625 0.550781 -0.363281 0.816406 -0.417969 Z M 1.558594 -5.480469 C 1.398438 -5.414062 1.277344 -5.464844 1.203125 -5.605469 C 1.117188 -5.742188 1.136719 -5.964844 1.242188 -6.296875 C 1.375 -6.769531 1.550781 -7.132812 1.777344 -7.386719 C 1.992188 -7.621094 2.195312 -7.792969 2.367188 -7.894531 L 2.378906 -7.902344 C 2.648438 -8.015625 2.792969 -7.945312 2.816406 -7.683594 C 2.820312 -7.539062 2.796875 -7.386719 2.757812 -7.210938 C 2.714844 -7.035156 2.652344 -6.847656 2.582031 -6.675781 C 2.4375 -6.328125 2.265625 -6.054688 2.074219 -5.859375 C 1.878906 -5.644531 1.714844 -5.519531 1.558594 -5.480469 Z M 1.738281 -10.882812 L 1.023438 -8.25 L 1.925781 -8.632812 L 3.230469 -11.511719 Z M 1.738281 -10.882812" transform="translate(181.823 36.103)"/></g></g></g><g fill="#FF914D"><g><g><path d="M -1.363281 -5.886719 L -1.765625 -4.078125 L 3.464844 -6.285156 L 3.890625 -8.105469 Z M -1.363281 -5.886719" transform="translate(186.258 34.231)"/></g></g></g><g fill="#FF914D"><g><g><path d="M 0.921875 -0.402344 C 1.121094 -0.546875 1.292969 -0.71875 1.433594 -0.9375 C 1.578125 -1.140625 1.691406 -1.378906 1.785156 -1.632812 C 1.886719 -1.875 1.972656 -2.113281 2.058594 -2.351562 C 2.132812 -2.585938 2.222656 -2.882812 2.304688 -3.234375 C 2.378906 -3.566406 2.449219 -3.914062 2.53125 -4.265625 C 2.613281 -4.617188 2.691406 -4.949219 2.757812 -5.265625 C 2.777344 -5.421875 2.804688 -5.5625 2.839844 -5.691406 C 2.871094 -5.820312 2.898438 -5.917969 2.929688 -6.015625 L 3.226562 -5.898438 L 3.0625 -6.488281 C 3.160156 -6.933594 3.234375 -7.3125 3.257812 -7.625 C 3.277344 -7.921875 3.269531 -8.175781 3.242188 -8.378906 C 3.207031 -8.566406 3.144531 -8.714844 3.078125 -8.800781 C 3 -8.882812 2.914062 -8.917969 2.832031 -8.910156 C 2.710938 -8.890625 2.597656 -8.8125 2.488281 -8.667969 C 2.378906 -8.519531 2.300781 -8.328125 2.261719 -8.082031 C 2.207031 -7.828125 2.21875 -7.53125 2.269531 -7.207031 C 2.320312 -6.882812 2.46875 -6.527344 2.695312 -6.164062 C 2.6875 -6.117188 2.683594 -6.054688 2.667969 -5.992188 C 2.640625 -5.921875 2.621094 -5.828125 2.601562 -5.734375 C 2.554688 -5.511719 2.484375 -5.265625 2.425781 -4.996094 C 2.359375 -4.710938 2.28125 -4.417969 2.195312 -4.109375 C 2.101562 -3.78125 2.019531 -3.5 1.925781 -3.246094 C 1.832031 -2.992188 1.730469 -2.789062 1.636719 -2.636719 C 1.539062 -2.464844 1.4375 -2.390625 1.34375 -2.410156 L 1.339844 -2.421875 C 1.253906 -2.414062 1.1875 -2.503906 1.175781 -2.671875 C 1.15625 -2.820312 1.164062 -3.011719 1.175781 -3.246094 C 1.199219 -3.472656 1.230469 -3.730469 1.28125 -4.023438 L 1.425781 -4.90625 L 1.574219 -5.746094 C 1.59375 -5.871094 1.617188 -5.996094 1.621094 -6.113281 C 1.628906 -6.230469 1.632812 -6.332031 1.644531 -6.4375 C 1.652344 -6.558594 1.640625 -6.683594 1.613281 -6.816406 C 1.585938 -6.945312 1.546875 -7.074219 1.496094 -7.195312 C 1.445312 -7.320312 1.375 -7.417969 1.285156 -7.523438 C 1.203125 -7.621094 1.101562 -7.691406 0.992188 -7.746094 C 0.710938 -7.859375 0.339844 -7.789062 -0.105469 -7.542969 C 0.0078125 -7.417969 0.101562 -7.296875 0.152344 -7.175781 C 0.238281 -6.96875 0.25 -6.742188 0.175781 -6.507812 C 0.128906 -6.375 0.0898438 -6.230469 0.0507812 -6.054688 L -0.847656 -2.320312 C -0.878906 -2.25 -0.898438 -2.199219 -0.902344 -2.136719 C -0.917969 -2.074219 -0.933594 -2.007812 -0.949219 -1.945312 C -0.972656 -1.792969 -0.996094 -1.609375 -0.996094 -1.40625 C -1 -1.207031 -0.976562 -1.011719 -0.90625 -0.855469 C -0.78125 -0.519531 -0.5625 -0.308594 -0.261719 -0.207031 C -0.121094 -0.152344 0.0703125 -0.144531 0.296875 -0.152344 C 0.523438 -0.164062 0.730469 -0.25 0.921875 -0.402344 Z M 0.921875 -0.402344" transform="translate(191.12 32.178)"/></g></g></g><g fill="#FF914D"><g><g><path d="M 0.816406 -0.417969 C 1.140625 -0.46875 1.433594 -0.589844 1.710938 -0.792969 C 1.984375 -0.996094 2.242188 -1.234375 2.476562 -1.535156 C 2.703125 -1.816406 2.902344 -2.132812 3.089844 -2.46875 C 3.277344 -2.808594 3.441406 -3.167969 3.574219 -3.539062 C 3.699219 -3.894531 3.804688 -4.253906 3.898438 -4.613281 C 3.980469 -4.964844 4.046875 -5.28125 4.089844 -5.585938 C 3.789062 -4.738281 3.453125 -4.09375 3.117188 -3.664062 C 2.78125 -3.234375 2.457031 -2.980469 2.152344 -2.910156 C 1.84375 -2.824219 1.601562 -2.921875 1.394531 -3.210938 C 1.191406 -3.484375 1.078125 -3.925781 1.058594 -4.519531 C 1.054688 -4.664062 1.050781 -4.804688 1.050781 -4.949219 C 1.050781 -5.078125 1.066406 -5.214844 1.082031 -5.351562 C 1.136719 -5.085938 1.242188 -4.929688 1.394531 -4.878906 C 1.535156 -4.824219 1.707031 -4.824219 1.890625 -4.902344 L 1.867188 -4.847656 C 2.222656 -4.96875 2.523438 -5.210938 2.75 -5.554688 C 2.988281 -5.882812 3.136719 -6.246094 3.226562 -6.644531 C 3.261719 -6.804688 3.273438 -7.011719 3.277344 -7.273438 C 3.285156 -7.535156 3.257812 -7.765625 3.1875 -7.996094 C 3.125 -8.214844 3.011719 -8.382812 2.871094 -8.511719 C 2.722656 -8.621094 2.515625 -8.636719 2.261719 -8.554688 C 1.839844 -8.394531 1.460938 -8.132812 1.144531 -7.796875 C 0.824219 -7.460938 0.539062 -7.078125 0.308594 -6.667969 C 0.0742188 -6.234375 -0.113281 -5.796875 -0.269531 -5.34375 C -0.417969 -4.875 -0.515625 -4.460938 -0.585938 -4.085938 C -0.691406 -3.550781 -0.75 -3.039062 -0.746094 -2.550781 C -0.753906 -2.058594 -0.679688 -1.640625 -0.523438 -1.304688 C -0.355469 -0.914062 -0.148438 -0.65625 0.0820312 -0.523438 C 0.308594 -0.390625 0.550781 -0.363281 0.816406 -0.417969 Z M 1.558594 -5.480469 C 1.398438 -5.414062 1.277344 -5.464844 1.203125 -5.605469 C 1.117188 -5.742188 1.136719 -5.964844 1.242188 -6.296875 C 1.375 -6.769531 1.550781 -7.132812 1.777344 -7.386719 C 1.992188 -7.621094 2.195312 -7.792969 2.367188 -7.894531 L 2.378906 -7.902344 C 2.648438 -8.015625 2.792969 -7.945312 2.816406 -7.683594 C 2.820312 -7.539062 2.796875 -7.386719 2.757812 -7.210938 C 2.714844 -7.035156 2.652344 -6.847656 2.582031 -6.675781 C 2.4375 -6.328125 2.265625 -6.054688 2.074219 -5.859375 C 1.878906 -5.644531 1.714844 -5.519531 1.558594 -5.480469 Z M 1.558594 -5.480469" transform="translate(195.299 30.414)"/></g></g></g><g fill="#FF914D"><g><g><path d="M -0.0976562 -5.171875 L -1.199219 0.503906 L 0.488281 -0.207031 C 0.722656 -1.628906 0.917969 -2.804688 1.0625 -3.757812 C 1.207031 -4.714844 1.34375 -5.476562 1.484375 -6.066406 C 1.617188 -6.640625 1.761719 -7.078125 1.929688 -7.363281 C 2.101562 -7.640625 2.308594 -7.828125 2.570312 -7.925781 C 2.742188 -7.96875 2.875 -7.953125 2.976562 -7.851562 C 3.078125 -7.75 3.109375 -7.605469 3.054688 -7.394531 L 2.277344 -4.257812 C 2.230469 -4.09375 2.195312 -3.90625 2.140625 -3.695312 C 2.089844 -3.472656 2.0625 -3.261719 2.039062 -3.050781 C 2.003906 -2.820312 1.996094 -2.601562 2.015625 -2.390625 C 2.03125 -2.183594 2.078125 -2 2.167969 -1.851562 C 2.253906 -1.6875 2.375 -1.566406 2.550781 -1.496094 C 2.730469 -1.410156 2.964844 -1.394531 3.261719 -1.449219 C 3.453125 -1.472656 3.648438 -1.554688 3.832031 -1.660156 C 4.019531 -1.769531 4.164062 -1.902344 4.289062 -2.085938 C 4.417969 -2.253906 4.527344 -2.472656 4.636719 -2.722656 C 4.738281 -2.964844 4.839844 -3.238281 4.933594 -3.523438 C 5.023438 -3.789062 5.097656 -4.054688 5.167969 -4.328125 C 5.234375 -4.585938 5.304688 -4.832031 5.351562 -5.054688 C 5.296875 -4.984375 5.234375 -4.886719 5.179688 -4.777344 C 5.152344 -4.710938 5.132812 -4.65625 5.097656 -4.601562 C 5.066406 -4.542969 5.03125 -4.484375 5.011719 -4.433594 C 4.941406 -4.320312 4.875 -4.203125 4.800781 -4.113281 C 4.722656 -4.023438 4.632812 -3.957031 4.535156 -3.917969 C 4.390625 -3.855469 4.285156 -3.898438 4.230469 -4.0625 C 4.175781 -4.195312 4.15625 -4.40625 4.175781 -4.699219 C 4.195312 -4.96875 4.238281 -5.273438 4.289062 -5.625 C 4.347656 -5.96875 4.40625 -6.308594 4.460938 -6.648438 C 4.511719 -6.972656 4.5625 -7.265625 4.589844 -7.539062 C 4.625 -7.796875 4.632812 -7.988281 4.609375 -8.109375 C 4.542969 -8.339844 4.46875 -8.507812 4.359375 -8.636719 C 4.246094 -8.761719 4.136719 -8.859375 3.996094 -8.914062 C 3.695312 -9.015625 3.402344 -9.023438 3.117188 -8.945312 C 2.835938 -8.871094 2.5625 -8.726562 2.335938 -8.515625 C 2.097656 -8.300781 1.890625 -8.039062 1.707031 -7.71875 C 1.53125 -7.382812 1.402344 -7.042969 1.308594 -6.65625 C 1.261719 -7.039062 1.183594 -7.324219 1.058594 -7.515625 C 0.941406 -7.695312 0.761719 -7.777344 0.523438 -7.765625 C 0.359375 -7.738281 0.183594 -7.648438 -0.0117188 -7.496094 C -0.21875 -7.335938 -0.441406 -7.082031 -0.675781 -6.753906 L -0.734375 -6.789062 C -0.414062 -6.578125 -0.214844 -6.34375 -0.117188 -6.113281 C -0.078125 -5.984375 -0.0585938 -5.835938 -0.0546875 -5.691406 C -0.0625 -5.53125 -0.0703125 -5.355469 -0.0976562 -5.171875 Z M -0.0976562 -5.171875" transform="translate(199.733 28.541)"/></g></g></g><g fill="#FF914D"><g><g><path d="M 0.53125 -0.339844 C 0.777344 -0.445312 1.027344 -0.636719 1.265625 -0.921875 C 1.503906 -1.210938 1.726562 -1.535156 1.917969 -1.902344 C 2.101562 -2.253906 2.25 -2.621094 2.378906 -2.992188 C 2.511719 -3.363281 2.589844 -3.683594 2.609375 -3.980469 C 2.71875 -3.175781 2.882812 -2.613281 3.113281 -2.308594 C 3.359375 -1.964844 3.628906 -1.804688 3.902344 -1.835938 C 4.144531 -1.851562 4.394531 -1.96875 4.636719 -2.214844 C 4.882812 -2.449219 5.117188 -2.78125 5.320312 -3.183594 C 5.519531 -3.566406 5.683594 -4.027344 5.804688 -4.566406 C 5.925781 -5.09375 5.972656 -5.660156 5.976562 -6.265625 L 5.921875 -6.128906 C 5.894531 -6.058594 5.851562 -5.984375 5.808594 -5.878906 C 5.753906 -5.769531 5.707031 -5.648438 5.652344 -5.539062 C 5.585938 -5.425781 5.523438 -5.296875 5.457031 -5.183594 C 5.308594 -4.917969 5.167969 -4.671875 5.027344 -4.457031 C 4.878906 -4.234375 4.75 -4.09375 4.640625 -4.046875 C 4.554688 -3.980469 4.484375 -4.007812 4.457031 -4.140625 C 4.414062 -4.238281 4.417969 -4.472656 4.476562 -4.8125 L 6.507812 -14.421875 C 6.351562 -14.386719 6.214844 -14.429688 6.117188 -14.53125 C 6.015625 -14.632812 5.910156 -14.746094 5.820312 -14.894531 C 5.71875 -15.027344 5.621094 -15.15625 5.511719 -15.285156 C 5.398438 -15.410156 5.28125 -15.488281 5.128906 -15.511719 L 5.140625 -15.472656 C 5.082031 -15.203125 4.996094 -14.863281 4.910156 -14.453125 C 4.824219 -14.042969 4.730469 -13.585938 4.628906 -13.113281 C 4.578125 -12.859375 4.519531 -12.621094 4.46875 -12.367188 C 4.414062 -12.113281 4.363281 -11.863281 4.3125 -11.609375 C 4.253906 -11.339844 4.199219 -11.089844 4.148438 -10.835938 C 4.085938 -10.578125 4.027344 -10.339844 3.984375 -10.105469 C 3.878906 -9.597656 3.78125 -9.152344 3.683594 -8.769531 L 3.453125 -7.75 C 3.441406 -7.773438 3.4375 -7.816406 3.417969 -7.863281 L 3.359375 -8 C 3.324219 -8.082031 3.277344 -8.164062 3.210938 -8.25 C 3.144531 -8.339844 3.085938 -8.414062 2.996094 -8.492188 C 2.910156 -8.554688 2.792969 -8.59375 2.652344 -8.621094 C 2.503906 -8.628906 2.339844 -8.605469 2.140625 -8.535156 C 1.71875 -8.371094 1.328125 -8.105469 0.984375 -7.757812 C 0.640625 -7.410156 0.335938 -7.007812 0.0859375 -6.585938 C -0.175781 -6.144531 -0.390625 -5.695312 -0.554688 -5.238281 C -0.734375 -4.773438 -0.84375 -4.351562 -0.914062 -3.976562 C -1.019531 -3.441406 -1.078125 -2.929688 -1.074219 -2.441406 C -1.082031 -1.949219 -1.007812 -1.53125 -0.851562 -1.195312 C -0.65625 -0.730469 -0.445312 -0.445312 -0.199219 -0.332031 C 0.0390625 -0.21875 0.28125 -0.21875 0.53125 -0.339844 Z M 1.300781 -3.429688 C 1.148438 -3.378906 1.027344 -3.429688 0.90625 -3.578125 C 0.851562 -3.640625 0.800781 -3.765625 0.761719 -3.921875 C 0.726562 -4.078125 0.695312 -4.253906 0.695312 -4.453125 C 0.699219 -4.65625 0.691406 -4.871094 0.714844 -5.09375 C 0.734375 -5.320312 0.757812 -5.53125 0.816406 -5.742188 C 0.90625 -6.140625 1.023438 -6.476562 1.160156 -6.765625 C 1.296875 -7.054688 1.460938 -7.28125 1.625 -7.46875 C 1.785156 -7.636719 1.953125 -7.75 2.117188 -7.804688 C 2.285156 -7.847656 2.414062 -7.785156 2.496094 -7.589844 C 2.585938 -7.382812 2.5625 -7.027344 2.421875 -6.535156 C 2.625 -6.566406 2.777344 -6.613281 2.878906 -6.714844 C 2.988281 -6.804688 3.101562 -6.9375 3.230469 -7.109375 L 3.25 -7.101562 C 3.144531 -6.742188 3.03125 -6.359375 2.910156 -5.964844 C 2.777344 -5.5625 2.628906 -5.199219 2.46875 -4.859375 C 2.304688 -4.5 2.121094 -4.179688 1.929688 -3.921875 C 1.734375 -3.667969 1.53125 -3.496094 1.300781 -3.429688 Z M 1.300781 -3.429688" transform="translate(205.463 26.122)"/></g></g></g><g fill="#FF914D"><g><g><path d="M 3.851562 -1.753906 L 3.816406 -1.699219 C 4.160156 -1.84375 4.460938 -2.085938 4.726562 -2.441406 C 4.988281 -2.78125 5.222656 -3.183594 5.410156 -3.621094 C 5.589844 -4.046875 5.734375 -4.492188 5.855469 -4.949219 C 5.980469 -5.40625 6.0625 -5.828125 6.109375 -6.191406 C 6.09375 -6.160156 6.078125 -6.136719 6.050781 -6.097656 C 6.023438 -6.054688 6.003906 -6.003906 5.96875 -5.945312 C 5.898438 -5.800781 5.820312 -5.652344 5.726562 -5.5 C 5.636719 -5.332031 5.539062 -5.160156 5.425781 -4.984375 C 5.191406 -4.582031 4.988281 -4.28125 4.785156 -4.078125 C 4.6875 -3.964844 4.597656 -3.914062 4.523438 -3.910156 C 4.453125 -3.910156 4.410156 -3.976562 4.394531 -4.117188 C 4.367188 -4.25 4.394531 -4.492188 4.464844 -4.808594 L 5.496094 -9.894531 L 3.773438 -9.167969 L 3.46875 -7.710938 C 3.363281 -7.957031 3.246094 -8.136719 3.085938 -8.269531 C 2.933594 -8.394531 2.773438 -8.46875 2.585938 -8.503906 C 2.390625 -8.523438 2.1875 -8.496094 1.980469 -8.4375 C 1.78125 -8.367188 1.570312 -8.25 1.371094 -8.109375 C 1.21875 -7.988281 1.054688 -7.832031 0.898438 -7.621094 C 0.742188 -7.410156 0.59375 -7.1875 0.445312 -6.925781 C 0.296875 -6.660156 0.148438 -6.367188 0.0078125 -6.050781 C -0.132812 -5.730469 -0.257812 -5.417969 -0.375 -5.082031 C -0.519531 -4.675781 -0.640625 -4.277344 -0.730469 -3.878906 C -0.828125 -3.464844 -0.894531 -3.078125 -0.9375 -2.699219 C -0.96875 -2.425781 -0.96875 -2.125 -0.917969 -1.800781 C -0.867188 -1.476562 -0.792969 -1.191406 -0.660156 -0.945312 C -0.53125 -0.683594 -0.367188 -0.492188 -0.167969 -0.363281 C 0.03125 -0.230469 0.28125 -0.21875 0.585938 -0.347656 C 1.003906 -0.523438 1.40625 -0.796875 1.761719 -1.175781 C 1.933594 -1.351562 2.085938 -1.542969 2.214844 -1.742188 C 2.347656 -1.941406 2.445312 -2.15625 2.5 -2.367188 C 2.59375 -2.074219 2.765625 -1.871094 3.019531 -1.75 C 3.261719 -1.621094 3.535156 -1.621094 3.851562 -1.753906 Z M 1.15625 -2.445312 C 1.019531 -2.460938 0.90625 -2.527344 0.808594 -2.660156 C 0.707031 -2.789062 0.65625 -2.984375 0.628906 -3.246094 C 0.597656 -3.492188 0.613281 -3.800781 0.675781 -4.199219 C 0.742188 -4.589844 0.859375 -5.054688 1.03125 -5.605469 C 1.105469 -5.835938 1.179688 -6.070312 1.277344 -6.3125 C 1.367188 -6.550781 1.476562 -6.769531 1.585938 -6.988281 C 1.6875 -7.191406 1.8125 -7.371094 1.964844 -7.523438 C 2.101562 -7.667969 2.277344 -7.769531 2.472656 -7.851562 C 2.585938 -7.886719 2.6875 -7.886719 2.773438 -7.851562 C 2.855469 -7.800781 2.925781 -7.730469 3 -7.628906 C 3.058594 -7.523438 3.109375 -7.402344 3.144531 -7.246094 C 3.183594 -7.089844 3.222656 -6.929688 3.238281 -6.753906 L 3.25 -6.757812 L 2.722656 -4.460938 C 2.6875 -4.273438 2.621094 -4.058594 2.546875 -3.824219 C 2.460938 -3.585938 2.355469 -3.355469 2.230469 -3.144531 C 2.09375 -2.914062 1.941406 -2.734375 1.765625 -2.601562 C 1.585938 -2.453125 1.378906 -2.394531 1.15625 -2.445312 Z M 1.15625 -2.445312" transform="translate(211.975 23.373)"/></g></g></g><g fill="#FFDE59"><g><g><path d="M 9.339844 -16.785156 C 8.734375 -16.917969 8.003906 -16.914062 7.164062 -16.789062 C 6.316406 -16.648438 5.339844 -16.335938 4.226562 -15.835938 L 4.21875 -15.820312 C 3.460938 -15.46875 2.859375 -15.117188 2.445312 -14.738281 C 2.027344 -14.359375 1.71875 -14 1.542969 -13.636719 C 1.351562 -13.269531 1.285156 -12.910156 1.3125 -12.574219 C 1.339844 -12.242188 1.4375 -11.9375 1.601562 -11.6875 C 1.742188 -11.460938 1.925781 -11.265625 2.132812 -11.109375 C 2.34375 -10.953125 2.574219 -10.847656 2.816406 -10.792969 C 3.046875 -10.71875 3.265625 -10.707031 3.484375 -10.773438 C 3.691406 -10.828125 3.882812 -10.953125 4.039062 -11.164062 C 3.585938 -11.492188 3.273438 -11.847656 3.140625 -12.238281 C 2.996094 -12.609375 2.980469 -12.992188 3.078125 -13.378906 C 3.164062 -13.746094 3.34375 -14.109375 3.628906 -14.460938 C 3.898438 -14.804688 4.226562 -15.117188 4.601562 -15.390625 C 4.976562 -15.664062 5.359375 -15.882812 5.773438 -16.058594 C 6.175781 -16.226562 6.566406 -16.332031 6.9375 -16.375 C 7.460938 -16.425781 7.902344 -16.335938 8.269531 -16.117188 C 8.621094 -15.890625 8.910156 -15.582031 9.113281 -15.207031 C 9.324219 -14.777344 9.410156 -14.296875 9.367188 -13.789062 C 9.328125 -13.265625 9.195312 -12.765625 8.972656 -12.269531 C 8.777344 -11.839844 8.558594 -11.445312 8.285156 -11.101562 C 8 -10.75 7.714844 -10.46875 7.398438 -10.265625 C 7.109375 -10.070312 6.820312 -9.964844 6.535156 -9.929688 C 6.234375 -9.886719 5.972656 -9.964844 5.722656 -10.175781 C 5.78125 -10.445312 5.839844 -10.714844 5.90625 -10.972656 C 5.96875 -11.230469 6.046875 -11.492188 6.109375 -11.75 C 6.285156 -12.429688 6.496094 -13.050781 6.71875 -13.621094 C 6.9375 -14.1875 7.195312 -14.671875 7.480469 -15.050781 C 7.175781 -14.851562 6.890625 -14.570312 6.640625 -14.207031 C 6.394531 -13.84375 6.148438 -13.4375 5.925781 -12.96875 C 5.695312 -12.496094 5.464844 -11.980469 5.261719 -11.4375 C 5.0625 -10.890625 4.855469 -10.355469 4.652344 -9.8125 C 4.441406 -9.261719 4.234375 -8.726562 4.023438 -8.207031 C 3.808594 -7.683594 3.574219 -7.222656 3.34375 -6.8125 C 3.109375 -6.378906 2.859375 -6.015625 2.589844 -5.730469 C 2.3125 -5.4375 2.019531 -5.242188 1.691406 -5.164062 C 1.414062 -5.074219 1.171875 -5.101562 0.953125 -5.210938 C 0.734375 -5.320312 0.535156 -5.480469 0.371094 -5.699219 C 0.199219 -5.902344 0.0546875 -6.140625 -0.0585938 -6.410156 C -0.171875 -6.679688 -0.261719 -6.929688 -0.316406 -7.195312 C -0.5625 -6.890625 -0.777344 -6.582031 -0.953125 -6.25 C -1.128906 -5.914062 -1.277344 -5.578125 -1.382812 -5.21875 C -1.5 -4.851562 -1.574219 -4.476562 -1.585938 -4.097656 C -1.609375 -3.710938 -1.585938 -3.347656 -1.492188 -2.984375 C -1.398438 -2.5625 -1.226562 -2.1875 -1 -1.851562 C -0.769531 -1.515625 -0.472656 -1.253906 -0.140625 -1.078125 C 0.1875 -0.886719 0.5625 -0.785156 0.976562 -0.757812 C 1.390625 -0.730469 1.835938 -0.832031 2.324219 -1.039062 C 2.667969 -1.183594 2.96875 -1.457031 3.257812 -1.863281 C 3.527344 -2.253906 3.769531 -2.730469 3.992188 -3.296875 C 4.210938 -3.867188 4.40625 -4.496094 4.582031 -5.203125 C 4.753906 -5.894531 4.925781 -6.613281 5.089844 -7.347656 C 5.257812 -8.078125 5.421875 -8.839844 5.589844 -9.601562 C 5.621094 -9.671875 5.625 -9.761719 5.644531 -9.855469 C 5.71875 -9.570312 5.855469 -9.355469 6.050781 -9.191406 C 6.253906 -9.019531 6.488281 -8.914062 6.742188 -8.851562 C 7.070312 -8.757812 7.410156 -8.742188 7.78125 -8.8125 C 8.15625 -8.886719 8.503906 -9.015625 8.8125 -9.234375 C 9.285156 -9.550781 9.710938 -9.902344 10.0625 -10.296875 C 10.421875 -10.675781 10.722656 -11.089844 10.96875 -11.527344 C 11.289062 -12.066406 11.484375 -12.625 11.582031 -13.183594 C 11.664062 -13.734375 11.640625 -14.273438 11.515625 -14.765625 C 11.382812 -15.257812 11.132812 -15.671875 10.777344 -16.039062 C 10.425781 -16.394531 9.949219 -16.640625 9.339844 -16.785156 Z M 9.339844 -16.785156" transform="translate(166.568 42.352)"/></g></g></g><g fill="#FFDE59"><g><g><path d="M 0.0507812 -5.261719 L -1.054688 0.402344 L 0.632812 -0.308594 L 1.433594 -5.269531 C 1.488281 -5.609375 1.613281 -5.964844 1.785156 -6.339844 C 1.832031 -6.433594 1.894531 -6.558594 1.984375 -6.726562 C 2.078125 -6.878906 2.175781 -7.050781 2.304688 -7.222656 C 2.425781 -7.386719 2.550781 -7.527344 2.679688 -7.667969 C 2.808594 -7.808594 2.9375 -7.90625 3.085938 -7.96875 C 3.226562 -8.011719 3.359375 -8 3.476562 -7.929688 C 3.59375 -7.851562 3.703125 -7.695312 3.808594 -7.453125 C 3.859375 -7.332031 3.851562 -7.210938 3.808594 -7.078125 C 3.761719 -6.945312 3.691406 -6.84375 3.589844 -6.742188 C 3.488281 -6.640625 3.367188 -6.546875 3.222656 -6.484375 C 3.074219 -6.421875 2.925781 -6.402344 2.773438 -6.425781 C 2.78125 -6.199219 2.8125 -6.023438 2.863281 -5.902344 C 2.914062 -5.78125 3 -5.6875 3.089844 -5.636719 C 3.175781 -5.574219 3.273438 -5.542969 3.375 -5.542969 C 3.476562 -5.542969 3.570312 -5.554688 3.671875 -5.59375 C 3.898438 -5.664062 4.082031 -5.78125 4.222656 -5.988281 C 4.355469 -6.1875 4.449219 -6.414062 4.507812 -6.683594 C 4.558594 -6.933594 4.574219 -7.199219 4.546875 -7.476562 C 4.515625 -7.75 4.453125 -8 4.355469 -8.230469 C 4.25 -8.445312 4.113281 -8.632812 3.953125 -8.78125 C 3.777344 -8.921875 3.574219 -8.996094 3.347656 -8.984375 C 3.125 -8.964844 2.90625 -8.871094 2.710938 -8.71875 C 2.523438 -8.550781 2.339844 -8.371094 2.183594 -8.164062 C 2.019531 -7.9375 1.875 -7.703125 1.738281 -7.472656 C 1.613281 -7.230469 1.507812 -7.03125 1.421875 -6.863281 C 1.363281 -7.167969 1.261719 -7.414062 1.125 -7.601562 C 0.992188 -7.777344 0.8125 -7.859375 0.605469 -7.84375 C 0.441406 -7.816406 0.265625 -7.726562 0.0703125 -7.574219 C -0.125 -7.417969 -0.339844 -7.183594 -0.570312 -6.871094 C -0.402344 -6.753906 -0.285156 -6.644531 -0.1875 -6.542969 C -0.0859375 -6.441406 -0.0234375 -6.324219 0.03125 -6.203125 C 0.0703125 -6.074219 0.0898438 -5.925781 0.09375 -5.785156 C 0.0859375 -5.621094 0.078125 -5.445312 0.0507812 -5.261719 Z M -0.585938 -6.878906 L -0.59375 -6.832031 L -0.570312 -6.871094 Z M -0.585938 -6.878906" transform="translate(176.709 38.07)"/></g></g></g><g fill="#FFDE59"><g><g><path d="M 0.816406 -0.417969 C 1.140625 -0.46875 1.433594 -0.589844 1.710938 -0.792969 C 1.984375 -0.996094 2.242188 -1.234375 2.476562 -1.535156 C 2.703125 -1.816406 2.902344 -2.132812 3.089844 -2.46875 C 3.277344 -2.808594 3.441406 -3.167969 3.574219 -3.539062 C 3.699219 -3.894531 3.804688 -4.253906 3.898438 -4.613281 C 3.980469 -4.964844 4.046875 -5.28125 4.089844 -5.585938 C 3.789062 -4.738281 3.453125 -4.09375 3.117188 -3.664062 C 2.78125 -3.234375 2.457031 -2.980469 2.152344 -2.910156 C 1.84375 -2.824219 1.601562 -2.921875 1.394531 -3.210938 C 1.191406 -3.484375 1.078125 -3.925781 1.058594 -4.519531 C 1.054688 -4.664062 1.050781 -4.804688 1.050781 -4.949219 C 1.050781 -5.078125 1.066406 -5.214844 1.082031 -5.351562 C 1.136719 -5.085938 1.242188 -4.929688 1.394531 -4.878906 C 1.535156 -4.824219 1.707031 -4.824219 1.890625 -4.902344 L 1.867188 -4.847656 C 2.222656 -4.96875 2.523438 -5.210938 2.75 -5.554688 C 2.988281 -5.882812 3.136719 -6.246094 3.226562 -6.644531 C 3.261719 -6.804688 3.273438 -7.011719 3.277344 -7.273438 C 3.285156 -7.535156 3.257812 -7.765625 3.1875 -7.996094 C 3.125 -8.214844 3.011719 -8.382812 2.871094 -8.511719 C 2.722656 -8.621094 2.515625 -8.636719 2.261719 -8.554688 C 1.839844 -8.394531 1.460938 -8.132812 1.144531 -7.796875 C 0.824219 -7.460938 0.539062 -7.078125 0.308594 -6.667969 C 0.0742188 -6.234375 -0.113281 -5.796875 -0.269531 -5.34375 C -0.417969 -4.875 -0.515625 -4.460938 -0.585938 -4.085938 C -0.691406 -3.550781 -0.75 -3.039062 -0.746094 -2.550781 C -0.753906 -2.058594 -0.679688 -1.640625 -0.523438 -1.304688 C -0.355469 -0.914062 -0.148438 -0.65625 0.0820312 -0.523438 C 0.308594 -0.390625 0.550781 -0.363281 0.816406 -0.417969 Z M 1.558594 -5.480469 C 1.398438 -5.414062 1.277344 -5.464844 1.203125 -5.605469 C 1.117188 -5.742188 1.136719 -5.964844 1.242188 -6.296875 C 1.375 -6.769531 1.550781 -7.132812 1.777344 -7.386719 C 1.992188 -7.621094 2.195312 -7.792969 2.367188 -7.894531 L 2.378906 -7.902344 C 2.648438 -8.015625 2.792969 -7.945312 2.816406 -7.683594 C 2.820312 -7.539062 2.796875 -7.386719 2.757812 -7.210938 C 2.714844 -7.035156 2.652344 -6.847656 2.582031 -6.675781 C 2.4375 -6.328125 2.265625 -6.054688 2.074219 -5.859375 C 1.878906 -5.644531 1.714844 -5.519531 1.558594 -5.480469 Z M 1.738281 -10.882812 L 1.023438 -8.25 L 1.925781 -8.632812 L 3.230469 -11.511719 Z M 1.738281 -10.882812" transform="translate(182.048 35.816)"/></g></g></g><g fill="#FFDE59"><g><g><path d="M -1.363281 -5.886719 L -1.765625 -4.078125 L 3.464844 -6.285156 L 3.890625 -8.105469 Z M -1.363281 -5.886719" transform="translate(186.483 33.944)"/></g></g></g><g fill="#FFDE59"><g><g><path d="M 0.921875 -0.402344 C 1.121094 -0.546875 1.292969 -0.71875 1.433594 -0.9375 C 1.578125 -1.140625 1.691406 -1.378906 1.785156 -1.632812 C 1.886719 -1.875 1.972656 -2.113281 2.058594 -2.351562 C 2.132812 -2.585938 2.222656 -2.882812 2.304688 -3.234375 C 2.378906 -3.566406 2.449219 -3.914062 2.53125 -4.265625 C 2.613281 -4.617188 2.691406 -4.949219 2.757812 -5.265625 C 2.777344 -5.421875 2.804688 -5.5625 2.839844 -5.691406 C 2.871094 -5.820312 2.898438 -5.917969 2.929688 -6.015625 L 3.226562 -5.898438 L 3.0625 -6.488281 C 3.160156 -6.933594 3.234375 -7.3125 3.257812 -7.625 C 3.277344 -7.921875 3.269531 -8.175781 3.242188 -8.378906 C 3.207031 -8.566406 3.144531 -8.714844 3.078125 -8.800781 C 3 -8.882812 2.914062 -8.917969 2.832031 -8.910156 C 2.710938 -8.890625 2.597656 -8.8125 2.488281 -8.667969 C 2.378906 -8.519531 2.300781 -8.328125 2.261719 -8.082031 C 2.207031 -7.828125 2.21875 -7.53125 2.269531 -7.207031 C 2.320312 -6.882812 2.46875 -6.527344 2.695312 -6.164062 C 2.6875 -6.117188 2.683594 -6.054688 2.667969 -5.992188 C 2.640625 -5.921875 2.621094 -5.828125 2.601562 -5.734375 C 2.554688 -5.511719 2.484375 -5.265625 2.425781 -4.996094 C 2.359375 -4.710938 2.28125 -4.417969 2.195312 -4.109375 C 2.101562 -3.78125 2.019531 -3.5 1.925781 -3.246094 C 1.832031 -2.992188 1.730469 -2.789062 1.636719 -2.636719 C 1.539062 -2.464844 1.4375 -2.390625 1.34375 -2.410156 L 1.339844 -2.421875 C 1.253906 -2.414062 1.1875 -2.503906 1.175781 -2.671875 C 1.15625 -2.820312 1.164062 -3.011719 1.175781 -3.246094 C 1.199219 -3.472656 1.230469 -3.730469 1.28125 -4.023438 L 1.425781 -4.90625 L 1.574219 -5.746094 C 1.59375 -5.871094 1.617188 -5.996094 1.621094 -6.113281 C 1.628906 -6.230469 1.632812 -6.332031 1.644531 -6.4375 C 1.652344 -6.558594 1.640625 -6.683594 1.613281 -6.816406 C 1.585938 -6.945312 1.546875 -7.074219 1.496094 -7.195312 C 1.445312 -7.320312 1.375 -7.417969 1.285156 -7.523438 C 1.203125 -7.621094 1.101562 -7.691406 0.992188 -7.746094 C 0.710938 -7.859375 0.339844 -7.789062 -0.105469 -7.542969 C 0.0078125 -7.417969 0.101562 -7.296875 0.152344 -7.175781 C 0.238281 -6.96875 0.25 -6.742188 0.175781 -6.507812 C 0.128906 -6.375 0.0898438 -6.230469 0.0507812 -6.054688 L -0.847656 -2.320312 C -0.878906 -2.25 -0.898438 -2.199219 -0.902344 -2.136719 C -0.917969 -2.074219 -0.933594 -2.007812 -0.949219 -1.945312 C -0.972656 -1.792969 -0.996094 -1.609375 -0.996094 -1.40625 C -1 -1.207031 -0.976562 -1.011719 -0.90625 -0.855469 C -0.78125 -0.519531 -0.5625 -0.308594 -0.261719 -0.207031 C -0.121094 -0.152344 0.0703125 -0.144531 0.296875 -0.152344 C 0.523438 -0.164062 0.730469 -0.25 0.921875 -0.402344 Z M 0.921875 -0.402344" transform="translate(191.345 31.891)"/></g></g></g><g fill="#FFDE59"><g><g><path d="M 0.816406 -0.417969 C 1.140625 -0.46875 1.433594 -0.589844 1.710938 -0.792969 C 1.984375 -0.996094 2.242188 -1.234375 2.476562 -1.535156 C 2.703125 -1.816406 2.902344 -2.132812 3.089844 -2.46875 C 3.277344 -2.808594 3.441406 -3.167969 3.574219 -3.539062 C 3.699219 -3.894531 3.804688 -4.253906 3.898438 -4.613281 C 3.980469 -4.964844 4.046875 -5.28125 4.089844 -5.585938 C 3.789062 -4.738281 3.453125 -4.09375 3.117188 -3.664062 C 2.78125 -3.234375 2.457031 -2.980469 2.152344 -2.910156 C 1.84375 -2.824219 1.601562 -2.921875 1.394531 -3.210938 C 1.191406 -3.484375 1.078125 -3.925781 1.058594 -4.519531 C 1.054688 -4.664062 1.050781 -4.804688 1.050781 -4.949219 C 1.050781 -5.078125 1.066406 -5.214844 1.082031 -5.351562 C 1.136719 -5.085938 1.242188 -4.929688 1.394531 -4.878906 C 1.535156 -4.824219 1.707031 -4.824219 1.890625 -4.902344 L 1.867188 -4.847656 C 2.222656 -4.96875 2.523438 -5.210938 2.75 -5.554688 C 2.988281 -5.882812 3.136719 -6.246094 3.226562 -6.644531 C 3.261719 -6.804688 3.273438 -7.011719 3.277344 -7.273438 C 3.285156 -7.535156 3.257812 -7.765625 3.1875 -7.996094 C 3.125 -8.214844 3.011719 -8.382812 2.871094 -8.511719 C 2.722656 -8.621094 2.515625 -8.636719 2.261719 -8.554688 C 1.839844 -8.394531 1.460938 -8.132812 1.144531 -7.796875 C 0.824219 -7.460938 0.539062 -7.078125 0.308594 -6.667969 C 0.0742188 -6.234375 -0.113281 -5.796875 -0.269531 -5.34375 C -0.417969 -4.875 -0.515625 -4.460938 -0.585938 -4.085938 C -0.691406 -3.550781 -0.75 -3.039062 -0.746094 -2.550781 C -0.753906 -2.058594 -0.679688 -1.640625 -0.523438 -1.304688 C -0.355469 -0.914062 -0.148438 -0.65625 0.0820312 -0.523438 C 0.308594 -0.390625 0.550781 -0.363281 0.816406 -0.417969 Z M 1.558594 -5.480469 C 1.398438 -5.414062 1.277344 -5.464844 1.203125 -5.605469 C 1.117188 -5.742188 1.136719 -5.964844 1.242188 -6.296875 C 1.375 -6.769531 1.550781 -7.132812 1.777344 -7.386719 C 1.992188 -7.621094 2.195312 -7.792969 2.367188 -7.894531 L 2.378906 -7.902344 C 2.648438 -8.015625 2.792969 -7.945312 2.816406 -7.683594 C 2.820312 -7.539062 2.796875 -7.386719 2.757812 -7.210938 C 2.714844 -7.035156 2.652344 -6.847656 2.582031 -6.675781 C 2.4375 -6.328125 2.265625 -6.054688 2.074219 -5.859375 C 1.878906 -5.644531 1.714844 -5.519531 1.558594 -5.480469 Z M 1.558594 -5.480469" transform="translate(195.524 30.127)"/></g></g></g><g fill="#FFDE59"><g><g><path d="M -0.0976562 -5.171875 L -1.199219 0.503906 L 0.488281 -0.207031 C 0.722656 -1.628906 0.917969 -2.804688 1.0625 -3.757812 C 1.207031 -4.714844 1.34375 -5.476562 1.484375 -6.066406 C 1.617188 -6.640625 1.761719 -7.078125 1.929688 -7.363281 C 2.101562 -7.640625 2.308594 -7.828125 2.570312 -7.925781 C 2.742188 -7.96875 2.875 -7.953125 2.976562 -7.851562 C 3.078125 -7.75 3.109375 -7.605469 3.054688 -7.394531 L 2.277344 -4.257812 C 2.230469 -4.09375 2.195312 -3.90625 2.140625 -3.695312 C 2.089844 -3.472656 2.0625 -3.261719 2.039062 -3.050781 C 2.003906 -2.820312 1.996094 -2.601562 2.015625 -2.390625 C 2.03125 -2.183594 2.078125 -2 2.167969 -1.851562 C 2.253906 -1.6875 2.375 -1.566406 2.550781 -1.496094 C 2.730469 -1.410156 2.964844 -1.394531 3.261719 -1.449219 C 3.453125 -1.472656 3.648438 -1.554688 3.832031 -1.660156 C 4.019531 -1.769531 4.164062 -1.902344 4.289062 -2.085938 C 4.417969 -2.253906 4.527344 -2.472656 4.636719 -2.722656 C 4.738281 -2.964844 4.839844 -3.238281 4.933594 -3.523438 C 5.023438 -3.789062 5.097656 -4.054688 5.167969 -4.328125 C 5.234375 -4.585938 5.304688 -4.832031 5.351562 -5.054688 C 5.296875 -4.984375 5.234375 -4.886719 5.179688 -4.777344 C 5.152344 -4.710938 5.132812 -4.65625 5.097656 -4.601562 C 5.066406 -4.542969 5.03125 -4.484375 5.011719 -4.433594 C 4.941406 -4.320312 4.875 -4.203125 4.800781 -4.113281 C 4.722656 -4.023438 4.632812 -3.957031 4.535156 -3.917969 C 4.390625 -3.855469 4.285156 -3.898438 4.230469 -4.0625 C 4.175781 -4.195312 4.15625 -4.40625 4.175781 -4.699219 C 4.195312 -4.96875 4.238281 -5.273438 4.289062 -5.625 C 4.347656 -5.96875 4.40625 -6.308594 4.460938 -6.648438 C 4.511719 -6.972656 4.5625 -7.265625 4.589844 -7.539062 C 4.625 -7.796875 4.632812 -7.988281 4.609375 -8.109375 C 4.542969 -8.339844 4.46875 -8.507812 4.359375 -8.636719 C 4.246094 -8.761719 4.136719 -8.859375 3.996094 -8.914062 C 3.695312 -9.015625 3.402344 -9.023438 3.117188 -8.945312 C 2.835938 -8.871094 2.5625 -8.726562 2.335938 -8.515625 C 2.097656 -8.300781 1.890625 -8.039062 1.707031 -7.71875 C 1.53125 -7.382812 1.402344 -7.042969 1.308594 -6.65625 C 1.261719 -7.039062 1.183594 -7.324219 1.058594 -7.515625 C 0.941406 -7.695312 0.761719 -7.777344 0.523438 -7.765625 C 0.359375 -7.738281 0.183594 -7.648438 -0.0117188 -7.496094 C -0.21875 -7.335938 -0.441406 -7.082031 -0.675781 -6.753906 L -0.734375 -6.789062 C -0.414062 -6.578125 -0.214844 -6.34375 -0.117188 -6.113281 C -0.078125 -5.984375 -0.0585938 -5.835938 -0.0546875 -5.691406 C -0.0625 -5.53125 -0.0703125 -5.355469 -0.0976562 -5.171875 Z M -0.0976562 -5.171875" transform="translate(199.959 28.254)"/></g></g></g><g fill="#FFDE59"><g><g><path d="M 0.53125 -0.339844 C 0.777344 -0.445312 1.027344 -0.636719 1.265625 -0.921875 C 1.503906 -1.210938 1.726562 -1.535156 1.917969 -1.902344 C 2.101562 -2.253906 2.25 -2.621094 2.378906 -2.992188 C 2.511719 -3.363281 2.589844 -3.683594 2.609375 -3.980469 C 2.71875 -3.175781 2.882812 -2.613281 3.113281 -2.308594 C 3.359375 -1.964844 3.628906 -1.804688 3.902344 -1.835938 C 4.144531 -1.851562 4.394531 -1.96875 4.636719 -2.214844 C 4.882812 -2.449219 5.117188 -2.78125 5.320312 -3.183594 C 5.519531 -3.566406 5.683594 -4.027344 5.804688 -4.566406 C 5.925781 -5.09375 5.972656 -5.660156 5.976562 -6.265625 L 5.921875 -6.128906 C 5.894531 -6.058594 5.851562 -5.984375 5.808594 -5.878906 C 5.753906 -5.769531 5.707031 -5.648438 5.652344 -5.539062 C 5.585938 -5.425781 5.523438 -5.296875 5.457031 -5.183594 C 5.308594 -4.917969 5.167969 -4.671875 5.027344 -4.457031 C 4.878906 -4.234375 4.75 -4.09375 4.640625 -4.046875 C 4.554688 -3.980469 4.484375 -4.007812 4.457031 -4.140625 C 4.414062 -4.238281 4.417969 -4.472656 4.476562 -4.8125 L 6.507812 -14.421875 C 6.351562 -14.386719 6.214844 -14.429688 6.117188 -14.53125 C 6.015625 -14.632812 5.910156 -14.746094 5.820312 -14.894531 C 5.71875 -15.027344 5.621094 -15.15625 5.511719 -15.285156 C 5.398438 -15.410156 5.28125 -15.488281 5.128906 -15.511719 L 5.140625 -15.472656 C 5.082031 -15.203125 4.996094 -14.863281 4.910156 -14.453125 C 4.824219 -14.042969 4.730469 -13.585938 4.628906 -13.113281 C 4.578125 -12.859375 4.519531 -12.621094 4.46875 -12.367188 C 4.414062 -12.113281 4.363281 -11.863281 4.3125 -11.609375 C 4.253906 -11.339844 4.199219 -11.089844 4.148438 -10.835938 C 4.085938 -10.578125 4.027344 -10.339844 3.984375 -10.105469 C 3.878906 -9.597656 3.78125 -9.152344 3.683594 -8.769531 L 3.453125 -7.75 C 3.441406 -7.773438 3.4375 -7.816406 3.417969 -7.863281 L 3.359375 -8 C 3.324219 -8.082031 3.277344 -8.164062 3.210938 -8.25 C 3.144531 -8.339844 3.085938 -8.414062 2.996094 -8.492188 C 2.910156 -8.554688 2.792969 -8.59375 2.652344 -8.621094 C 2.503906 -8.628906 2.339844 -8.605469 2.140625 -8.535156 C 1.71875 -8.371094 1.328125 -8.105469 0.984375 -7.757812 C 0.640625 -7.410156 0.335938 -7.007812 0.0859375 -6.585938 C -0.175781 -6.144531 -0.390625 -5.695312 -0.554688 -5.238281 C -0.734375 -4.773438 -0.84375 -4.351562 -0.914062 -3.976562 C -1.019531 -3.441406 -1.078125 -2.929688 -1.074219 -2.441406 C -1.082031 -1.949219 -1.007812 -1.53125 -0.851562 -1.195312 C -0.65625 -0.730469 -0.445312 -0.445312 -0.199219 -0.332031 C 0.0390625 -0.21875 0.28125 -0.21875 0.53125 -0.339844 Z M 1.300781 -3.429688 C 1.148438 -3.378906 1.027344 -3.429688 0.90625 -3.578125 C 0.851562 -3.640625 0.800781 -3.765625 0.761719 -3.921875 C 0.726562 -4.078125 0.695312 -4.253906 0.695312 -4.453125 C 0.699219 -4.65625 0.691406 -4.871094 0.714844 -5.09375 C 0.734375 -5.320312 0.757812 -5.53125 0.816406 -5.742188 C 0.90625 -6.140625 1.023438 -6.476562 1.160156 -6.765625 C 1.296875 -7.054688 1.460938 -7.28125 1.625 -7.46875 C 1.785156 -7.636719 1.953125 -7.75 2.117188 -7.804688 C 2.285156 -7.847656 2.414062 -7.785156 2.496094 -7.589844 C 2.585938 -7.382812 2.5625 -7.027344 2.421875 -6.535156 C 2.625 -6.566406 2.777344 -6.613281 2.878906 -6.714844 C 2.988281 -6.804688 3.101562 -6.9375 3.230469 -7.109375 L 3.25 -7.101562 C 3.144531 -6.742188 3.03125 -6.359375 2.910156 -5.964844 C 2.777344 -5.5625 2.628906 -5.199219 2.46875 -4.859375 C 2.304688 -4.5 2.121094 -4.179688 1.929688 -3.921875 C 1.734375 -3.667969 1.53125 -3.496094 1.300781 -3.429688 Z M 1.300781 -3.429688" transform="translate(205.689 25.835)"/></g></g></g><g fill="#FFDE59"><g><g><path d="M 3.851562 -1.753906 L 3.816406 -1.699219 C 4.160156 -1.84375 4.460938 -2.085938 4.726562 -2.441406 C 4.988281 -2.78125 5.222656 -3.183594 5.410156 -3.621094 C 5.589844 -4.046875 5.734375 -4.492188 5.855469 -4.949219 C 5.980469 -5.40625 6.0625 -5.828125 6.109375 -6.191406 C 6.09375 -6.160156 6.078125 -6.136719 6.050781 -6.097656 C 6.023438 -6.054688 6.003906 -6.003906 5.96875 -5.945312 C 5.898438 -5.800781 5.820312 -5.652344 5.726562 -5.5 C 5.636719 -5.332031 5.539062 -5.160156 5.425781 -4.984375 C 5.191406 -4.582031 4.988281 -4.28125 4.785156 -4.078125 C 4.6875 -3.964844 4.597656 -3.914062 4.523438 -3.910156 C 4.453125 -3.910156 4.410156 -3.976562 4.394531 -4.117188 C 4.367188 -4.25 4.394531 -4.492188 4.464844 -4.808594 L 5.496094 -9.894531 L 3.773438 -9.167969 L 3.46875 -7.710938 C 3.363281 -7.957031 3.246094 -8.136719 3.085938 -8.269531 C 2.933594 -8.394531 2.773438 -8.46875 2.585938 -8.503906 C 2.390625 -8.523438 2.1875 -8.496094 1.980469 -8.4375 C 1.78125 -8.367188 1.570312 -8.25 1.371094 -8.109375 C 1.21875 -7.988281 1.054688 -7.832031 0.898438 -7.621094 C 0.742188 -7.410156 0.59375 -7.1875 0.445312 -6.925781 C 0.296875 -6.660156 0.148438 -6.367188 0.0078125 -6.050781 C -0.132812 -5.730469 -0.257812 -5.417969 -0.375 -5.082031 C -0.519531 -4.675781 -0.640625 -4.277344 -0.730469 -3.878906 C -0.828125 -3.464844 -0.894531 -3.078125 -0.9375 -2.699219 C -0.96875 -2.425781 -0.96875 -2.125 -0.917969 -1.800781 C -0.867188 -1.476562 -0.792969 -1.191406 -0.660156 -0.945312 C -0.53125 -0.683594 -0.367188 -0.492188 -0.167969 -0.363281 C 0.03125 -0.230469 0.28125 -0.21875 0.585938 -0.347656 C 1.003906 -0.523438 1.40625 -0.796875 1.761719 -1.175781 C 1.933594 -1.351562 2.085938 -1.542969 2.214844 -1.742188 C 2.347656 -1.941406 2.445312 -2.15625 2.5 -2.367188 C 2.59375 -2.074219 2.765625 -1.871094 3.019531 -1.75 C 3.261719 -1.621094 3.535156 -1.621094 3.851562 -1.753906 Z M 1.15625 -2.445312 C 1.019531 -2.460938 0.90625 -2.527344 0.808594 -2.660156 C 0.707031 -2.789062 0.65625 -2.984375 0.628906 -3.246094 C 0.597656 -3.492188 0.613281 -3.800781 0.675781 -4.199219 C 0.742188 -4.589844 0.859375 -5.054688 1.03125 -5.605469 C 1.105469 -5.835938 1.179688 -6.070312 1.277344 -6.3125 C 1.367188 -6.550781 1.476562 -6.769531 1.585938 -6.988281 C 1.6875 -7.191406 1.8125 -7.371094 1.964844 -7.523438 C 2.101562 -7.667969 2.277344 -7.769531 2.472656 -7.851562 C 2.585938 -7.886719 2.6875 -7.886719 2.773438 -7.851562 C 2.855469 -7.800781 2.925781 -7.730469 3 -7.628906 C 3.058594 -7.523438 3.109375 -7.402344 3.144531 -7.246094 C 3.183594 -7.089844 3.222656 -6.929688 3.238281 -6.753906 L 3.25 -6.757812 L 2.722656 -4.460938 C 2.6875 -4.273438 2.621094 -4.058594 2.546875 -3.824219 C 2.460938 -3.585938 2.355469 -3.355469 2.230469 -3.144531 C 2.09375 -2.914062 1.941406 -2.734375 1.765625 -2.601562 C 1.585938 -2.453125 1.378906 -2.394531 1.15625 -2.445312 Z M 1.15625 -2.445312" transform="translate(212.2 23.086)"/></g></g></g></svg>