<svg xmlns="http://www.w3.org/2000/svg" width="224.88" viewBox="0 0 224.88 90" height="90" version="1.0"><defs><clipPath id="a"><path d="M 0 0.0234375 L 224.761719 0.0234375 L 224.761719 89.976562 L 0 89.976562 Z M 0 0.0234375"/></clipPath></defs><g clip-path="url(#a)"><path fill="#FFF" d="M 0 0.0234375 L 224.878906 0.0234375 L 224.878906 89.976562 L 0 89.976562 Z M 0 0.0234375"/><path d="M 0 0.0234375 L 224.878906 0.0234375 L 224.878906 89.976562 L 0 89.976562 Z M 0 0.0234375"/></g><g fill="#FFF"><g><g><path d="M 10.859375 -18.359375 C 11.171875 -18.359375 11.519531 -18.332031 11.90625 -18.28125 C 12.300781 -18.226562 12.6875 -18.140625 13.0625 -18.015625 C 13.445312 -17.890625 13.800781 -17.726562 14.125 -17.53125 C 14.445312 -17.34375 14.695312 -17.097656 14.875 -16.796875 C 15.09375 -16.640625 15.285156 -16.40625 15.453125 -16.09375 C 15.609375 -15.769531 15.6875 -15.457031 15.6875 -15.15625 C 15.6875 -14.820312 15.628906 -14.515625 15.515625 -14.234375 C 15.398438 -13.953125 15.25 -13.695312 15.0625 -13.46875 C 14.882812 -13.25 14.6875 -13.050781 14.46875 -12.875 C 14.25 -12.695312 14.039062 -12.546875 13.84375 -12.421875 C 13.644531 -12.304688 13.46875 -12.21875 13.3125 -12.15625 C 13.164062 -12.101562 13.070312 -12.078125 13.03125 -12.078125 C 12.988281 -12.078125 12.914062 -12.097656 12.8125 -12.140625 C 12.707031 -12.179688 12.609375 -12.234375 12.515625 -12.296875 C 12.398438 -12.359375 12.28125 -12.429688 12.15625 -12.515625 C 12.15625 -12.523438 12.238281 -12.578125 12.40625 -12.671875 C 12.570312 -12.773438 12.753906 -12.925781 12.953125 -13.125 C 13.160156 -13.320312 13.347656 -13.582031 13.515625 -13.90625 C 13.679688 -14.238281 13.765625 -14.644531 13.765625 -15.125 C 13.679688 -15.28125 13.570312 -15.429688 13.4375 -15.578125 C 13.300781 -15.722656 13.125 -15.847656 12.90625 -15.953125 C 12.6875 -16.066406 12.421875 -16.160156 12.109375 -16.234375 C 11.796875 -16.304688 11.425781 -16.34375 11 -16.34375 C 10.851562 -16.34375 10.625 -16.316406 10.3125 -16.265625 C 10.007812 -16.222656 9.65625 -16.144531 9.25 -16.03125 C 8.84375 -15.914062 8.40625 -15.757812 7.9375 -15.5625 C 7.476562 -15.375 7.015625 -15.117188 6.546875 -14.796875 C 6.078125 -14.472656 5.625 -14.085938 5.1875 -13.640625 C 4.757812 -13.191406 4.378906 -12.660156 4.046875 -12.046875 C 3.710938 -11.441406 3.445312 -10.742188 3.25 -9.953125 C 3.050781 -9.171875 2.953125 -8.28125 2.953125 -7.28125 C 2.953125 -6.738281 2.992188 -6.242188 3.078125 -5.796875 C 3.171875 -5.359375 3.285156 -4.960938 3.421875 -4.609375 C 3.566406 -4.253906 3.734375 -3.9375 3.921875 -3.65625 C 4.117188 -3.382812 4.328125 -3.140625 4.546875 -2.921875 C 4.671875 -2.859375 4.816406 -2.769531 4.984375 -2.65625 C 5.148438 -2.550781 5.375 -2.445312 5.65625 -2.34375 C 5.945312 -2.238281 6.3125 -2.148438 6.75 -2.078125 C 7.195312 -2.003906 7.769531 -1.96875 8.46875 -1.96875 C 9.0625 -1.96875 9.625 -2.035156 10.15625 -2.171875 C 10.695312 -2.316406 11.203125 -2.5 11.671875 -2.71875 C 12.140625 -2.9375 12.570312 -3.175781 12.96875 -3.4375 C 13.363281 -3.707031 13.710938 -3.972656 14.015625 -4.234375 C 14.316406 -4.492188 14.566406 -4.726562 14.765625 -4.9375 C 14.960938 -5.15625 15.101562 -5.320312 15.1875 -5.4375 C 15.351562 -5.664062 15.46875 -5.8125 15.53125 -5.875 C 15.601562 -5.9375 15.664062 -5.96875 15.71875 -5.96875 C 15.757812 -5.96875 15.800781 -5.960938 15.84375 -5.953125 C 15.882812 -5.941406 15.925781 -5.9375 15.96875 -5.9375 C 16.050781 -5.9375 16.097656 -5.976562 16.109375 -6.0625 C 16.128906 -6.144531 16.15625 -6.1875 16.1875 -6.1875 C 16.195312 -6.1875 16.207031 -6.148438 16.21875 -6.078125 C 16.226562 -6.003906 16.234375 -5.921875 16.234375 -5.828125 C 16.234375 -5.773438 16.226562 -5.722656 16.21875 -5.671875 C 16.207031 -5.628906 16.203125 -5.582031 16.203125 -5.53125 C 16.191406 -5.476562 16.15625 -5.300781 16.09375 -5 C 16.03125 -4.695312 15.90625 -4.335938 15.71875 -3.921875 C 15.539062 -3.515625 15.289062 -3.070312 14.96875 -2.59375 C 14.644531 -2.125 14.226562 -1.6875 13.71875 -1.28125 C 13.207031 -0.882812 12.582031 -0.550781 11.84375 -0.28125 C 11.113281 -0.0195312 10.25 0.109375 9.25 0.109375 C 8.644531 0.109375 8.085938 0.0546875 7.578125 -0.046875 C 7.066406 -0.160156 6.609375 -0.296875 6.203125 -0.453125 C 5.796875 -0.617188 5.429688 -0.800781 5.109375 -1 C 4.796875 -1.195312 4.535156 -1.382812 4.328125 -1.5625 C 3.878906 -1.8125 3.445312 -2.132812 3.03125 -2.53125 C 2.625 -2.925781 2.265625 -3.398438 1.953125 -3.953125 C 1.640625 -4.503906 1.390625 -5.144531 1.203125 -5.875 C 1.015625 -6.601562 0.921875 -7.429688 0.921875 -8.359375 C 0.921875 -9.285156 1.039062 -10.175781 1.28125 -11.03125 C 1.53125 -11.894531 1.875 -12.695312 2.3125 -13.4375 C 2.757812 -14.175781 3.285156 -14.847656 3.890625 -15.453125 C 4.503906 -16.054688 5.175781 -16.570312 5.90625 -17 C 6.644531 -17.4375 7.429688 -17.769531 8.265625 -18 C 9.109375 -18.238281 9.972656 -18.359375 10.859375 -18.359375 Z M 10.859375 -18.359375" transform="translate(84.702 41.944)"/></g></g></g><g fill="#FFF"><g><g><path d="M 9.03125 -0.078125 C 9.03125 0.00390625 8.960938 0.0976562 8.828125 0.203125 C 8.703125 0.316406 8.535156 0.375 8.328125 0.375 C 8.265625 0.375 8.148438 0.34375 7.984375 0.28125 C 7.828125 0.226562 7.660156 0.140625 7.484375 0.015625 C 7.316406 -0.0976562 7.160156 -0.238281 7.015625 -0.40625 C 6.878906 -0.582031 6.804688 -0.78125 6.796875 -1 C 6.773438 -1.09375 6.765625 -1.222656 6.765625 -1.390625 C 6.765625 -1.566406 6.765625 -1.769531 6.765625 -2 C 6.765625 -2.34375 6.765625 -2.726562 6.765625 -3.15625 C 6.765625 -3.59375 6.773438 -4.03125 6.796875 -4.46875 C 6.734375 -4.144531 6.65625 -3.816406 6.5625 -3.484375 C 6.476562 -3.148438 6.367188 -2.816406 6.234375 -2.484375 C 6.109375 -2.148438 5.957031 -1.820312 5.78125 -1.5 C 5.613281 -1.175781 5.414062 -0.863281 5.1875 -0.5625 C 5.0625 -0.40625 4.929688 -0.269531 4.796875 -0.15625 C 4.660156 -0.0507812 4.523438 0.0351562 4.390625 0.109375 C 4.265625 0.179688 4.144531 0.234375 4.03125 0.265625 C 3.914062 0.304688 3.828125 0.328125 3.765625 0.328125 C 3.734375 0.328125 3.648438 0.289062 3.515625 0.21875 C 3.390625 0.144531 3.242188 0.0507812 3.078125 -0.0625 C 2.910156 -0.1875 2.726562 -0.320312 2.53125 -0.46875 C 2.34375 -0.613281 2.160156 -0.753906 1.984375 -0.890625 C 1.804688 -1.035156 1.644531 -1.171875 1.5 -1.296875 C 1.363281 -1.429688 1.265625 -1.535156 1.203125 -1.609375 C 1.140625 -1.703125 1.082031 -1.851562 1.03125 -2.0625 C 0.988281 -2.269531 0.945312 -2.523438 0.90625 -2.828125 C 0.875 -3.140625 0.847656 -3.488281 0.828125 -3.875 C 0.804688 -4.257812 0.796875 -4.671875 0.796875 -5.109375 C 0.796875 -5.335938 0.800781 -5.640625 0.8125 -6.015625 C 0.820312 -6.398438 0.835938 -6.804688 0.859375 -7.234375 C 0.890625 -7.671875 0.925781 -8.109375 0.96875 -8.546875 C 1.007812 -8.992188 1.054688 -9.394531 1.109375 -9.75 C 1.160156 -10.101562 1.226562 -10.390625 1.3125 -10.609375 C 1.394531 -10.828125 1.488281 -10.9375 1.59375 -10.9375 C 1.65625 -10.9375 1.773438 -10.914062 1.953125 -10.875 C 2.128906 -10.84375 2.3125 -10.828125 2.5 -10.828125 C 2.769531 -10.828125 2.957031 -10.847656 3.0625 -10.890625 C 3.175781 -10.941406 3.257812 -10.96875 3.3125 -10.96875 C 3.394531 -10.96875 3.4375 -10.894531 3.4375 -10.75 C 3.4375 -10.707031 3.4375 -10.664062 3.4375 -10.625 C 3.4375 -10.582031 3.425781 -10.535156 3.40625 -10.484375 C 3.40625 -10.429688 3.390625 -10.296875 3.359375 -10.078125 C 3.328125 -9.859375 3.285156 -9.578125 3.234375 -9.234375 C 3.191406 -8.890625 3.148438 -8.503906 3.109375 -8.078125 C 3.066406 -7.660156 3.023438 -7.21875 2.984375 -6.75 C 2.941406 -6.289062 2.90625 -5.820312 2.875 -5.34375 C 2.851562 -4.875 2.84375 -4.425781 2.84375 -4 C 2.84375 -3.707031 2.847656 -3.414062 2.859375 -3.125 C 2.878906 -2.84375 2.90625 -2.582031 2.9375 -2.34375 C 2.96875 -2.113281 3.015625 -1.925781 3.078125 -1.78125 C 3.140625 -1.632812 3.21875 -1.5625 3.3125 -1.5625 C 3.382812 -1.5625 3.492188 -1.597656 3.640625 -1.671875 C 3.785156 -1.742188 3.957031 -1.894531 4.15625 -2.125 C 4.351562 -2.351562 4.566406 -2.675781 4.796875 -3.09375 C 5.035156 -3.519531 5.289062 -4.078125 5.5625 -4.765625 C 5.84375 -5.460938 6.132812 -6.316406 6.4375 -7.328125 C 6.738281 -8.335938 7.046875 -9.539062 7.359375 -10.9375 C 7.359375 -10.96875 7.375 -10.988281 7.40625 -11 C 7.4375 -11.007812 7.472656 -11.015625 7.515625 -11.015625 C 7.628906 -11.015625 7.773438 -11.003906 7.953125 -10.984375 C 8.128906 -10.960938 8.296875 -10.929688 8.453125 -10.890625 C 8.617188 -10.859375 8.757812 -10.816406 8.875 -10.765625 C 8.988281 -10.710938 9.046875 -10.65625 9.046875 -10.59375 C 9.046875 -10.195312 9.03125 -9.765625 9 -9.296875 C 8.96875 -8.835938 8.925781 -8.359375 8.875 -7.859375 C 8.832031 -7.367188 8.796875 -6.863281 8.765625 -6.34375 C 8.734375 -5.832031 8.71875 -5.320312 8.71875 -4.8125 C 8.71875 -3.90625 8.742188 -3.035156 8.796875 -2.203125 C 8.859375 -1.378906 8.9375 -0.671875 9.03125 -0.078125 Z M 9.03125 -0.078125" transform="translate(101.6 41.944)"/></g></g></g><g fill="#FFF"><g><g><path d="M 7.28125 -9.4375 C 7.269531 -9.175781 7.242188 -8.921875 7.203125 -8.671875 C 7.171875 -8.429688 7.117188 -8.195312 7.046875 -7.96875 C 6.972656 -7.75 6.882812 -7.550781 6.78125 -7.375 C 6.6875 -7.195312 6.578125 -7.054688 6.453125 -6.953125 C 6.347656 -6.867188 6.265625 -6.828125 6.203125 -6.828125 C 6.140625 -6.828125 6.085938 -6.84375 6.046875 -6.875 C 6.015625 -6.90625 5.984375 -6.941406 5.953125 -6.984375 C 5.929688 -7.035156 5.898438 -7.066406 5.859375 -7.078125 C 5.816406 -7.085938 5.765625 -7.082031 5.703125 -7.0625 C 5.648438 -7.050781 5.59375 -7.050781 5.53125 -7.0625 C 5.476562 -7.070312 5.425781 -7.101562 5.375 -7.15625 C 5.332031 -7.21875 5.300781 -7.320312 5.28125 -7.46875 C 5.269531 -7.632812 5.28125 -7.847656 5.3125 -8.109375 C 5.34375 -8.378906 5.359375 -8.640625 5.359375 -8.890625 C 5.359375 -9.117188 5.332031 -9.3125 5.28125 -9.46875 C 5.226562 -9.625 5.144531 -9.703125 5.03125 -9.703125 C 4.96875 -9.703125 4.859375 -9.65625 4.703125 -9.5625 C 4.546875 -9.46875 4.375 -9.269531 4.1875 -8.96875 C 4.007812 -8.675781 3.828125 -8.25 3.640625 -7.6875 C 3.460938 -7.125 3.316406 -6.375 3.203125 -5.4375 C 3.203125 -4.226562 3.207031 -3.253906 3.21875 -2.515625 C 3.238281 -1.785156 3.25 -1.210938 3.25 -0.796875 C 3.25 -0.453125 3.238281 -0.203125 3.21875 -0.046875 C 3.207031 0.0976562 3.164062 0.191406 3.09375 0.234375 C 3.050781 0.265625 2.96875 0.296875 2.84375 0.328125 C 2.71875 0.367188 2.582031 0.40625 2.4375 0.4375 C 2.289062 0.476562 2.148438 0.507812 2.015625 0.53125 C 1.890625 0.5625 1.804688 0.570312 1.765625 0.5625 C 1.742188 0.550781 1.695312 0.519531 1.625 0.46875 C 1.550781 0.425781 1.476562 0.367188 1.40625 0.296875 C 1.332031 0.234375 1.265625 0.160156 1.203125 0.078125 C 1.140625 0.00390625 1.109375 -0.0546875 1.109375 -0.109375 C 1.085938 -0.191406 1.078125 -0.390625 1.078125 -0.703125 C 1.085938 -1.015625 1.09375 -1.390625 1.09375 -1.828125 C 1.101562 -2.265625 1.109375 -2.742188 1.109375 -3.265625 C 1.117188 -3.785156 1.125 -4.300781 1.125 -4.8125 C 1.125 -5.144531 1.132812 -5.515625 1.15625 -5.921875 C 1.175781 -6.328125 1.203125 -6.738281 1.234375 -7.15625 C 1.265625 -7.582031 1.296875 -7.992188 1.328125 -8.390625 C 1.367188 -8.796875 1.40625 -9.15625 1.4375 -9.46875 C 1.46875 -9.789062 1.492188 -10.0625 1.515625 -10.28125 C 1.535156 -10.5 1.550781 -10.628906 1.5625 -10.671875 C 1.570312 -10.742188 1.601562 -10.769531 1.65625 -10.75 C 1.71875 -10.726562 1.78125 -10.695312 1.84375 -10.65625 C 1.90625 -10.613281 1.960938 -10.570312 2.015625 -10.53125 C 2.066406 -10.5 2.101562 -10.5 2.125 -10.53125 C 2.144531 -10.613281 2.210938 -10.625 2.328125 -10.5625 C 2.441406 -10.507812 2.546875 -10.445312 2.640625 -10.375 C 2.671875 -10.332031 2.707031 -10.296875 2.75 -10.265625 C 2.800781 -10.234375 2.847656 -10.191406 2.890625 -10.140625 C 2.941406 -10.097656 2.984375 -10.035156 3.015625 -9.953125 C 3.046875 -9.878906 3.0625 -9.773438 3.0625 -9.640625 C 3.0625 -9.523438 3.066406 -9.34375 3.078125 -9.09375 C 3.097656 -8.84375 3.125 -8.554688 3.15625 -8.234375 C 3.25 -8.546875 3.363281 -8.875 3.5 -9.21875 C 3.632812 -9.570312 3.796875 -9.894531 3.984375 -10.1875 C 4.179688 -10.476562 4.410156 -10.71875 4.671875 -10.90625 C 4.929688 -11.101562 5.242188 -11.203125 5.609375 -11.203125 C 5.816406 -11.203125 6.019531 -11.160156 6.21875 -11.078125 C 6.414062 -11.003906 6.59375 -10.890625 6.75 -10.734375 C 6.914062 -10.585938 7.046875 -10.40625 7.140625 -10.1875 C 7.242188 -9.96875 7.289062 -9.71875 7.28125 -9.4375 Z M 7.28125 -9.4375" transform="translate(112.003 41.944)"/></g></g></g><g fill="#FFF"><g><g><path d="M 9.046875 -10.3125 C 9.078125 -10.257812 9.09375 -10.207031 9.09375 -10.15625 C 9.101562 -10.101562 9.109375 -10.039062 9.109375 -9.96875 C 9.109375 -9.6875 8.960938 -9.394531 8.671875 -9.09375 C 8.378906 -8.789062 7.914062 -8.507812 7.28125 -8.25 C 7.15625 -8.195312 7.035156 -8.171875 6.921875 -8.171875 C 6.796875 -8.171875 6.6875 -8.207031 6.59375 -8.28125 C 6.5 -8.363281 6.453125 -8.441406 6.453125 -8.515625 C 6.453125 -8.566406 6.484375 -8.628906 6.546875 -8.703125 C 6.617188 -8.773438 6.691406 -8.84375 6.765625 -8.90625 C 6.835938 -8.976562 6.90625 -9.046875 6.96875 -9.109375 C 7.039062 -9.171875 7.078125 -9.21875 7.078125 -9.25 C 7.078125 -9.320312 7.019531 -9.359375 6.90625 -9.359375 C 6.726562 -9.359375 6.503906 -9.304688 6.234375 -9.203125 C 5.960938 -9.097656 5.675781 -8.960938 5.375 -8.796875 C 5.070312 -8.640625 4.765625 -8.46875 4.453125 -8.28125 C 4.140625 -8.09375 3.859375 -7.910156 3.609375 -7.734375 C 3.367188 -7.554688 3.171875 -7.394531 3.015625 -7.25 C 2.867188 -7.113281 2.796875 -7.015625 2.796875 -6.953125 C 2.796875 -6.921875 2.832031 -6.90625 2.90625 -6.90625 L 3.28125 -6.90625 C 3.519531 -6.90625 3.820312 -6.890625 4.1875 -6.859375 C 4.5625 -6.835938 4.953125 -6.785156 5.359375 -6.703125 C 5.773438 -6.628906 6.191406 -6.523438 6.609375 -6.390625 C 7.023438 -6.253906 7.394531 -6.070312 7.71875 -5.84375 C 8.050781 -5.625 8.320312 -5.351562 8.53125 -5.03125 C 8.738281 -4.707031 8.84375 -4.320312 8.84375 -3.875 C 8.84375 -3.644531 8.804688 -3.398438 8.734375 -3.140625 C 8.660156 -2.878906 8.53125 -2.613281 8.34375 -2.34375 C 8.15625 -2.082031 7.898438 -1.8125 7.578125 -1.53125 C 7.253906 -1.257812 6.84375 -0.988281 6.34375 -0.71875 C 5.582031 -0.320312 4.875 -0.03125 4.21875 0.15625 C 3.570312 0.351562 2.988281 0.453125 2.46875 0.453125 C 1.78125 0.453125 1.238281 0.300781 0.84375 0 C 0.457031 -0.300781 0.265625 -0.738281 0.265625 -1.3125 C 0.265625 -1.726562 0.34375 -2.082031 0.5 -2.375 C 0.664062 -2.675781 0.859375 -2.925781 1.078125 -3.125 C 1.296875 -3.320312 1.515625 -3.46875 1.734375 -3.5625 C 1.953125 -3.65625 2.117188 -3.707031 2.234375 -3.71875 C 2.285156 -3.71875 2.328125 -3.71875 2.359375 -3.71875 C 2.398438 -3.726562 2.445312 -3.734375 2.5 -3.734375 C 2.570312 -3.734375 2.609375 -3.6875 2.609375 -3.59375 L 2.609375 -3.46875 C 2.609375 -3.414062 2.617188 -3.367188 2.640625 -3.328125 C 2.671875 -3.285156 2.6875 -3.242188 2.6875 -3.203125 C 2.6875 -3.148438 2.625 -3.070312 2.5 -2.96875 C 2.375 -2.863281 2.234375 -2.738281 2.078125 -2.59375 C 1.929688 -2.457031 1.796875 -2.3125 1.671875 -2.15625 C 1.546875 -2 1.484375 -1.84375 1.484375 -1.6875 C 1.484375 -1.519531 1.625 -1.4375 1.90625 -1.4375 C 2.25 -1.4375 2.613281 -1.503906 3 -1.640625 C 3.394531 -1.773438 3.78125 -1.945312 4.15625 -2.15625 C 4.53125 -2.363281 4.882812 -2.597656 5.21875 -2.859375 C 5.550781 -3.128906 5.84375 -3.390625 6.09375 -3.640625 C 6.351562 -3.898438 6.554688 -4.140625 6.703125 -4.359375 C 6.847656 -4.585938 6.921875 -4.765625 6.921875 -4.890625 C 6.921875 -5.046875 6.832031 -5.171875 6.65625 -5.265625 C 6.476562 -5.367188 6.234375 -5.453125 5.921875 -5.515625 C 5.609375 -5.578125 5.242188 -5.617188 4.828125 -5.640625 C 4.421875 -5.660156 3.992188 -5.671875 3.546875 -5.671875 C 3.066406 -5.671875 2.671875 -5.644531 2.359375 -5.59375 C 2.054688 -5.550781 1.867188 -5.53125 1.796875 -5.53125 C 1.742188 -5.53125 1.65625 -5.535156 1.53125 -5.546875 C 1.414062 -5.566406 1.300781 -5.609375 1.1875 -5.671875 C 1.070312 -5.742188 0.96875 -5.84375 0.875 -5.96875 C 0.789062 -6.101562 0.75 -6.289062 0.75 -6.53125 C 0.75 -6.695312 0.785156 -6.882812 0.859375 -7.09375 C 0.929688 -7.3125 1.0625 -7.539062 1.25 -7.78125 C 1.4375 -8.019531 1.691406 -8.273438 2.015625 -8.546875 C 2.347656 -8.828125 2.769531 -9.125 3.28125 -9.4375 C 3.8125 -9.757812 4.3125 -10.019531 4.78125 -10.21875 C 5.25 -10.425781 5.671875 -10.585938 6.046875 -10.703125 C 6.429688 -10.816406 6.769531 -10.894531 7.0625 -10.9375 C 7.351562 -10.976562 7.582031 -11 7.75 -11 C 8.132812 -11 8.421875 -10.945312 8.609375 -10.84375 C 8.804688 -10.738281 8.953125 -10.5625 9.046875 -10.3125 Z M 9.046875 -10.3125" transform="translate(119.31 41.944)"/></g></g></g><g fill="#FFF"><g><g><path d="M 10.03125 -5.53125 C 10.03125 -4.613281 9.894531 -3.785156 9.625 -3.046875 C 9.351562 -2.316406 8.988281 -1.691406 8.53125 -1.171875 C 8.070312 -0.660156 7.539062 -0.265625 6.9375 0.015625 C 6.332031 0.296875 5.695312 0.4375 5.03125 0.4375 C 4.75 0.4375 4.441406 0.398438 4.109375 0.328125 C 3.773438 0.265625 3.441406 0.160156 3.109375 0.015625 C 2.773438 -0.128906 2.453125 -0.320312 2.140625 -0.5625 C 1.828125 -0.8125 1.546875 -1.113281 1.296875 -1.46875 C 1.054688 -1.832031 0.863281 -2.253906 0.71875 -2.734375 C 0.570312 -3.222656 0.503906 -3.78125 0.515625 -4.40625 C 0.515625 -5.125 0.597656 -5.773438 0.765625 -6.359375 C 0.941406 -6.953125 1.164062 -7.484375 1.4375 -7.953125 C 1.71875 -8.421875 2.03125 -8.828125 2.375 -9.171875 C 2.726562 -9.515625 3.082031 -9.800781 3.4375 -10.03125 C 3.789062 -10.257812 4.128906 -10.429688 4.453125 -10.546875 C 4.773438 -10.660156 5.050781 -10.726562 5.28125 -10.75 C 5.40625 -10.757812 5.460938 -10.742188 5.453125 -10.703125 C 5.441406 -10.671875 5.410156 -10.632812 5.359375 -10.59375 C 5.304688 -10.550781 5.257812 -10.503906 5.21875 -10.453125 C 5.175781 -10.410156 5.191406 -10.382812 5.265625 -10.375 C 5.328125 -10.363281 5.375 -10.347656 5.40625 -10.328125 C 5.445312 -10.304688 5.488281 -10.285156 5.53125 -10.265625 L 5.640625 -10.375 C 5.703125 -10.425781 5.757812 -10.453125 5.8125 -10.453125 C 5.875 -10.453125 5.925781 -10.441406 5.96875 -10.421875 C 6.007812 -10.410156 6.039062 -10.40625 6.0625 -10.40625 C 6.09375 -10.40625 6.113281 -10.429688 6.125 -10.484375 C 6.144531 -10.578125 6.175781 -10.628906 6.21875 -10.640625 C 6.269531 -10.660156 6.382812 -10.671875 6.5625 -10.671875 C 6.664062 -10.671875 6.820312 -10.640625 7.03125 -10.578125 C 7.25 -10.515625 7.488281 -10.40625 7.75 -10.25 C 8.007812 -10.101562 8.269531 -9.90625 8.53125 -9.65625 C 8.800781 -9.414062 9.046875 -9.101562 9.265625 -8.71875 C 9.492188 -8.34375 9.675781 -7.890625 9.8125 -7.359375 C 9.957031 -6.835938 10.03125 -6.226562 10.03125 -5.53125 Z M 5.28125 -9.375 C 4.976562 -9.195312 4.675781 -8.945312 4.375 -8.625 C 4.082031 -8.3125 3.816406 -7.945312 3.578125 -7.53125 C 3.335938 -7.125 3.140625 -6.664062 2.984375 -6.15625 C 2.835938 -5.65625 2.765625 -5.125 2.765625 -4.5625 C 2.765625 -3.957031 2.816406 -3.410156 2.921875 -2.921875 C 3.035156 -2.429688 3.195312 -2.015625 3.40625 -1.671875 C 3.625 -1.328125 3.878906 -1.0625 4.171875 -0.875 C 4.472656 -0.6875 4.816406 -0.59375 5.203125 -0.59375 C 5.546875 -0.59375 5.882812 -0.6875 6.21875 -0.875 C 6.5625 -1.070312 6.863281 -1.363281 7.125 -1.75 C 7.382812 -2.132812 7.59375 -2.609375 7.75 -3.171875 C 7.914062 -3.742188 8 -4.40625 8 -5.15625 C 8 -5.914062 7.898438 -6.550781 7.703125 -7.0625 C 7.503906 -7.582031 7.28125 -8.003906 7.03125 -8.328125 C 6.78125 -8.648438 6.539062 -8.878906 6.3125 -9.015625 C 6.082031 -9.148438 5.941406 -9.21875 5.890625 -9.21875 C 5.765625 -9.21875 5.671875 -9.21875 5.609375 -9.21875 C 5.546875 -9.21875 5.4375 -9.269531 5.28125 -9.375 Z M 5.28125 -9.375" transform="translate(129.176 41.944)"/></g></g></g><g fill="#FE6B8B"><g><g><path d="M 4.734375 -2.609375 L 5.4375 -2.609375 C 5.894531 -2.609375 6.21875 -2.742188 6.40625 -3.015625 C 6.507812 -3.160156 6.585938 -3.382812 6.640625 -3.6875 C 6.703125 -4 6.734375 -4.378906 6.734375 -4.828125 L 6.71875 -14.53125 C 6.71875 -15.5 6.609375 -16.175781 6.390625 -16.5625 C 6.191406 -16.90625 5.84375 -17.078125 5.34375 -17.078125 L 4.734375 -17.078125 Z M 1.1875 0 L 1.1875 -19.9375 L 5.875 -19.9375 C 7.40625 -19.9375 8.523438 -19.472656 9.234375 -18.546875 C 9.929688 -17.640625 10.28125 -16.328125 10.28125 -14.609375 L 10.28125 -5.734375 C 10.28125 -4.722656 10.195312 -3.84375 10.03125 -3.09375 C 9.863281 -2.34375 9.601562 -1.722656 9.25 -1.234375 C 8.539062 -0.222656 7.382812 0.28125 5.78125 0.28125 L 1.1875 0.28125 Z M 1.1875 0" transform="translate(3.956 69.679)"/></g></g></g><g fill="#FE6B8B"><g><g><path d="M 4.765625 -3.15625 C 4.835938 -2.976562 4.9375 -2.847656 5.0625 -2.765625 C 5.1875 -2.679688 5.359375 -2.640625 5.578125 -2.640625 C 5.804688 -2.640625 5.984375 -2.679688 6.109375 -2.765625 C 6.234375 -2.847656 6.332031 -2.976562 6.40625 -3.15625 C 6.5625 -3.59375 6.640625 -4.363281 6.640625 -5.46875 L 6.640625 -14.625 C 6.640625 -15.519531 6.554688 -16.160156 6.390625 -16.546875 C 6.316406 -16.710938 6.222656 -16.832031 6.109375 -16.90625 C 5.992188 -16.976562 5.832031 -17.015625 5.625 -17.015625 C 5.414062 -17.015625 5.242188 -16.972656 5.109375 -16.890625 C 4.984375 -16.816406 4.878906 -16.703125 4.796875 -16.546875 C 4.710938 -16.359375 4.644531 -16.101562 4.59375 -15.78125 C 4.550781 -15.457031 4.53125 -15.070312 4.53125 -14.625 L 4.53125 -5.46875 C 4.53125 -4.34375 4.609375 -3.570312 4.765625 -3.15625 Z M 9.109375 -1.03125 C 8.742188 -0.519531 8.265625 -0.140625 7.671875 0.109375 C 7.085938 0.367188 6.398438 0.5 5.609375 0.5 C 3.992188 0.5 2.8125 -0.0078125 2.0625 -1.03125 C 1.320312 -2.03125 0.953125 -3.519531 0.953125 -5.5 L 0.953125 -14.484375 C 0.953125 -16.335938 1.34375 -17.75 2.125 -18.71875 C 2.914062 -19.6875 4.085938 -20.171875 5.640625 -20.171875 C 7.253906 -20.171875 8.421875 -19.675781 9.140625 -18.6875 C 9.847656 -17.71875 10.203125 -16.316406 10.203125 -14.484375 L 10.203125 -5.5 C 10.203125 -4.507812 10.109375 -3.640625 9.921875 -2.890625 C 9.742188 -2.148438 9.472656 -1.53125 9.109375 -1.03125 Z M 9.109375 -1.03125" transform="translate(15.175 69.679)"/></g></g></g><g fill="#FE6B8B"><g><g><path d="M 1.1875 0 L 1.1875 -19.9375 L 5.421875 -19.9375 L 5.46875 -19.71875 L 7.96875 -6.796875 L 10.328125 -19.703125 L 10.375 -19.9375 L 14.625 -19.9375 L 14.625 0.28125 L 11.40625 0.28125 L 11.40625 -7.328125 L 11.453125 -10.796875 L 9.421875 -0.03125 L 9.375 0.1875 L 6.53125 0.1875 L 6.484375 -0.03125 L 4.34375 -10.9375 L 4.40625 -7.328125 L 4.40625 0.28125 L 1.1875 0.28125 Z M 1.1875 0" transform="translate(26.327 69.679)"/></g></g></g><g fill="#FE6B8B"><g><g><path d="M 1.3125 0 L 1.3125 -19.9375 L 4.859375 -19.9375 L 4.859375 0.28125 L 1.3125 0.28125 Z M 1.3125 0" transform="translate(42.157 69.679)"/></g></g></g><g fill="#FE6B8B"><g><g><path d="M 1.1875 0 L 1.1875 -19.9375 L 4.015625 -19.9375 L 4.09375 -19.75 L 7.625 -9.6875 L 7.5 -13.21875 L 7.5 -19.9375 L 10.75 -19.9375 L 10.75 0.28125 L 8.140625 0.28125 L 8.078125 0.09375 L 4.40625 -10.40625 L 4.515625 -7.046875 L 4.515625 0.28125 L 1.1875 0.28125 Z M 1.1875 0" transform="translate(48.32 69.679)"/></g></g></g><g fill="#FE6B8B"><g><g><path d="M 6.421875 -6.1875 L 5.421875 -13.75 L 4.484375 -6.1875 Z M 0.296875 -0.046875 L 3.109375 -19.703125 L 3.140625 -19.9375 L 7.578125 -19.9375 L 7.625 -19.703125 L 10.59375 -0.046875 L 10.640625 0.28125 L 7.28125 0.28125 L 7.25 0.03125 L 6.8125 -3.234375 L 4.125 -3.234375 L 3.734375 0.03125 L 3.703125 0.28125 L 0.25 0.28125 Z M 0.296875 -0.046875" transform="translate(60.253 69.679)"/></g></g></g><g fill="#FE6B8B"><g><g><path d="M 1.1875 0 L 1.1875 -19.9375 L 4.015625 -19.9375 L 4.09375 -19.75 L 7.625 -9.6875 L 7.5 -13.21875 L 7.5 -19.9375 L 10.75 -19.9375 L 10.75 0.28125 L 8.140625 0.28125 L 8.078125 0.09375 L 4.40625 -10.40625 L 4.515625 -7.046875 L 4.515625 0.28125 L 1.1875 0.28125 Z M 1.1875 0" transform="translate(71.149 69.679)"/></g></g></g><g fill="#FE6B8B"><g><g><path d="M 4.734375 -2.609375 L 5.4375 -2.609375 C 5.894531 -2.609375 6.21875 -2.742188 6.40625 -3.015625 C 6.507812 -3.160156 6.585938 -3.382812 6.640625 -3.6875 C 6.703125 -4 6.734375 -4.378906 6.734375 -4.828125 L 6.71875 -14.53125 C 6.71875 -15.5 6.609375 -16.175781 6.390625 -16.5625 C 6.191406 -16.90625 5.84375 -17.078125 5.34375 -17.078125 L 4.734375 -17.078125 Z M 1.1875 0 L 1.1875 -19.9375 L 5.875 -19.9375 C 7.40625 -19.9375 8.523438 -19.472656 9.234375 -18.546875 C 9.929688 -17.640625 10.28125 -16.328125 10.28125 -14.609375 L 10.28125 -5.734375 C 10.28125 -4.722656 10.195312 -3.84375 10.03125 -3.09375 C 9.863281 -2.34375 9.601562 -1.722656 9.25 -1.234375 C 8.539062 -0.222656 7.382812 0.28125 5.78125 0.28125 L 1.1875 0.28125 Z M 1.1875 0" transform="translate(83.082 69.679)"/></g></g></g><g fill="#FE6B8B"><g><g><path d="M 4.765625 -3.15625 C 4.835938 -2.976562 4.9375 -2.847656 5.0625 -2.765625 C 5.1875 -2.679688 5.359375 -2.640625 5.578125 -2.640625 C 5.804688 -2.640625 5.984375 -2.679688 6.109375 -2.765625 C 6.234375 -2.847656 6.332031 -2.976562 6.40625 -3.15625 C 6.5625 -3.59375 6.640625 -4.363281 6.640625 -5.46875 L 6.640625 -14.625 C 6.640625 -15.519531 6.554688 -16.160156 6.390625 -16.546875 C 6.316406 -16.710938 6.222656 -16.832031 6.109375 -16.90625 C 5.992188 -16.976562 5.832031 -17.015625 5.625 -17.015625 C 5.414062 -17.015625 5.242188 -16.972656 5.109375 -16.890625 C 4.984375 -16.816406 4.878906 -16.703125 4.796875 -16.546875 C 4.710938 -16.359375 4.644531 -16.101562 4.59375 -15.78125 C 4.550781 -15.457031 4.53125 -15.070312 4.53125 -14.625 L 4.53125 -5.46875 C 4.53125 -4.34375 4.609375 -3.570312 4.765625 -3.15625 Z M 9.109375 -1.03125 C 8.742188 -0.519531 8.265625 -0.140625 7.671875 0.109375 C 7.085938 0.367188 6.398438 0.5 5.609375 0.5 C 3.992188 0.5 2.8125 -0.0078125 2.0625 -1.03125 C 1.320312 -2.03125 0.953125 -3.519531 0.953125 -5.5 L 0.953125 -14.484375 C 0.953125 -16.335938 1.34375 -17.75 2.125 -18.71875 C 2.914062 -19.6875 4.085938 -20.171875 5.640625 -20.171875 C 7.253906 -20.171875 8.421875 -19.675781 9.140625 -18.6875 C 9.847656 -17.71875 10.203125 -16.316406 10.203125 -14.484375 L 10.203125 -5.5 C 10.203125 -4.507812 10.109375 -3.640625 9.921875 -2.890625 C 9.742188 -2.148438 9.472656 -1.53125 9.109375 -1.03125 Z M 9.109375 -1.03125" transform="translate(94.302 69.679)"/></g></g></g><g fill="#FE6B8B"><g><g><path d="M 4.765625 -3.15625 C 4.835938 -2.976562 4.9375 -2.847656 5.0625 -2.765625 C 5.1875 -2.679688 5.359375 -2.640625 5.578125 -2.640625 C 5.804688 -2.640625 5.984375 -2.679688 6.109375 -2.765625 C 6.234375 -2.847656 6.332031 -2.976562 6.40625 -3.15625 C 6.5625 -3.59375 6.640625 -4.363281 6.640625 -5.46875 L 6.640625 -14.625 C 6.640625 -15.519531 6.554688 -16.160156 6.390625 -16.546875 C 6.316406 -16.710938 6.222656 -16.832031 6.109375 -16.90625 C 5.992188 -16.976562 5.832031 -17.015625 5.625 -17.015625 C 5.414062 -17.015625 5.242188 -16.972656 5.109375 -16.890625 C 4.984375 -16.816406 4.878906 -16.703125 4.796875 -16.546875 C 4.710938 -16.359375 4.644531 -16.101562 4.59375 -15.78125 C 4.550781 -15.457031 4.53125 -15.070312 4.53125 -14.625 L 4.53125 -5.46875 C 4.53125 -4.34375 4.609375 -3.570312 4.765625 -3.15625 Z M 9.109375 -1.03125 C 8.742188 -0.519531 8.265625 -0.140625 7.671875 0.109375 C 7.085938 0.367188 6.398438 0.5 5.609375 0.5 C 3.992188 0.5 2.8125 -0.0078125 2.0625 -1.03125 C 1.320312 -2.03125 0.953125 -3.519531 0.953125 -5.5 L 0.953125 -14.484375 C 0.953125 -16.335938 1.34375 -17.75 2.125 -18.71875 C 2.914062 -19.6875 4.085938 -20.171875 5.640625 -20.171875 C 7.253906 -20.171875 8.421875 -19.675781 9.140625 -18.6875 C 9.847656 -17.71875 10.203125 -16.316406 10.203125 -14.484375 L 10.203125 -5.5 C 10.203125 -4.507812 10.109375 -3.640625 9.921875 -2.890625 C 9.742188 -2.148438 9.472656 -1.53125 9.109375 -1.03125 Z M 9.109375 -1.03125" transform="translate(109.551 69.679)"/></g></g></g><g fill="#FE6B8B"><g><g><path d="M 1.3125 0 L 1.3125 -19.9375 L 4.859375 -19.9375 L 4.859375 0.28125 L 1.3125 0.28125 Z M 1.3125 0" transform="translate(124.8 69.679)"/></g></g></g><g fill="#FE6B8B"><g><g><path d="M 1.1875 0 L 1.1875 -19.9375 L 4.015625 -19.9375 L 4.09375 -19.75 L 7.625 -9.6875 L 7.5 -13.21875 L 7.5 -19.9375 L 10.75 -19.9375 L 10.75 0.28125 L 8.140625 0.28125 L 8.078125 0.09375 L 4.40625 -10.40625 L 4.515625 -7.046875 L 4.515625 0.28125 L 1.1875 0.28125 Z M 1.1875 0" transform="translate(130.963 69.679)"/></g></g></g><g fill="#FE6B8B"><g><g><path d="M 0.796875 -5.53125 L 0.796875 -7.5625 L 4.203125 -7.5625 L 4.203125 -5.3125 C 4.203125 -4.957031 4.210938 -4.632812 4.234375 -4.34375 C 4.253906 -4.050781 4.28125 -3.800781 4.3125 -3.59375 C 4.351562 -3.394531 4.398438 -3.234375 4.453125 -3.109375 C 4.523438 -2.929688 4.625 -2.800781 4.75 -2.71875 C 4.875 -2.644531 5.039062 -2.609375 5.25 -2.609375 C 5.644531 -2.609375 5.898438 -2.738281 6.015625 -3 C 6.085938 -3.15625 6.144531 -3.375 6.1875 -3.65625 C 6.226562 -3.9375 6.25 -4.273438 6.25 -4.671875 C 6.25 -5.453125 6.109375 -6.132812 5.828125 -6.71875 C 5.691406 -7.007812 5.503906 -7.304688 5.265625 -7.609375 C 5.035156 -7.921875 4.765625 -8.238281 4.453125 -8.5625 L 3 -10.0625 C 2.300781 -10.78125 1.757812 -11.535156 1.375 -12.328125 C 0.976562 -13.128906 0.78125 -14.050781 0.78125 -15.09375 C 0.78125 -16.78125 1.113281 -18.046875 1.78125 -18.890625 C 2.457031 -19.742188 3.609375 -20.171875 5.234375 -20.171875 C 6.023438 -20.171875 6.703125 -20.046875 7.265625 -19.796875 C 7.835938 -19.546875 8.269531 -19.164062 8.5625 -18.65625 C 8.851562 -18.164062 9.066406 -17.570312 9.203125 -16.875 C 9.347656 -16.1875 9.421875 -15.390625 9.421875 -14.484375 L 9.421875 -12.984375 L 6.09375 -12.984375 L 6.09375 -14.671875 C 6.09375 -14.984375 6.082031 -15.265625 6.0625 -15.515625 C 6.050781 -15.773438 6.023438 -15.992188 5.984375 -16.171875 C 5.953125 -16.347656 5.914062 -16.5 5.875 -16.625 C 5.8125 -16.78125 5.726562 -16.890625 5.625 -16.953125 C 5.519531 -17.023438 5.375 -17.0625 5.1875 -17.0625 C 4.820312 -17.0625 4.5625 -16.945312 4.40625 -16.71875 C 4.238281 -16.457031 4.15625 -16.039062 4.15625 -15.46875 C 4.15625 -15.175781 4.175781 -14.914062 4.21875 -14.6875 C 4.269531 -14.46875 4.34375 -14.273438 4.4375 -14.109375 C 4.625 -13.753906 4.984375 -13.296875 5.515625 -12.734375 L 7.140625 -10.984375 C 7.554688 -10.535156 7.921875 -10.082031 8.234375 -9.625 C 8.554688 -9.164062 8.820312 -8.703125 9.03125 -8.234375 C 9.457031 -7.296875 9.671875 -6.273438 9.671875 -5.171875 C 9.671875 -4.222656 9.585938 -3.394531 9.421875 -2.6875 C 9.265625 -1.988281 9.019531 -1.40625 8.6875 -0.9375 C 8.351562 -0.457031 7.894531 -0.0976562 7.3125 0.140625 C 6.726562 0.378906 6.035156 0.5 5.234375 0.5 C 3.578125 0.5 2.414062 -0.03125 1.75 -1.09375 C 1.113281 -2.125 0.796875 -3.601562 0.796875 -5.53125 Z M 0.796875 -5.53125" transform="translate(142.896 69.679)"/></g></g></g><g fill="#FE6B8B"><g><g><path d="M 2.203125 0 L 2.203125 -16.78125 L -0.09375 -16.78125 L -0.09375 -19.9375 L 7.953125 -19.9375 L 7.953125 -16.78125 L 5.734375 -16.78125 L 5.734375 0.28125 L 2.203125 0.28125 Z M 2.203125 0" transform="translate(153 69.679)"/></g></g></g><g fill="#FE6B8B"><g><g><path d="M 6.421875 -6.1875 L 5.421875 -13.75 L 4.484375 -6.1875 Z M 0.296875 -0.046875 L 3.109375 -19.703125 L 3.140625 -19.9375 L 7.578125 -19.9375 L 7.625 -19.703125 L 10.59375 -0.046875 L 10.640625 0.28125 L 7.28125 0.28125 L 7.25 0.03125 L 6.8125 -3.234375 L 4.125 -3.234375 L 3.734375 0.03125 L 3.703125 0.28125 L 0.25 0.28125 Z M 0.296875 -0.046875" transform="translate(160.847 69.679)"/></g></g></g><g fill="#FE6B8B"><g><g><path d="M 5.171875 0.484375 C 3.835938 0.484375 2.796875 -0.0390625 2.046875 -1.09375 C 1.316406 -2.113281 0.953125 -3.664062 0.953125 -5.75 L 0.953125 -14.296875 C 0.953125 -14.566406 0.957031 -14.820312 0.96875 -15.0625 C 0.988281 -15.3125 1.007812 -15.550781 1.03125 -15.78125 C 1.0625 -16.007812 1.097656 -16.234375 1.140625 -16.453125 C 1.191406 -16.671875 1.242188 -16.878906 1.296875 -17.078125 C 1.359375 -17.273438 1.425781 -17.460938 1.5 -17.640625 C 1.582031 -17.816406 1.671875 -17.984375 1.765625 -18.140625 C 1.859375 -18.304688 1.957031 -18.46875 2.0625 -18.625 C 2.445312 -19.132812 2.941406 -19.515625 3.546875 -19.765625 C 4.160156 -20.023438 4.875 -20.15625 5.6875 -20.15625 C 5.96875 -20.15625 6.238281 -20.140625 6.5 -20.109375 C 6.757812 -20.085938 7.003906 -20.039062 7.234375 -19.96875 C 7.472656 -19.90625 7.691406 -19.828125 7.890625 -19.734375 C 8.097656 -19.640625 8.285156 -19.53125 8.453125 -19.40625 C 8.628906 -19.28125 8.789062 -19.132812 8.9375 -18.96875 C 9.082031 -18.8125 9.210938 -18.632812 9.328125 -18.4375 C 9.441406 -18.25 9.539062 -18.046875 9.625 -17.828125 C 9.945312 -16.921875 10.109375 -15.707031 10.109375 -14.1875 L 10.109375 -12.515625 L 6.75 -12.515625 L 6.75 -14.84375 C 6.75 -15.695312 6.664062 -16.285156 6.5 -16.609375 C 6.363281 -16.878906 6.085938 -17.015625 5.671875 -17.015625 C 5.453125 -17.015625 5.273438 -16.972656 5.140625 -16.890625 C 5.015625 -16.816406 4.90625 -16.691406 4.8125 -16.515625 C 4.769531 -16.421875 4.726562 -16.304688 4.6875 -16.171875 C 4.65625 -16.035156 4.625 -15.875 4.59375 -15.6875 C 4.570312 -15.507812 4.554688 -15.300781 4.546875 -15.0625 C 4.535156 -14.832031 4.53125 -14.582031 4.53125 -14.3125 L 4.53125 -5.796875 C 4.53125 -5.171875 4.550781 -4.640625 4.59375 -4.203125 C 4.644531 -3.765625 4.710938 -3.429688 4.796875 -3.203125 C 4.878906 -3.003906 4.988281 -2.859375 5.125 -2.765625 C 5.257812 -2.671875 5.441406 -2.625 5.671875 -2.625 C 5.898438 -2.625 6.085938 -2.671875 6.234375 -2.765625 C 6.378906 -2.867188 6.503906 -3.035156 6.609375 -3.265625 C 6.679688 -3.421875 6.738281 -3.625 6.78125 -3.875 C 6.832031 -4.125 6.867188 -4.421875 6.890625 -4.765625 C 6.921875 -5.109375 6.9375 -5.488281 6.9375 -5.90625 L 6.9375 -8.28125 L 5.421875 -8.28125 L 5.421875 -11.015625 L 10.109375 -11.015625 L 10.109375 0.28125 L 8.265625 0.28125 L 8.21875 0.0625 L 7.96875 -1 C 7.863281 -0.832031 7.742188 -0.675781 7.609375 -0.53125 C 7.484375 -0.394531 7.335938 -0.265625 7.171875 -0.140625 C 6.585938 0.273438 5.921875 0.484375 5.171875 0.484375 Z M 5.171875 0.484375" transform="translate(171.743 69.679)"/></g></g></g><g fill="#FE6B8B"><g><g><path d="M 5.421875 -8.953125 L 4.75 -8.984375 L 4.75 0.28125 L 1.1875 0.28125 L 1.1875 -19.9375 L 6.421875 -19.9375 C 6.773438 -19.9375 7.101562 -19.910156 7.40625 -19.859375 C 7.707031 -19.816406 7.984375 -19.742188 8.234375 -19.640625 C 8.484375 -19.535156 8.707031 -19.40625 8.90625 -19.25 C 9.007812 -19.164062 9.109375 -19.066406 9.203125 -18.953125 C 9.304688 -18.847656 9.394531 -18.734375 9.46875 -18.609375 C 9.550781 -18.492188 9.625 -18.367188 9.6875 -18.234375 C 9.757812 -18.097656 9.816406 -17.957031 9.859375 -17.8125 C 9.910156 -17.675781 9.957031 -17.53125 10 -17.375 C 10.082031 -16.976562 10.144531 -16.535156 10.1875 -16.046875 C 10.226562 -15.554688 10.25 -15.007812 10.25 -14.40625 C 10.25 -13.164062 10.113281 -12.222656 9.84375 -11.578125 C 9.644531 -11.085938 9.332031 -10.707031 8.90625 -10.4375 C 9.332031 -10.175781 9.648438 -9.738281 9.859375 -9.125 C 10.003906 -8.695312 10.109375 -8.066406 10.171875 -7.234375 C 10.242188 -6.398438 10.28125 -5.34375 10.28125 -4.0625 C 10.28125 -3.476562 10.28125 -2.941406 10.28125 -2.453125 C 10.289062 -1.960938 10.300781 -1.554688 10.3125 -1.234375 C 10.320312 -0.921875 10.332031 -0.664062 10.34375 -0.46875 C 10.351562 -0.269531 10.359375 -0.144531 10.359375 -0.09375 L 10.515625 0.28125 L 6.953125 0.28125 L 6.875 0.125 C 6.800781 -0.0078125 6.753906 -0.445312 6.734375 -1.1875 C 6.722656 -1.9375 6.71875 -3.300781 6.71875 -5.28125 C 6.71875 -6.039062 6.71875 -6.628906 6.71875 -7.046875 C 6.71875 -7.453125 6.691406 -7.789062 6.640625 -8.0625 C 6.597656 -8.332031 6.539062 -8.519531 6.46875 -8.625 C 6.3125 -8.832031 5.960938 -8.941406 5.421875 -8.953125 Z M 4.765625 -11.890625 L 5.671875 -11.890625 C 5.742188 -11.890625 5.804688 -11.890625 5.859375 -11.890625 C 5.921875 -11.898438 5.972656 -11.90625 6.015625 -11.90625 C 6.066406 -11.914062 6.109375 -11.929688 6.140625 -11.953125 C 6.179688 -11.972656 6.210938 -11.988281 6.234375 -12 C 6.265625 -12.019531 6.296875 -12.039062 6.328125 -12.0625 C 6.460938 -12.1875 6.5625 -12.425781 6.625 -12.78125 C 6.65625 -12.976562 6.675781 -13.234375 6.6875 -13.546875 C 6.707031 -13.867188 6.71875 -14.238281 6.71875 -14.65625 L 6.71875 -14.78125 C 6.71875 -15.800781 6.640625 -16.453125 6.484375 -16.734375 C 6.359375 -16.960938 6.03125 -17.078125 5.5 -17.078125 L 4.765625 -17.078125 Z M 4.765625 -11.890625" transform="translate(182.906 69.679)"/></g></g></g><g fill="#FE6B8B"><g><g><path d="M 6.421875 -6.1875 L 5.421875 -13.75 L 4.484375 -6.1875 Z M 0.296875 -0.046875 L 3.109375 -19.703125 L 3.140625 -19.9375 L 7.578125 -19.9375 L 7.625 -19.703125 L 10.59375 -0.046875 L 10.640625 0.28125 L 7.28125 0.28125 L 7.25 0.03125 L 6.8125 -3.234375 L 4.125 -3.234375 L 3.734375 0.03125 L 3.703125 0.28125 L 0.25 0.28125 Z M 0.296875 -0.046875" transform="translate(194.181 69.679)"/></g></g></g><g fill="#FE6B8B"><g><g><path d="M 1.1875 0 L 1.1875 -19.9375 L 5.421875 -19.9375 L 5.46875 -19.71875 L 7.96875 -6.796875 L 10.328125 -19.703125 L 10.375 -19.9375 L 14.625 -19.9375 L 14.625 0.28125 L 11.40625 0.28125 L 11.40625 -7.328125 L 11.453125 -10.796875 L 9.421875 -0.03125 L 9.375 0.1875 L 6.53125 0.1875 L 6.484375 -0.03125 L 4.34375 -10.9375 L 4.40625 -7.328125 L 4.40625 0.28125 L 1.1875 0.28125 Z M 1.1875 0" transform="translate(205.077 69.679)"/></g></g></g></svg>