<svg xmlns="http://www.w3.org/2000/svg" width="224.88" viewBox="0 0 224.88 90" height="90" version="1.0"><defs><clipPath id="a"><path d="M 0 0.0234375 L 224.761719 0.0234375 L 224.761719 89.976562 L 0 89.976562 Z M 0 0.0234375"/></clipPath></defs><g clip-path="url(#a)"><path fill="#FFF" d="M 0 0.0234375 L 224.878906 0.0234375 L 224.878906 97.472656 L 0 97.472656 Z M 0 0.0234375"/><path fill="#FFF" d="M 0 0.0234375 L 224.878906 0.0234375 L 224.878906 89.976562 L 0 89.976562 Z M 0 0.0234375"/><path d="M 0 0.0234375 L 224.878906 0.0234375 L 224.878906 89.976562 L 0 89.976562 Z M 0 0.0234375"/></g><g fill="#FFF"><g><g><path d="M 10.859375 -18.359375 C 11.171875 -18.359375 11.519531 -18.332031 11.90625 -18.28125 C 12.300781 -18.226562 12.6875 -18.140625 13.0625 -18.015625 C 13.445312 -17.890625 13.800781 -17.726562 14.125 -17.53125 C 14.445312 -17.34375 14.695312 -17.097656 14.875 -16.796875 C 15.09375 -16.640625 15.285156 -16.40625 15.453125 -16.09375 C 15.609375 -15.769531 15.6875 -15.457031 15.6875 -15.15625 C 15.6875 -14.820312 15.628906 -14.515625 15.515625 -14.234375 C 15.398438 -13.953125 15.25 -13.695312 15.0625 -13.46875 C 14.882812 -13.25 14.6875 -13.050781 14.46875 -12.875 C 14.25 -12.695312 14.039062 -12.546875 13.84375 -12.421875 C 13.644531 -12.304688 13.46875 -12.21875 13.3125 -12.15625 C 13.164062 -12.101562 13.070312 -12.078125 13.03125 -12.078125 C 12.988281 -12.078125 12.914062 -12.097656 12.8125 -12.140625 C 12.707031 -12.179688 12.609375 -12.234375 12.515625 -12.296875 C 12.398438 -12.359375 12.28125 -12.429688 12.15625 -12.515625 C 12.15625 -12.523438 12.238281 -12.578125 12.40625 -12.671875 C 12.570312 -12.773438 12.753906 -12.925781 12.953125 -13.125 C 13.160156 -13.320312 13.347656 -13.582031 13.515625 -13.90625 C 13.679688 -14.238281 13.765625 -14.644531 13.765625 -15.125 C 13.679688 -15.28125 13.570312 -15.429688 13.4375 -15.578125 C 13.300781 -15.722656 13.125 -15.847656 12.90625 -15.953125 C 12.6875 -16.066406 12.421875 -16.160156 12.109375 -16.234375 C 11.796875 -16.304688 11.425781 -16.34375 11 -16.34375 C 10.851562 -16.34375 10.625 -16.316406 10.3125 -16.265625 C 10.007812 -16.222656 9.65625 -16.144531 9.25 -16.03125 C 8.84375 -15.914062 8.40625 -15.757812 7.9375 -15.5625 C 7.476562 -15.375 7.015625 -15.117188 6.546875 -14.796875 C 6.078125 -14.472656 5.625 -14.085938 5.1875 -13.640625 C 4.757812 -13.191406 4.378906 -12.660156 4.046875 -12.046875 C 3.710938 -11.441406 3.445312 -10.742188 3.25 -9.953125 C 3.050781 -9.171875 2.953125 -8.28125 2.953125 -7.28125 C 2.953125 -6.738281 2.992188 -6.242188 3.078125 -5.796875 C 3.171875 -5.359375 3.285156 -4.960938 3.421875 -4.609375 C 3.566406 -4.253906 3.734375 -3.9375 3.921875 -3.65625 C 4.117188 -3.382812 4.328125 -3.140625 4.546875 -2.921875 C 4.671875 -2.859375 4.816406 -2.769531 4.984375 -2.65625 C 5.148438 -2.550781 5.375 -2.445312 5.65625 -2.34375 C 5.945312 -2.238281 6.3125 -2.148438 6.75 -2.078125 C 7.195312 -2.003906 7.769531 -1.96875 8.46875 -1.96875 C 9.0625 -1.96875 9.625 -2.035156 10.15625 -2.171875 C 10.695312 -2.316406 11.203125 -2.5 11.671875 -2.71875 C 12.140625 -2.9375 12.570312 -3.175781 12.96875 -3.4375 C 13.363281 -3.707031 13.710938 -3.972656 14.015625 -4.234375 C 14.316406 -4.492188 14.566406 -4.726562 14.765625 -4.9375 C 14.960938 -5.15625 15.101562 -5.320312 15.1875 -5.4375 C 15.351562 -5.664062 15.46875 -5.8125 15.53125 -5.875 C 15.601562 -5.9375 15.664062 -5.96875 15.71875 -5.96875 C 15.757812 -5.96875 15.800781 -5.960938 15.84375 -5.953125 C 15.882812 -5.941406 15.925781 -5.9375 15.96875 -5.9375 C 16.050781 -5.9375 16.097656 -5.976562 16.109375 -6.0625 C 16.128906 -6.144531 16.15625 -6.1875 16.1875 -6.1875 C 16.195312 -6.1875 16.207031 -6.148438 16.21875 -6.078125 C 16.226562 -6.003906 16.234375 -5.921875 16.234375 -5.828125 C 16.234375 -5.773438 16.226562 -5.722656 16.21875 -5.671875 C 16.207031 -5.628906 16.203125 -5.582031 16.203125 -5.53125 C 16.191406 -5.476562 16.15625 -5.300781 16.09375 -5 C 16.03125 -4.695312 15.90625 -4.335938 15.71875 -3.921875 C 15.539062 -3.515625 15.289062 -3.070312 14.96875 -2.59375 C 14.644531 -2.125 14.226562 -1.6875 13.71875 -1.28125 C 13.207031 -0.882812 12.582031 -0.550781 11.84375 -0.28125 C 11.113281 -0.0195312 10.25 0.109375 9.25 0.109375 C 8.644531 0.109375 8.085938 0.0546875 7.578125 -0.046875 C 7.066406 -0.160156 6.609375 -0.296875 6.203125 -0.453125 C 5.796875 -0.617188 5.429688 -0.800781 5.109375 -1 C 4.796875 -1.195312 4.535156 -1.382812 4.328125 -1.5625 C 3.878906 -1.8125 3.445312 -2.132812 3.03125 -2.53125 C 2.625 -2.925781 2.265625 -3.398438 1.953125 -3.953125 C 1.640625 -4.503906 1.390625 -5.144531 1.203125 -5.875 C 1.015625 -6.601562 0.921875 -7.429688 0.921875 -8.359375 C 0.921875 -9.285156 1.039062 -10.175781 1.28125 -11.03125 C 1.53125 -11.894531 1.875 -12.695312 2.3125 -13.4375 C 2.757812 -14.175781 3.285156 -14.847656 3.890625 -15.453125 C 4.503906 -16.054688 5.175781 -16.570312 5.90625 -17 C 6.644531 -17.4375 7.429688 -17.769531 8.265625 -18 C 9.109375 -18.238281 9.972656 -18.359375 10.859375 -18.359375 Z M 10.859375 -18.359375" transform="translate(74.246 39.595)"/></g></g></g><g fill="#FFF"><g><g><path d="M 10.03125 -5.53125 C 10.03125 -4.613281 9.894531 -3.785156 9.625 -3.046875 C 9.351562 -2.316406 8.988281 -1.691406 8.53125 -1.171875 C 8.070312 -0.660156 7.539062 -0.265625 6.9375 0.015625 C 6.332031 0.296875 5.695312 0.4375 5.03125 0.4375 C 4.75 0.4375 4.441406 0.398438 4.109375 0.328125 C 3.773438 0.265625 3.441406 0.160156 3.109375 0.015625 C 2.773438 -0.128906 2.453125 -0.320312 2.140625 -0.5625 C 1.828125 -0.8125 1.546875 -1.113281 1.296875 -1.46875 C 1.054688 -1.832031 0.863281 -2.253906 0.71875 -2.734375 C 0.570312 -3.222656 0.503906 -3.78125 0.515625 -4.40625 C 0.515625 -5.125 0.597656 -5.773438 0.765625 -6.359375 C 0.941406 -6.953125 1.164062 -7.484375 1.4375 -7.953125 C 1.71875 -8.421875 2.03125 -8.828125 2.375 -9.171875 C 2.726562 -9.515625 3.082031 -9.800781 3.4375 -10.03125 C 3.789062 -10.257812 4.128906 -10.429688 4.453125 -10.546875 C 4.773438 -10.660156 5.050781 -10.726562 5.28125 -10.75 C 5.40625 -10.757812 5.460938 -10.742188 5.453125 -10.703125 C 5.441406 -10.671875 5.410156 -10.632812 5.359375 -10.59375 C 5.304688 -10.550781 5.257812 -10.503906 5.21875 -10.453125 C 5.175781 -10.410156 5.191406 -10.382812 5.265625 -10.375 C 5.328125 -10.363281 5.375 -10.347656 5.40625 -10.328125 C 5.445312 -10.304688 5.488281 -10.285156 5.53125 -10.265625 L 5.640625 -10.375 C 5.703125 -10.425781 5.757812 -10.453125 5.8125 -10.453125 C 5.875 -10.453125 5.925781 -10.441406 5.96875 -10.421875 C 6.007812 -10.410156 6.039062 -10.40625 6.0625 -10.40625 C 6.09375 -10.40625 6.113281 -10.429688 6.125 -10.484375 C 6.144531 -10.578125 6.175781 -10.628906 6.21875 -10.640625 C 6.269531 -10.660156 6.382812 -10.671875 6.5625 -10.671875 C 6.664062 -10.671875 6.820312 -10.640625 7.03125 -10.578125 C 7.25 -10.515625 7.488281 -10.40625 7.75 -10.25 C 8.007812 -10.101562 8.269531 -9.90625 8.53125 -9.65625 C 8.800781 -9.414062 9.046875 -9.101562 9.265625 -8.71875 C 9.492188 -8.34375 9.675781 -7.890625 9.8125 -7.359375 C 9.957031 -6.835938 10.03125 -6.226562 10.03125 -5.53125 Z M 5.28125 -9.375 C 4.976562 -9.195312 4.675781 -8.945312 4.375 -8.625 C 4.082031 -8.3125 3.816406 -7.945312 3.578125 -7.53125 C 3.335938 -7.125 3.140625 -6.664062 2.984375 -6.15625 C 2.835938 -5.65625 2.765625 -5.125 2.765625 -4.5625 C 2.765625 -3.957031 2.816406 -3.410156 2.921875 -2.921875 C 3.035156 -2.429688 3.195312 -2.015625 3.40625 -1.671875 C 3.625 -1.328125 3.878906 -1.0625 4.171875 -0.875 C 4.472656 -0.6875 4.816406 -0.59375 5.203125 -0.59375 C 5.546875 -0.59375 5.882812 -0.6875 6.21875 -0.875 C 6.5625 -1.070312 6.863281 -1.363281 7.125 -1.75 C 7.382812 -2.132812 7.59375 -2.609375 7.75 -3.171875 C 7.914062 -3.742188 8 -4.40625 8 -5.15625 C 8 -5.914062 7.898438 -6.550781 7.703125 -7.0625 C 7.503906 -7.582031 7.28125 -8.003906 7.03125 -8.328125 C 6.78125 -8.648438 6.539062 -8.878906 6.3125 -9.015625 C 6.082031 -9.148438 5.941406 -9.21875 5.890625 -9.21875 C 5.765625 -9.21875 5.671875 -9.21875 5.609375 -9.21875 C 5.546875 -9.21875 5.4375 -9.269531 5.28125 -9.375 Z M 5.28125 -9.375" transform="translate(91.143 39.595)"/></g></g></g><g fill="#FFF"><g><g><path d="M 13.890625 -0.890625 C 13.921875 -0.816406 13.941406 -0.757812 13.953125 -0.71875 C 13.960938 -0.675781 13.96875 -0.632812 13.96875 -0.59375 C 13.96875 -0.507812 13.9375 -0.460938 13.875 -0.453125 C 13.8125 -0.441406 13.742188 -0.425781 13.671875 -0.40625 C 13.648438 -0.394531 13.628906 -0.351562 13.609375 -0.28125 C 13.597656 -0.207031 13.578125 -0.125 13.546875 -0.03125 C 13.515625 0.0507812 13.46875 0.125 13.40625 0.1875 C 13.34375 0.257812 13.253906 0.296875 13.140625 0.296875 C 12.765625 0.273438 12.472656 0.195312 12.265625 0.0625 C 12.054688 -0.0703125 11.898438 -0.257812 11.796875 -0.5 C 11.691406 -0.738281 11.625 -1.019531 11.59375 -1.34375 C 11.570312 -1.675781 11.5625 -2.039062 11.5625 -2.4375 C 11.5625 -2.914062 11.578125 -3.410156 11.609375 -3.921875 C 11.648438 -4.441406 11.695312 -4.945312 11.75 -5.4375 C 11.8125 -5.925781 11.859375 -6.382812 11.890625 -6.8125 C 11.929688 -7.25 11.953125 -7.617188 11.953125 -7.921875 C 11.953125 -8.367188 11.914062 -8.710938 11.84375 -8.953125 C 11.769531 -9.203125 11.664062 -9.328125 11.53125 -9.328125 C 11.46875 -9.328125 11.3125 -9.144531 11.0625 -8.78125 C 10.8125 -8.414062 10.507812 -7.863281 10.15625 -7.125 C 9.800781 -6.394531 9.421875 -5.472656 9.015625 -4.359375 C 8.609375 -3.253906 8.21875 -1.953125 7.84375 -0.453125 C 7.832031 -0.398438 7.828125 -0.335938 7.828125 -0.265625 C 7.828125 -0.191406 7.820312 -0.125 7.8125 -0.0625 C 7.800781 -0.0078125 7.78125 0.03125 7.75 0.0625 C 7.71875 0.101562 7.671875 0.125 7.609375 0.125 C 7.484375 0.125 7.382812 0.0976562 7.3125 0.046875 C 7.25 0.00390625 7.191406 -0.0390625 7.140625 -0.09375 C 7.085938 -0.15625 7.035156 -0.207031 6.984375 -0.25 C 6.941406 -0.300781 6.890625 -0.328125 6.828125 -0.328125 C 6.796875 -0.328125 6.769531 -0.304688 6.75 -0.265625 C 6.738281 -0.234375 6.71875 -0.191406 6.6875 -0.140625 C 6.664062 -0.0976562 6.632812 -0.0546875 6.59375 -0.015625 C 6.5625 0.015625 6.515625 0.03125 6.453125 0.03125 C 6.398438 0.03125 6.34375 0.0195312 6.28125 0 C 6.21875 -0.03125 6.15625 -0.0859375 6.09375 -0.171875 C 6.039062 -0.265625 5.992188 -0.398438 5.953125 -0.578125 C 5.910156 -0.765625 5.890625 -1.007812 5.890625 -1.3125 L 5.890625 -1.90625 C 5.890625 -2.03125 5.898438 -2.21875 5.921875 -2.46875 C 5.953125 -2.726562 5.984375 -3.03125 6.015625 -3.375 C 6.046875 -3.71875 6.082031 -4.085938 6.125 -4.484375 C 6.164062 -4.878906 6.195312 -5.28125 6.21875 -5.6875 C 6.25 -6.101562 6.273438 -6.507812 6.296875 -6.90625 C 6.328125 -7.300781 6.34375 -7.660156 6.34375 -7.984375 C 6.34375 -8.972656 6.21875 -9.46875 5.96875 -9.46875 C 5.90625 -9.46875 5.832031 -9.441406 5.75 -9.390625 C 5.675781 -9.347656 5.582031 -9.257812 5.46875 -9.125 C 5.363281 -8.988281 5.238281 -8.796875 5.09375 -8.546875 C 4.945312 -8.296875 4.785156 -7.960938 4.609375 -7.546875 C 4.429688 -7.128906 4.222656 -6.617188 3.984375 -6.015625 C 3.753906 -5.421875 3.503906 -4.707031 3.234375 -3.875 C 3.171875 -3.6875 3.097656 -3.414062 3.015625 -3.0625 C 2.941406 -2.707031 2.875 -2.347656 2.8125 -1.984375 C 2.757812 -1.617188 2.710938 -1.28125 2.671875 -0.96875 C 2.628906 -0.65625 2.609375 -0.453125 2.609375 -0.359375 C 2.609375 -0.328125 2.5625 -0.28125 2.46875 -0.21875 C 2.375 -0.164062 2.265625 -0.113281 2.140625 -0.0625 C 2.023438 -0.0078125 1.90625 0.03125 1.78125 0.0625 C 1.65625 0.101562 1.554688 0.125 1.484375 0.125 C 1.335938 0.125 1.222656 0.0820312 1.140625 0 C 1.066406 -0.0820312 1.007812 -0.234375 0.96875 -0.453125 C 0.925781 -0.671875 0.898438 -0.972656 0.890625 -1.359375 C 0.890625 -1.753906 0.890625 -2.257812 0.890625 -2.875 C 0.890625 -3.03125 0.894531 -3.335938 0.90625 -3.796875 C 0.925781 -4.265625 0.953125 -4.800781 0.984375 -5.40625 C 1.015625 -6.007812 1.054688 -6.640625 1.109375 -7.296875 C 1.160156 -7.960938 1.222656 -8.570312 1.296875 -9.125 C 1.367188 -9.675781 1.453125 -10.128906 1.546875 -10.484375 C 1.640625 -10.835938 1.75 -11.015625 1.875 -11.015625 C 1.9375 -11.015625 1.992188 -10.992188 2.046875 -10.953125 C 2.097656 -10.910156 2.144531 -10.863281 2.1875 -10.8125 C 2.226562 -10.769531 2.269531 -10.722656 2.3125 -10.671875 C 2.351562 -10.628906 2.394531 -10.609375 2.4375 -10.609375 C 2.476562 -10.609375 2.515625 -10.625 2.546875 -10.65625 C 2.585938 -10.695312 2.625 -10.738281 2.65625 -10.78125 C 2.6875 -10.832031 2.71875 -10.875 2.75 -10.90625 C 2.78125 -10.945312 2.804688 -10.96875 2.828125 -10.96875 C 2.847656 -10.96875 2.882812 -10.921875 2.9375 -10.828125 C 2.988281 -10.742188 3.035156 -10.644531 3.078125 -10.53125 C 3.128906 -10.414062 3.175781 -10.289062 3.21875 -10.15625 C 3.257812 -10.03125 3.28125 -9.9375 3.28125 -9.875 C 3.28125 -9.695312 3.265625 -9.445312 3.234375 -9.125 C 3.203125 -8.800781 3.164062 -8.441406 3.125 -8.046875 C 3.09375 -7.660156 3.0625 -7.265625 3.03125 -6.859375 C 3 -6.460938 2.984375 -6.09375 2.984375 -5.75 L 2.984375 -5.6875 C 3.097656 -6.070312 3.226562 -6.460938 3.375 -6.859375 C 3.53125 -7.253906 3.695312 -7.640625 3.875 -8.015625 C 4.0625 -8.398438 4.257812 -8.765625 4.46875 -9.109375 C 4.675781 -9.453125 4.890625 -9.75 5.109375 -10 C 5.335938 -10.25 5.570312 -10.445312 5.8125 -10.59375 C 6.050781 -10.75 6.289062 -10.828125 6.53125 -10.828125 C 6.832031 -10.828125 7.085938 -10.773438 7.296875 -10.671875 C 7.515625 -10.578125 7.6875 -10.4375 7.8125 -10.25 C 7.945312 -10.070312 8.046875 -9.867188 8.109375 -9.640625 C 8.171875 -9.410156 8.203125 -9.160156 8.203125 -8.890625 C 8.203125 -8.671875 8.1875 -8.410156 8.15625 -8.109375 C 8.125 -7.804688 8.085938 -7.472656 8.046875 -7.109375 C 8.015625 -6.753906 7.984375 -6.359375 7.953125 -5.921875 C 7.921875 -5.492188 7.90625 -5.023438 7.90625 -4.515625 C 8.019531 -4.828125 8.15625 -5.203125 8.3125 -5.640625 C 8.476562 -6.085938 8.65625 -6.546875 8.84375 -7.015625 C 9.039062 -7.492188 9.25 -7.960938 9.46875 -8.421875 C 9.695312 -8.890625 9.925781 -9.304688 10.15625 -9.671875 C 10.382812 -10.035156 10.613281 -10.332031 10.84375 -10.5625 C 11.070312 -10.789062 11.296875 -10.90625 11.515625 -10.90625 C 11.566406 -10.90625 11.703125 -10.882812 11.921875 -10.84375 C 12.140625 -10.800781 12.367188 -10.742188 12.609375 -10.671875 C 12.847656 -10.597656 13.070312 -10.503906 13.28125 -10.390625 C 13.488281 -10.285156 13.628906 -10.164062 13.703125 -10.03125 C 13.773438 -9.875 13.835938 -9.660156 13.890625 -9.390625 C 13.941406 -9.128906 13.96875 -8.773438 13.96875 -8.328125 C 13.96875 -7.941406 13.941406 -7.472656 13.890625 -6.921875 C 13.835938 -6.378906 13.738281 -5.722656 13.59375 -4.953125 C 13.550781 -4.691406 13.519531 -4.441406 13.5 -4.203125 C 13.488281 -3.972656 13.484375 -3.742188 13.484375 -3.515625 C 13.484375 -3.179688 13.5 -2.867188 13.53125 -2.578125 C 13.5625 -2.296875 13.597656 -2.039062 13.640625 -1.8125 C 13.691406 -1.582031 13.738281 -1.382812 13.78125 -1.21875 C 13.820312 -1.0625 13.859375 -0.953125 13.890625 -0.890625 Z M 13.890625 -0.890625" transform="translate(102.137 39.595)"/></g></g></g><g fill="#FFF"><g><g><path d="M 3.625 -17.796875 C 3.613281 -17.734375 3.597656 -17.535156 3.578125 -17.203125 C 3.554688 -16.867188 3.53125 -16.453125 3.5 -15.953125 C 3.46875 -15.453125 3.429688 -14.890625 3.390625 -14.265625 C 3.347656 -13.648438 3.304688 -13.03125 3.265625 -12.40625 C 3.234375 -11.789062 3.203125 -11.195312 3.171875 -10.625 C 3.140625 -10.050781 3.113281 -9.554688 3.09375 -9.140625 C 3.207031 -9.328125 3.351562 -9.515625 3.53125 -9.703125 C 3.71875 -9.898438 3.941406 -10.070312 4.203125 -10.21875 C 4.460938 -10.375 4.757812 -10.5 5.09375 -10.59375 C 5.4375 -10.695312 5.816406 -10.75 6.234375 -10.75 C 6.765625 -10.75 7.296875 -10.648438 7.828125 -10.453125 C 8.359375 -10.265625 8.832031 -9.96875 9.25 -9.5625 C 9.664062 -9.164062 10.003906 -8.660156 10.265625 -8.046875 C 10.535156 -7.429688 10.671875 -6.703125 10.671875 -5.859375 C 10.671875 -5.148438 10.578125 -4.503906 10.390625 -3.921875 C 10.203125 -3.347656 9.957031 -2.832031 9.65625 -2.375 C 9.351562 -1.925781 9.007812 -1.535156 8.625 -1.203125 C 8.238281 -0.867188 7.847656 -0.59375 7.453125 -0.375 C 7.054688 -0.15625 6.675781 0.00390625 6.3125 0.109375 C 5.945312 0.210938 5.628906 0.265625 5.359375 0.265625 C 5.078125 0.265625 4.816406 0.238281 4.578125 0.1875 C 4.335938 0.132812 4.125 0.0703125 3.9375 0 C 3.757812 -0.0820312 3.617188 -0.171875 3.515625 -0.265625 C 3.421875 -0.367188 3.367188 -0.46875 3.359375 -0.5625 C 3.335938 -0.757812 3.332031 -0.972656 3.34375 -1.203125 C 3.363281 -1.429688 3.445312 -1.617188 3.59375 -1.765625 C 3.738281 -1.910156 3.859375 -1.992188 3.953125 -2.015625 C 4.054688 -2.046875 4.15625 -2 4.25 -1.875 C 4.34375 -1.75 4.398438 -1.613281 4.421875 -1.46875 C 4.453125 -1.320312 4.441406 -1.207031 4.390625 -1.125 C 4.359375 -1.082031 4.359375 -1.046875 4.390625 -1.015625 C 4.421875 -0.984375 4.46875 -0.957031 4.53125 -0.9375 C 4.59375 -0.914062 4.664062 -0.894531 4.75 -0.875 C 4.832031 -0.863281 4.914062 -0.859375 5 -0.859375 C 5.300781 -0.859375 5.640625 -0.976562 6.015625 -1.21875 C 6.398438 -1.46875 6.753906 -1.804688 7.078125 -2.234375 C 7.410156 -2.660156 7.691406 -3.160156 7.921875 -3.734375 C 8.148438 -4.316406 8.257812 -4.941406 8.25 -5.609375 C 8.238281 -6.148438 8.171875 -6.617188 8.046875 -7.015625 C 7.929688 -7.410156 7.78125 -7.742188 7.59375 -8.015625 C 7.414062 -8.296875 7.207031 -8.523438 6.96875 -8.703125 C 6.738281 -8.878906 6.507812 -9.007812 6.28125 -9.09375 C 6.0625 -9.1875 5.851562 -9.242188 5.65625 -9.265625 C 5.457031 -9.296875 5.300781 -9.304688 5.1875 -9.296875 C 4.664062 -9.242188 4.222656 -9.066406 3.859375 -8.765625 C 3.492188 -8.472656 3.226562 -8.101562 3.0625 -7.65625 C 3.03125 -6.726562 2.992188 -5.796875 2.953125 -4.859375 C 2.921875 -3.921875 2.90625 -3.046875 2.90625 -2.234375 C 2.90625 -1.828125 2.910156 -1.441406 2.921875 -1.078125 C 2.929688 -0.710938 2.957031 -0.390625 3 -0.109375 C 3.007812 -0.015625 3.007812 0.046875 3 0.078125 C 2.988281 0.109375 2.960938 0.125 2.921875 0.125 C 2.890625 0.125 2.851562 0.113281 2.8125 0.09375 C 2.769531 0.0820312 2.726562 0.0664062 2.6875 0.046875 C 2.65625 0.0351562 2.644531 0.0546875 2.65625 0.109375 C 2.675781 0.171875 2.6875 0.234375 2.6875 0.296875 C 2.695312 0.367188 2.6875 0.421875 2.65625 0.453125 C 2.625 0.484375 2.546875 0.457031 2.421875 0.375 C 2.347656 0.3125 2.257812 0.265625 2.15625 0.234375 C 2.050781 0.210938 2.015625 0.234375 2.046875 0.296875 C 2.054688 0.328125 2.03125 0.34375 1.96875 0.34375 C 1.90625 0.351562 1.832031 0.34375 1.75 0.3125 C 1.664062 0.289062 1.585938 0.242188 1.515625 0.171875 C 1.441406 0.0976562 1.390625 0 1.359375 -0.125 C 1.316406 -0.394531 1.273438 -0.6875 1.234375 -1 C 1.203125 -1.3125 1.171875 -1.648438 1.140625 -2.015625 C 1.117188 -2.390625 1.097656 -2.800781 1.078125 -3.25 C 1.054688 -3.707031 1.046875 -4.222656 1.046875 -4.796875 C 1.046875 -5.222656 1.046875 -5.6875 1.046875 -6.1875 C 1.054688 -6.6875 1.078125 -7.238281 1.109375 -7.84375 C 1.140625 -8.9375 1.179688 -10.015625 1.234375 -11.078125 C 1.285156 -12.148438 1.34375 -13.128906 1.40625 -14.015625 C 1.46875 -14.910156 1.535156 -15.675781 1.609375 -16.3125 C 1.679688 -16.945312 1.757812 -17.382812 1.84375 -17.625 C 1.863281 -17.707031 1.898438 -17.757812 1.953125 -17.78125 C 2.015625 -17.800781 2.125 -17.832031 2.28125 -17.875 C 2.425781 -17.914062 2.578125 -17.957031 2.734375 -18 C 2.898438 -18.039062 3.03125 -18.050781 3.125 -18.03125 C 3.15625 -18.007812 3.203125 -18.007812 3.265625 -18.03125 C 3.328125 -18.050781 3.382812 -18.0625 3.4375 -18.0625 C 3.5 -18.0625 3.546875 -18.039062 3.578125 -18 C 3.617188 -17.96875 3.632812 -17.898438 3.625 -17.796875 Z M 3.625 -17.796875" transform="translate(117.29 39.595)"/></g></g></g><g fill="#FFF"><g><g><path d="M 10.03125 -5.53125 C 10.03125 -4.613281 9.894531 -3.785156 9.625 -3.046875 C 9.351562 -2.316406 8.988281 -1.691406 8.53125 -1.171875 C 8.070312 -0.660156 7.539062 -0.265625 6.9375 0.015625 C 6.332031 0.296875 5.695312 0.4375 5.03125 0.4375 C 4.75 0.4375 4.441406 0.398438 4.109375 0.328125 C 3.773438 0.265625 3.441406 0.160156 3.109375 0.015625 C 2.773438 -0.128906 2.453125 -0.320312 2.140625 -0.5625 C 1.828125 -0.8125 1.546875 -1.113281 1.296875 -1.46875 C 1.054688 -1.832031 0.863281 -2.253906 0.71875 -2.734375 C 0.570312 -3.222656 0.503906 -3.78125 0.515625 -4.40625 C 0.515625 -5.125 0.597656 -5.773438 0.765625 -6.359375 C 0.941406 -6.953125 1.164062 -7.484375 1.4375 -7.953125 C 1.71875 -8.421875 2.03125 -8.828125 2.375 -9.171875 C 2.726562 -9.515625 3.082031 -9.800781 3.4375 -10.03125 C 3.789062 -10.257812 4.128906 -10.429688 4.453125 -10.546875 C 4.773438 -10.660156 5.050781 -10.726562 5.28125 -10.75 C 5.40625 -10.757812 5.460938 -10.742188 5.453125 -10.703125 C 5.441406 -10.671875 5.410156 -10.632812 5.359375 -10.59375 C 5.304688 -10.550781 5.257812 -10.503906 5.21875 -10.453125 C 5.175781 -10.410156 5.191406 -10.382812 5.265625 -10.375 C 5.328125 -10.363281 5.375 -10.347656 5.40625 -10.328125 C 5.445312 -10.304688 5.488281 -10.285156 5.53125 -10.265625 L 5.640625 -10.375 C 5.703125 -10.425781 5.757812 -10.453125 5.8125 -10.453125 C 5.875 -10.453125 5.925781 -10.441406 5.96875 -10.421875 C 6.007812 -10.410156 6.039062 -10.40625 6.0625 -10.40625 C 6.09375 -10.40625 6.113281 -10.429688 6.125 -10.484375 C 6.144531 -10.578125 6.175781 -10.628906 6.21875 -10.640625 C 6.269531 -10.660156 6.382812 -10.671875 6.5625 -10.671875 C 6.664062 -10.671875 6.820312 -10.640625 7.03125 -10.578125 C 7.25 -10.515625 7.488281 -10.40625 7.75 -10.25 C 8.007812 -10.101562 8.269531 -9.90625 8.53125 -9.65625 C 8.800781 -9.414062 9.046875 -9.101562 9.265625 -8.71875 C 9.492188 -8.34375 9.675781 -7.890625 9.8125 -7.359375 C 9.957031 -6.835938 10.03125 -6.226562 10.03125 -5.53125 Z M 5.28125 -9.375 C 4.976562 -9.195312 4.675781 -8.945312 4.375 -8.625 C 4.082031 -8.3125 3.816406 -7.945312 3.578125 -7.53125 C 3.335938 -7.125 3.140625 -6.664062 2.984375 -6.15625 C 2.835938 -5.65625 2.765625 -5.125 2.765625 -4.5625 C 2.765625 -3.957031 2.816406 -3.410156 2.921875 -2.921875 C 3.035156 -2.429688 3.195312 -2.015625 3.40625 -1.671875 C 3.625 -1.328125 3.878906 -1.0625 4.171875 -0.875 C 4.472656 -0.6875 4.816406 -0.59375 5.203125 -0.59375 C 5.546875 -0.59375 5.882812 -0.6875 6.21875 -0.875 C 6.5625 -1.070312 6.863281 -1.363281 7.125 -1.75 C 7.382812 -2.132812 7.59375 -2.609375 7.75 -3.171875 C 7.914062 -3.742188 8 -4.40625 8 -5.15625 C 8 -5.914062 7.898438 -6.550781 7.703125 -7.0625 C 7.503906 -7.582031 7.28125 -8.003906 7.03125 -8.328125 C 6.78125 -8.648438 6.539062 -8.878906 6.3125 -9.015625 C 6.082031 -9.148438 5.941406 -9.21875 5.890625 -9.21875 C 5.765625 -9.21875 5.671875 -9.21875 5.609375 -9.21875 C 5.546875 -9.21875 5.4375 -9.269531 5.28125 -9.375 Z M 5.28125 -9.375" transform="translate(128.927 39.595)"/></g></g></g><g fill="#FFF"><g><g><path d="M 4.078125 -0.921875 C 4.148438 -0.554688 4.15625 -0.3125 4.09375 -0.1875 C 4.039062 -0.0625 3.96875 0.0078125 3.875 0.03125 C 3.832031 0.0390625 3.789062 0.0390625 3.75 0.03125 C 3.707031 0.0195312 3.660156 0.0078125 3.609375 0 C 3.566406 0 3.515625 0.00390625 3.453125 0.015625 C 3.398438 0.0234375 3.34375 0.046875 3.28125 0.078125 C 3.144531 0.160156 3.003906 0.1875 2.859375 0.15625 C 2.722656 0.125 2.519531 0.046875 2.25 -0.078125 C 2.125 -0.128906 2.023438 -0.171875 1.953125 -0.203125 C 1.890625 -0.242188 1.84375 -0.28125 1.8125 -0.3125 C 1.789062 -0.34375 1.78125 -0.375 1.78125 -0.40625 C 1.789062 -0.4375 1.796875 -0.472656 1.796875 -0.515625 C 1.742188 -0.960938 1.71875 -1.535156 1.71875 -2.234375 C 1.71875 -2.691406 1.722656 -3.179688 1.734375 -3.703125 C 1.753906 -4.222656 1.773438 -4.738281 1.796875 -5.25 C 1.816406 -5.757812 1.832031 -6.25 1.84375 -6.71875 C 1.863281 -7.195312 1.875 -7.617188 1.875 -7.984375 C 1.875 -8.316406 1.878906 -8.769531 1.890625 -9.34375 C 1.910156 -9.914062 1.929688 -10.539062 1.953125 -11.21875 C 1.972656 -11.894531 1.992188 -12.582031 2.015625 -13.28125 C 2.046875 -13.988281 2.070312 -14.632812 2.09375 -15.21875 C 2.125 -15.8125 2.144531 -16.304688 2.15625 -16.703125 C 2.175781 -17.109375 2.191406 -17.34375 2.203125 -17.40625 C 2.203125 -17.519531 2.222656 -17.617188 2.265625 -17.703125 C 2.316406 -17.785156 2.367188 -17.816406 2.421875 -17.796875 C 2.523438 -17.796875 2.59375 -17.8125 2.625 -17.84375 C 2.65625 -17.882812 2.695312 -17.90625 2.75 -17.90625 C 2.851562 -17.914062 2.945312 -17.914062 3.03125 -17.90625 C 3.113281 -17.894531 3.15625 -17.898438 3.15625 -17.921875 C 3.164062 -17.972656 3.191406 -18.007812 3.234375 -18.03125 C 3.285156 -18.050781 3.34375 -18.0625 3.40625 -18.0625 C 3.507812 -18.039062 3.613281 -17.992188 3.71875 -17.921875 C 3.820312 -17.859375 3.90625 -17.75 3.96875 -17.59375 C 3.988281 -17.550781 4.003906 -17.414062 4.015625 -17.1875 C 4.035156 -16.96875 4.046875 -16.691406 4.046875 -16.359375 C 4.054688 -16.023438 4.0625 -15.648438 4.0625 -15.234375 C 4.070312 -14.828125 4.078125 -14.414062 4.078125 -14 C 4.078125 -13.632812 4.070312 -13.28125 4.0625 -12.9375 C 4.0625 -12.59375 4.0625 -12.28125 4.0625 -12 C 4.0625 -11.726562 4.0625 -11.492188 4.0625 -11.296875 C 4.0625 -11.097656 4.0625 -10.957031 4.0625 -10.875 C 4.03125 -10.375 4.007812 -9.863281 4 -9.34375 C 4 -8.820312 4 -8.296875 4 -7.765625 C 4 -7.054688 3.992188 -6.351562 3.984375 -5.65625 C 3.972656 -4.96875 3.96875 -4.320312 3.96875 -3.71875 C 3.96875 -3.125 3.972656 -2.582031 3.984375 -2.09375 C 3.992188 -1.601562 4.023438 -1.210938 4.078125 -0.921875 Z M 4.078125 -0.921875" transform="translate(144.893 39.595)"/></g></g></g><g fill="#FE6B8B"><g><g><path d="M 11.9375 -17.171875 C 11.9375 -14.921875 11.394531 -13.398438 10.3125 -12.609375 C 11.695312 -11.796875 12.390625 -9.972656 12.390625 -7.140625 L 12.390625 -6.546875 C 12.367188 -4.148438 11.941406 -2.414062 11.109375 -1.34375 C 10.242188 -0.226562 8.863281 0.328125 6.96875 0.328125 L 1.53125 0.328125 L 1.53125 -23.421875 L 6.859375 -23.421875 C 8.679688 -23.421875 9.988281 -22.984375 10.78125 -22.109375 C 11.164062 -21.671875 11.453125 -21.097656 11.640625 -20.390625 C 11.828125 -19.679688 11.925781 -18.84375 11.9375 -17.875 Z M 5.703125 -3.0625 L 6.625 -3.0625 C 7.207031 -3.0625 7.601562 -3.25 7.8125 -3.625 C 8.0625 -4.050781 8.1875 -4.851562 8.1875 -6.03125 L 8.1875 -7.90625 C 8.1875 -8.457031 8.15625 -8.929688 8.09375 -9.328125 C 8.039062 -9.734375 7.96875 -10.039062 7.875 -10.25 C 7.789062 -10.4375 7.664062 -10.570312 7.5 -10.65625 C 7.34375 -10.738281 7.128906 -10.78125 6.859375 -10.78125 L 5.703125 -10.78125 Z M 5.703125 -14.078125 L 6.671875 -14.078125 C 7.140625 -14.078125 7.441406 -14.207031 7.578125 -14.46875 C 7.742188 -14.8125 7.828125 -15.554688 7.828125 -16.703125 L 7.828125 -18.09375 C 7.828125 -18.257812 7.816406 -18.414062 7.796875 -18.5625 C 7.785156 -18.71875 7.769531 -18.851562 7.75 -18.96875 C 7.738281 -19.082031 7.71875 -19.1875 7.6875 -19.28125 C 7.664062 -19.382812 7.640625 -19.46875 7.609375 -19.53125 C 7.585938 -19.59375 7.554688 -19.644531 7.515625 -19.6875 C 7.347656 -19.90625 7.03125 -20.015625 6.5625 -20.015625 L 5.703125 -20.015625 Z M 5.703125 -14.078125" transform="translate(2.19 71.078)"/></g></g></g><g fill="#FE6B8B"><g><g><path d="M 5.609375 -3.703125 C 5.679688 -3.503906 5.789062 -3.351562 5.9375 -3.25 C 6.09375 -3.15625 6.300781 -3.109375 6.5625 -3.109375 C 6.820312 -3.109375 7.023438 -3.15625 7.171875 -3.25 C 7.328125 -3.351562 7.441406 -3.507812 7.515625 -3.71875 C 7.703125 -4.21875 7.796875 -5.117188 7.796875 -6.421875 L 7.796875 -17.171875 C 7.796875 -18.222656 7.695312 -18.984375 7.5 -19.453125 C 7.425781 -19.640625 7.316406 -19.773438 7.171875 -19.859375 C 7.035156 -19.953125 6.84375 -20 6.59375 -20 C 6.351562 -20 6.15625 -19.953125 6 -19.859375 C 5.851562 -19.765625 5.734375 -19.625 5.640625 -19.4375 C 5.535156 -19.21875 5.453125 -18.914062 5.390625 -18.53125 C 5.335938 -18.15625 5.3125 -17.707031 5.3125 -17.1875 L 5.3125 -6.421875 C 5.3125 -5.109375 5.410156 -4.203125 5.609375 -3.703125 Z M 10.703125 -1.203125 C 10.265625 -0.609375 9.703125 -0.160156 9.015625 0.140625 C 8.328125 0.441406 7.519531 0.59375 6.59375 0.59375 C 4.695312 0.59375 3.304688 -0.0078125 2.421875 -1.21875 C 1.546875 -2.394531 1.109375 -4.140625 1.109375 -6.453125 L 1.109375 -17.015625 C 1.109375 -19.191406 1.570312 -20.847656 2.5 -21.984375 C 3.425781 -23.128906 4.800781 -23.703125 6.625 -23.703125 C 8.519531 -23.703125 9.894531 -23.117188 10.75 -21.953125 C 11.570312 -20.816406 11.984375 -19.171875 11.984375 -17.015625 L 11.984375 -6.453125 C 11.984375 -5.296875 11.875 -4.28125 11.65625 -3.40625 C 11.445312 -2.53125 11.128906 -1.796875 10.703125 -1.203125 Z M 10.703125 -1.203125" transform="translate(15.257 71.078)"/></g></g></g><g fill="#FE6B8B"><g><g><path d="M 1.40625 0 L 1.40625 -23.421875 L 4.71875 -23.421875 L 4.796875 -23.203125 L 8.96875 -11.390625 L 8.8125 -15.53125 L 8.8125 -23.421875 L 12.625 -23.421875 L 12.625 0.328125 L 9.5625 0.328125 L 9.484375 0.109375 L 5.171875 -12.21875 L 5.296875 -8.28125 L 5.296875 0.328125 L 1.40625 0.328125 Z M 1.40625 0" transform="translate(28.363 71.078)"/></g></g></g><g fill="#FE6B8B"><g><g><path d="M 1.40625 0 L 1.40625 -23.421875 L 9.796875 -23.421875 L 9.796875 -19.734375 L 5.578125 -19.734375 L 5.578125 -13.671875 L 9.59375 -13.671875 L 9.59375 -10.046875 L 5.578125 -10.046875 L 5.578125 -3.359375 L 9.953125 -3.359375 L 9.953125 0.328125 L 1.40625 0.328125 Z M 1.40625 0" transform="translate(42.388 71.078)"/></g></g></g><g fill="#FE6B8B"><g><g><path d="M 11.984375 -6.453125 C 11.984375 -3.210938 11.148438 -1.09375 9.484375 -0.09375 L 11.375 2.109375 L 11.59375 2.359375 L 11.34375 2.578125 L 9.609375 4.078125 L 9.375 4.296875 L 9.15625 4.0625 L 5.9375 0.5625 C 4.375 0.4375 3.179688 -0.179688 2.359375 -1.296875 C 1.523438 -2.421875 1.109375 -4.140625 1.109375 -6.453125 L 1.109375 -17.015625 C 1.109375 -19.191406 1.570312 -20.847656 2.5 -21.984375 C 3.425781 -23.128906 4.800781 -23.703125 6.625 -23.703125 C 8.519531 -23.703125 9.894531 -23.117188 10.75 -21.953125 C 11.570312 -20.816406 11.984375 -19.171875 11.984375 -17.015625 Z M 5.609375 -3.703125 C 5.679688 -3.503906 5.789062 -3.351562 5.9375 -3.25 C 6.09375 -3.15625 6.300781 -3.109375 6.5625 -3.109375 C 6.820312 -3.109375 7.023438 -3.15625 7.171875 -3.25 C 7.328125 -3.351562 7.441406 -3.507812 7.515625 -3.71875 C 7.703125 -4.21875 7.796875 -5.117188 7.796875 -6.421875 L 7.796875 -17.171875 C 7.796875 -18.222656 7.695312 -18.984375 7.5 -19.453125 C 7.425781 -19.640625 7.316406 -19.773438 7.171875 -19.859375 C 7.035156 -19.953125 6.84375 -20 6.59375 -20 C 6.351562 -20 6.15625 -19.953125 6 -19.859375 C 5.851562 -19.765625 5.734375 -19.625 5.640625 -19.4375 C 5.535156 -19.21875 5.453125 -18.914062 5.390625 -18.53125 C 5.335938 -18.15625 5.3125 -17.707031 5.3125 -17.1875 L 5.3125 -6.421875 C 5.3125 -5.109375 5.410156 -4.203125 5.609375 -3.703125 Z M 5.609375 -3.703125" transform="translate(53.093 71.078)"/></g></g></g><g fill="#FE6B8B"><g><g><path d="M 10.828125 -1.03125 C 9.960938 0.0507812 8.585938 0.59375 6.703125 0.59375 C 4.816406 0.59375 3.4375 0.0507812 2.5625 -1.03125 C 1.695312 -2.101562 1.265625 -3.738281 1.265625 -5.9375 L 1.265625 -23.4375 L 5.453125 -23.4375 L 5.453125 -6 C 5.453125 -4.820312 5.5 -4.125 5.59375 -3.90625 C 5.644531 -3.789062 5.703125 -3.675781 5.765625 -3.5625 C 5.828125 -3.457031 5.890625 -3.359375 5.953125 -3.265625 C 6.054688 -3.140625 6.304688 -3.078125 6.703125 -3.078125 C 7.097656 -3.078125 7.375 -3.179688 7.53125 -3.390625 C 7.71875 -3.628906 7.832031 -3.941406 7.875 -4.328125 C 7.894531 -4.546875 7.910156 -4.789062 7.921875 -5.0625 C 7.929688 -5.34375 7.9375 -5.65625 7.9375 -6 L 7.9375 -23.4375 L 12.109375 -23.4375 L 12.109375 -5.9375 C 12.109375 -3.726562 11.679688 -2.09375 10.828125 -1.03125 Z M 10.828125 -1.03125" transform="translate(66.33 71.078)"/></g></g></g><g fill="#FE6B8B"><g><g><path d="M 1.40625 0 L 1.40625 -23.421875 L 9.796875 -23.421875 L 9.796875 -19.734375 L 5.578125 -19.734375 L 5.578125 -13.671875 L 9.59375 -13.671875 L 9.59375 -10.046875 L 5.578125 -10.046875 L 5.578125 -3.359375 L 9.953125 -3.359375 L 9.953125 0.328125 L 1.40625 0.328125 Z M 1.40625 0" transform="translate(79.713 71.078)"/></g></g></g><g fill="#FE6B8B"><g><g><path d="M 1.53125 0 L 1.53125 -23.421875 L 5.703125 -23.421875 L 5.703125 0.328125 L 1.53125 0.328125 Z M 1.53125 0" transform="translate(90.418 71.078)"/></g></g></g><g fill="#FE6B8B"><g><g><path d="M 6.359375 -10.53125 L 5.578125 -10.5625 L 5.578125 0.328125 L 1.40625 0.328125 L 1.40625 -23.421875 L 7.546875 -23.421875 C 7.960938 -23.421875 8.34375 -23.390625 8.6875 -23.328125 C 9.039062 -23.273438 9.367188 -23.191406 9.671875 -23.078125 C 9.972656 -22.960938 10.234375 -22.8125 10.453125 -22.625 C 10.585938 -22.519531 10.710938 -22.398438 10.828125 -22.265625 C 10.941406 -22.140625 11.039062 -22.007812 11.125 -21.875 C 11.21875 -21.738281 11.304688 -21.585938 11.390625 -21.421875 C 11.472656 -21.265625 11.539062 -21.101562 11.59375 -20.9375 C 11.644531 -20.769531 11.695312 -20.59375 11.75 -20.40625 C 11.84375 -19.945312 11.910156 -19.425781 11.953125 -18.84375 C 12.003906 -18.269531 12.03125 -17.628906 12.03125 -16.921875 C 12.03125 -15.472656 11.875 -14.363281 11.5625 -13.59375 C 11.332031 -13.019531 10.960938 -12.570312 10.453125 -12.25 C 10.960938 -11.945312 11.34375 -11.4375 11.59375 -10.71875 C 11.757812 -10.207031 11.878906 -9.460938 11.953125 -8.484375 C 12.035156 -7.515625 12.078125 -6.28125 12.078125 -4.78125 C 12.078125 -4.09375 12.078125 -3.457031 12.078125 -2.875 C 12.085938 -2.300781 12.097656 -1.828125 12.109375 -1.453125 C 12.117188 -1.078125 12.128906 -0.773438 12.140625 -0.546875 C 12.160156 -0.316406 12.171875 -0.175781 12.171875 -0.125 L 12.359375 0.328125 L 8.15625 0.328125 L 8.078125 0.140625 C 7.992188 -0.015625 7.941406 -0.53125 7.921875 -1.40625 C 7.910156 -2.28125 7.90625 -3.878906 7.90625 -6.203125 C 7.90625 -7.097656 7.90625 -7.789062 7.90625 -8.28125 C 7.90625 -8.75 7.875 -9.144531 7.8125 -9.46875 C 7.757812 -9.789062 7.6875 -10.007812 7.59375 -10.125 C 7.414062 -10.375 7.003906 -10.507812 6.359375 -10.53125 Z M 5.59375 -13.96875 L 6.671875 -13.96875 C 6.742188 -13.96875 6.816406 -13.96875 6.890625 -13.96875 C 6.960938 -13.976562 7.023438 -13.988281 7.078125 -14 C 7.128906 -14.007812 7.175781 -14.023438 7.21875 -14.046875 C 7.269531 -14.066406 7.3125 -14.085938 7.34375 -14.109375 C 7.375 -14.128906 7.398438 -14.148438 7.421875 -14.171875 C 7.585938 -14.316406 7.707031 -14.601562 7.78125 -15.03125 C 7.8125 -15.25 7.835938 -15.546875 7.859375 -15.921875 C 7.890625 -16.296875 7.90625 -16.726562 7.90625 -17.21875 L 7.90625 -17.359375 C 7.90625 -18.554688 7.8125 -19.320312 7.625 -19.65625 C 7.476562 -19.925781 7.085938 -20.0625 6.453125 -20.0625 L 5.59375 -20.0625 Z M 5.59375 -13.96875" transform="translate(97.66 71.078)"/></g></g></g><g fill="#FE6B8B"><g><g><path d="M 7.546875 -7.265625 L 6.359375 -16.15625 L 5.28125 -7.265625 Z M 0.359375 -0.046875 L 3.640625 -23.140625 L 3.6875 -23.421875 L 8.890625 -23.421875 L 8.953125 -23.140625 L 12.453125 -0.046875 L 12.5 0.328125 L 8.5625 0.328125 L 8.515625 0.046875 L 8 -3.796875 L 4.859375 -3.796875 L 4.390625 0.046875 L 4.359375 0.328125 L 0.296875 0.328125 Z M 0.359375 -0.046875" transform="translate(110.91 71.078)"/></g></g></g><g fill="#FE6B8B"><g><g><path d="M 1.40625 0 L 1.40625 -23.421875 L 7.03125 -23.421875 C 7.5 -23.421875 7.929688 -23.382812 8.328125 -23.3125 C 8.734375 -23.238281 9.101562 -23.128906 9.4375 -22.984375 C 9.769531 -22.835938 10.066406 -22.648438 10.328125 -22.421875 C 10.585938 -22.191406 10.8125 -21.925781 11 -21.625 C 11.34375 -21.050781 11.601562 -20.34375 11.78125 -19.5 C 11.96875 -18.664062 12.066406 -17.695312 12.078125 -16.59375 L 12.078125 -16.09375 C 12.078125 -15.320312 12.039062 -14.609375 11.96875 -13.953125 C 11.894531 -13.304688 11.785156 -12.707031 11.640625 -12.15625 C 11.492188 -11.613281 11.300781 -11.132812 11.0625 -10.71875 C 10.820312 -10.289062 10.507812 -9.929688 10.125 -9.640625 C 9.75 -9.347656 9.3125 -9.128906 8.8125 -8.984375 C 8.320312 -8.847656 7.769531 -8.78125 7.15625 -8.78125 L 5.578125 -8.78125 L 5.578125 0.328125 L 1.40625 0.328125 Z M 5.578125 -12.328125 L 6.453125 -12.328125 C 7.046875 -12.328125 7.425781 -12.546875 7.59375 -12.984375 C 7.800781 -13.523438 7.90625 -14.578125 7.90625 -16.140625 L 7.90625 -16.59375 C 7.90625 -17.25 7.875 -17.8125 7.8125 -18.28125 C 7.757812 -18.757812 7.679688 -19.128906 7.578125 -19.390625 C 7.484375 -19.617188 7.347656 -19.785156 7.171875 -19.890625 C 7.003906 -20.003906 6.773438 -20.0625 6.484375 -20.0625 L 5.578125 -20.0625 Z M 5.578125 -12.328125" transform="translate(128.53 71.078)"/></g></g></g><g fill="#FE6B8B"><g><g><path d="M 6.359375 -10.53125 L 5.578125 -10.5625 L 5.578125 0.328125 L 1.40625 0.328125 L 1.40625 -23.421875 L 7.546875 -23.421875 C 7.960938 -23.421875 8.34375 -23.390625 8.6875 -23.328125 C 9.039062 -23.273438 9.367188 -23.191406 9.671875 -23.078125 C 9.972656 -22.960938 10.234375 -22.8125 10.453125 -22.625 C 10.585938 -22.519531 10.710938 -22.398438 10.828125 -22.265625 C 10.941406 -22.140625 11.039062 -22.007812 11.125 -21.875 C 11.21875 -21.738281 11.304688 -21.585938 11.390625 -21.421875 C 11.472656 -21.265625 11.539062 -21.101562 11.59375 -20.9375 C 11.644531 -20.769531 11.695312 -20.59375 11.75 -20.40625 C 11.84375 -19.945312 11.910156 -19.425781 11.953125 -18.84375 C 12.003906 -18.269531 12.03125 -17.628906 12.03125 -16.921875 C 12.03125 -15.472656 11.875 -14.363281 11.5625 -13.59375 C 11.332031 -13.019531 10.960938 -12.570312 10.453125 -12.25 C 10.960938 -11.945312 11.34375 -11.4375 11.59375 -10.71875 C 11.757812 -10.207031 11.878906 -9.460938 11.953125 -8.484375 C 12.035156 -7.515625 12.078125 -6.28125 12.078125 -4.78125 C 12.078125 -4.09375 12.078125 -3.457031 12.078125 -2.875 C 12.085938 -2.300781 12.097656 -1.828125 12.109375 -1.453125 C 12.117188 -1.078125 12.128906 -0.773438 12.140625 -0.546875 C 12.160156 -0.316406 12.171875 -0.175781 12.171875 -0.125 L 12.359375 0.328125 L 8.15625 0.328125 L 8.078125 0.140625 C 7.992188 -0.015625 7.941406 -0.53125 7.921875 -1.40625 C 7.910156 -2.28125 7.90625 -3.878906 7.90625 -6.203125 C 7.90625 -7.097656 7.90625 -7.789062 7.90625 -8.28125 C 7.90625 -8.75 7.875 -9.144531 7.8125 -9.46875 C 7.757812 -9.789062 7.6875 -10.007812 7.59375 -10.125 C 7.414062 -10.375 7.003906 -10.507812 6.359375 -10.53125 Z M 5.59375 -13.96875 L 6.671875 -13.96875 C 6.742188 -13.96875 6.816406 -13.96875 6.890625 -13.96875 C 6.960938 -13.976562 7.023438 -13.988281 7.078125 -14 C 7.128906 -14.007812 7.175781 -14.023438 7.21875 -14.046875 C 7.269531 -14.066406 7.3125 -14.085938 7.34375 -14.109375 C 7.375 -14.128906 7.398438 -14.148438 7.421875 -14.171875 C 7.585938 -14.316406 7.707031 -14.601562 7.78125 -15.03125 C 7.8125 -15.25 7.835938 -15.546875 7.859375 -15.921875 C 7.890625 -16.296875 7.90625 -16.726562 7.90625 -17.21875 L 7.90625 -17.359375 C 7.90625 -18.554688 7.8125 -19.320312 7.625 -19.65625 C 7.476562 -19.925781 7.085938 -20.0625 6.453125 -20.0625 L 5.59375 -20.0625 Z M 5.59375 -13.96875" transform="translate(140.914 71.078)"/></g></g></g><g fill="#FE6B8B"><g><g><path d="M 1.40625 0 L 1.40625 -23.421875 L 9.796875 -23.421875 L 9.796875 -19.734375 L 5.578125 -19.734375 L 5.578125 -13.671875 L 9.59375 -13.671875 L 9.59375 -10.046875 L 5.578125 -10.046875 L 5.578125 -3.359375 L 9.953125 -3.359375 L 9.953125 0.328125 L 1.40625 0.328125 Z M 1.40625 0" transform="translate(154.165 71.078)"/></g></g></g><g fill="#FE6B8B"><g><g><path d="M 1.40625 0 L 1.40625 -23.421875 L 6.375 -23.421875 L 6.4375 -23.15625 L 9.375 -7.984375 L 12.140625 -23.140625 L 12.1875 -23.421875 L 17.1875 -23.421875 L 17.1875 0.328125 L 13.390625 0.328125 L 13.390625 -8.609375 L 13.46875 -12.671875 L 11.078125 -0.046875 L 11.015625 0.21875 L 7.671875 0.21875 L 7.625 -0.046875 L 5.109375 -12.84375 L 5.171875 -8.609375 L 5.171875 0.328125 L 1.40625 0.328125 Z M 1.40625 0" transform="translate(164.87 71.078)"/></g></g></g><g fill="#FE6B8B"><g><g><path d="M 1.53125 0 L 1.53125 -23.421875 L 5.703125 -23.421875 L 5.703125 0.328125 L 1.53125 0.328125 Z M 1.53125 0" transform="translate(183.474 71.078)"/></g></g></g><g fill="#FE6B8B"><g><g><path d="M 10.828125 -1.03125 C 9.960938 0.0507812 8.585938 0.59375 6.703125 0.59375 C 4.816406 0.59375 3.4375 0.0507812 2.5625 -1.03125 C 1.695312 -2.101562 1.265625 -3.738281 1.265625 -5.9375 L 1.265625 -23.4375 L 5.453125 -23.4375 L 5.453125 -6 C 5.453125 -4.820312 5.5 -4.125 5.59375 -3.90625 C 5.644531 -3.789062 5.703125 -3.675781 5.765625 -3.5625 C 5.828125 -3.457031 5.890625 -3.359375 5.953125 -3.265625 C 6.054688 -3.140625 6.304688 -3.078125 6.703125 -3.078125 C 7.097656 -3.078125 7.375 -3.179688 7.53125 -3.390625 C 7.71875 -3.628906 7.832031 -3.941406 7.875 -4.328125 C 7.894531 -4.546875 7.910156 -4.789062 7.921875 -5.0625 C 7.929688 -5.34375 7.9375 -5.65625 7.9375 -6 L 7.9375 -23.4375 L 12.109375 -23.4375 L 12.109375 -5.9375 C 12.109375 -3.726562 11.679688 -2.09375 10.828125 -1.03125 Z M 10.828125 -1.03125" transform="translate(190.716 71.078)"/></g></g></g><g fill="#FE6B8B"><g><g><path d="M 1.40625 0 L 1.40625 -23.421875 L 6.375 -23.421875 L 6.4375 -23.15625 L 9.375 -7.984375 L 12.140625 -23.140625 L 12.1875 -23.421875 L 17.1875 -23.421875 L 17.1875 0.328125 L 13.390625 0.328125 L 13.390625 -8.609375 L 13.46875 -12.671875 L 11.078125 -0.046875 L 11.015625 0.21875 L 7.671875 0.21875 L 7.625 -0.046875 L 5.109375 -12.84375 L 5.171875 -8.609375 L 5.171875 0.328125 L 1.40625 0.328125 Z M 1.40625 0" transform="translate(204.097 71.078)"/></g></g></g></svg>